<?xml version="1.0" encoding="UTF-8"?>
<svg width="16mm" height="16mm" version="1.1" viewBox="0 0 16 16" xmlns="http://www.w3.org/2000/svg" xmlnsCc="http://creativecommons.org/ns#" xmlnsDc="http://purl.org/dc/elements/1.1/" xmlnsRdf="http://www.w3.org/1999/02/22-rdf-syntax-ns#">

 <g transform="translate(.16475 -.21864)">
  <path d="m7.0256 16.177c-2.7383-0.28094-5.1648-1.9715-6.3731-4.4402-1.0896-2.226-1.0896-4.8105 0-7.0365 1.2234-2.4995 3.6406-4.1665 6.4446-4.4444 3.6669-0.36354 7.1832 1.9414 8.3326 5.462 0.54091 1.6569 0.54091 3.3445 0 5.0014-1.1573 3.5449-4.6895 5.8388-8.404 5.4577zm1.9022-0.70594c3.1889-0.48698 5.6748-2.9837 6.1678-6.1945 0.07712-0.5023 0.08604-1.5347 0.01745-2.0198-0.29715-2.1014-1.4573-3.9614-3.1957-5.1234-0.90708-0.60633-1.8634-0.98153-2.9867-1.1718-0.52792-0.089438-1.6674-0.089281-2.1937 3.0535e-4 -1.5121 0.25736-2.8181 0.89078-3.9045 1.8938-0.97314 0.89843-1.7384 2.168-2.0783 3.4481-0.1941 0.73089-0.24524 1.1302-0.24524 1.9149 0 0.78469 0.05114 1.184 0.24524 1.9149 0.7746 2.9167 3.3116 5.059 6.3869 5.3931 0.42313 0.04597 1.3008 0.0187 1.7868-0.05552z" fill="#fff" stroke-width=".038479"/>
 </g>
</svg>
