<?xml version="1.0" encoding="UTF-8"?>
<svg width="36.383mm" height="36.016mm" version="1.1" viewBox="0 0 36.383 36.016" xmlns="http://www.w3.org/2000/svg" xmlnsCc="http://creativecommons.org/ns#" xmlnsDc="http://purl.org/dc/elements/1.1/" xmlnsRdf="http://www.w3.org/1999/02/22-rdf-syntax-ns#">

 <g transform="translate(-2.9485 -3.5561)" fill="#020202" stroke-width="0">
  <path d="m35.028 10.547c-0.27212-0.6141-0.76279-1.1068-1.1991-1.6177-0.52297-0.61742-1.0585-1.2282-1.6754-1.7641-0.38384-0.3335-0.70365-0.55889-1.1124-0.86227-0.89301-0.62746-1.8597-1.1595-2.8771-1.5827-0.65806-0.27373-0.9634-0.36121-1.6409-0.58605-1.5795-0.42637-3.2241-0.72563-4.8744-0.65582-0.34218 0.014468-0.68189 0.062352-1.0228 0.093528-1.6527 0.26105-3.2296 0.85357-4.7055 1.5983-0.28243 0.14251-0.55552 0.30117-0.83328 0.45175-1.0772 0.69454-2.148 1.4134-3.143 2.2137-0.61097 0.49143-0.79783 0.68812-1.3602 1.2184-0.79833 0.80735-1.5914 1.6225-2.298 2.5052-0.49382 0.61686-0.56333 0.74352-1.0117 1.3953-0.90952 1.4499-1.6483 2.9948-2.2013 4.5994-0.12242 0.35525-0.22542 0.71629-0.33813 1.0744-0.36549 1.2892-0.6353 2.6028-0.80475 3.9283-0.090257 0.70604-0.11202 1.061-0.17011 1.763-0.071303 1.083-0.083946 2.171 0.074273 3.2481 0.098233 0.66869 0.16369 0.86856 0.32365 1.5148 0.30495 1.0522 0.7526 2.06 1.3462 2.9945 0.38065 0.59926 0.52917 0.7576 0.97138 1.3171 0.7448 0.86738 1.5217 1.7213 2.4334 2.436 0.43589 0.34172 0.81382 0.57289 1.2789 0.87514 0.2614 0.12772 0.52188 0.25716 0.7842 0.38317 0.69762 0.33514 0.88883 0.4325 1.6158 0.70801 0.7948 0.3012 1.6069 0.53569 2.4288 0.75808 1.6259 0.36207 3.2943 0.58642 4.9657 0.61772 0.35184 0.0065 0.7038-0.0049 1.0557-0.0073 1.8328-0.14289 3.6374-0.53494 5.3804-1.0867 0.30087-0.09523 0.59769-0.20173 0.89653-0.30259 1.941-0.6939 3.6317-1.8587 5.2325-3.0884 1.2176-1.022 2.2276-2.2371 3.2192-3.4533 0.64505-0.83064 1.2815-1.6783 1.7996-2.5884 0.09893-0.17379 0.18733-0.35282 0.281-0.52923 0.51789-1.0863 0.9311-2.2116 1.2426-3.3661 0.20646-0.90762 0.32889-1.832 0.32761-2.7608-0.03182-0.771-0.17935-1.5311-0.33664-2.2862-0.1411-0.62564-0.30668-1.2461-0.47514-1.8655-0.18642-0.7035-0.4206-1.3923-0.7336-2.0538-0.2435-0.46123-0.53457-0.89654-0.78342-1.3553-0.22092-0.40736-0.40649-0.8303-0.59787-1.2505-0.14769-0.31487-0.30214-0.62676-0.46369-0.93536-0.14174-0.29843-0.32916-0.57353-0.47996-0.86733-0.07017-0.11811-0.23776-0.51104-0.36016-0.57502-0.74581-0.38985-0.0409 0.169-0.45844-0.18405-0.02753-0.0608-0.11788-0.02375-0.09034 0.03705-0.03393 0.55547 0.05547-0.45396-0.1945 0.44012-0.04136 0.14792 0.17164 0.55773 0.23374 0.69518 0.15569 0.29149 0.3408 0.56677 0.4848 0.86412 0.15397 0.29383 0.30346 0.59008 0.43836 0.89233 0.2002 0.43946 0.39814 0.87963 0.62608 1.307 0.2413 0.44407 0.51828 0.86829 0.75767 1.3131 0.29201 0.6126 0.50422 1.2528 0.6783 1.9045 0.16387 0.60218 0.32478 1.2054 0.46267 1.8135 0.14563 0.69808 0.28318 1.4003 0.31903 2.1128 0.01315 0.84869-0.12019 1.6943-0.29436 2.5249-0.29315 1.0915-0.67934 2.1572-1.1638 3.1861-0.0829 0.16003-0.16016 0.32282-0.2487 0.48008-0.4937 0.87686-1.115 1.6854-1.722 2.4922-0.94665 1.1613-1.9048 2.3261-3.0656 3.3041-1.5166 1.1673-3.1151 2.2778-4.9523 2.9432-0.73831 0.25061-1.002 0.35177-1.7598 0.56132-1.3743 0.38-2.7831 0.65886-4.2092 0.78333-0.33374 0.0041-0.6675 0.01758-1.0012 0.01211-1.6007-0.02621-3.1979-0.24816-4.7565-0.5852-0.79003-0.21111-1.5612-0.4411-2.3275-0.72181-0.42668-0.1563-1.1423-0.4273-1.551-0.62535-0.24058-0.11657-0.46807-0.25612-0.70211-0.38418-0.20425-0.11862-0.41498-0.22767-0.61275-0.35584-1.1297-0.73216-2.0254-1.7348-2.8836-2.7329-0.39607-0.49751-0.56676-0.68569-0.90799-1.218-0.55414-0.86441-0.96355-1.802-1.2522-2.7754-0.15263-0.60745-0.21136-0.7819-0.3067-1.4108-0.15519-1.0236-0.14079-2.0579-0.073578-3.0877 0.15323-1.8598 0.40614-3.7137 0.94009-5.5139 0.1078-0.34388 0.20613-0.69057 0.32339-1.0316 0.53002-1.5416 1.2398-3.0242 2.1118-4.4177 0.42485-0.62077 0.49182-0.74318 0.96084-1.3314 0.68349-0.85722 1.4492-1.6509 2.228-2.4295 0.51426-0.48504 0.73094-0.70788 1.2875-1.1569 0.95888-0.77356 1.9906-1.4678 3.0282-2.1407 0.26179-0.14284 0.51915-0.29331 0.78538-0.42853 1.3782-0.69998 2.8516-1.255 4.3934-1.5155 0.30971-0.028637 0.61827-0.072569 0.92911-0.085902 1.5539-0.066635 3.1005 0.20262 4.5889 0.60331 0.26235 0.086056 0.5272 0.16551 0.78705 0.25817 1.2339 0.43999 2.4092 1.0286 3.4701 1.7735 0.52016 0.39658 1.0464 0.79367 1.5167 1.2449 0.27677 0.26559 0.52927 0.56387 0.77946 0.85174 0.11864 0.13652 0.23651 0.27366 0.35476 0.41048 0.41085 0.45774 0.84403 0.90064 1.1746 1.4169 0.25763 0.48116 0.97282 0.13451 0.71519-0.34665z" opacity=".98"/>
  <path d="m7.0423 19.555c0.80438-0.68308 1.5068-1.469 2.203-2.2501 1.0962-1.1046 2.1264-2.2651 3.1898-3.3975 0.97528-1.0085 1.9481-2.0196 2.9526-3.002 0.90389-0.84754 1.8087-1.6941 2.6951-2.5582 0.50167-0.48676 0.9922-0.98388 1.5024-1.4627 0.31748-0.2849 0.69903-0.39539-0.31458-0.63473-0.07898-0.018661-0.09394 0.12645-0.14092 0.18967-0.63186 0.91184-1.3822 1.7399-2.0657 2.6158-0.83459 1.1682-1.6938 2.32-2.5371 3.4825-0.84767 1.1522-1.576 2.3764-2.3502 3.5726-0.86228 1.2205-1.6452 2.485-2.3659 3.7852-0.58243 1.0849-1.157 2.1735-1.7778 3.2392-0.57478 0.96205-1.0987 1.95-1.5901 2.9527-0.051246 0.1079-0.10296 0.2156-0.15374 0.32371-0.16577 0.35294-0.060179 0.13563-0.19567 0.41839-0.010058 0.021-0.052536 0.05247-0.030811 0.06276 0.67294 0.31817 0.55266 0.40726 0.73991 0.07276 0.89662-1.2892 1.9305-2.4859 2.9633-3.6771 1.3841-1.6349 2.8518-3.2026 4.2756-4.8056 1.2286-1.3698 2.4125-2.7747 3.6129-4.1668 0.67151-0.77457 1.2925-1.5878 1.9732-2.3553 0.33417-0.37674 0.60675-0.65685 0.9531-1.0206 0.81822-0.81781 1.5393-1.7148 2.3005-2.5789 0.01917-0.00966 0.07802-0.022264 0.0575-0.028936-0.80874-0.26288-0.62775-0.21896-1.0123 0.4134-0.2084 0.3427-0.65361 1.0291-0.85764 1.3462-1.0719 1.7624-2.1484 3.5217-3.2692 5.2565-0.90852 1.3958-1.7796 2.8134-2.7241 4.1878-0.958 1.334-1.8205 2.7239-2.6214 4.1475-0.83844 1.4537-1.6867 2.9015-2.4618 4.387-0.49569 0.97616-1.011 1.9446-1.5502 2.8997 0.18702-0.01667-0.27098 0.28873-0.1528 0.33664 0.19698 0.07986 0.42374 0.15602 0.63206 0.10895 0.12147-0.02745 0.13524-0.19973 0.20517-0.29813 0.19351-0.27228 0.61894-0.84928 0.79683-1.0916 1.38-1.8559 2.8627-3.6396 4.3913-5.386 1.5197-1.6748 3.0763-3.3186 4.5836-5.0036 1.5423-1.7209 3.0425-3.475 4.5784-5.201 0.63893-0.84082 1.2967-1.6683 1.9575-2.4936 0.22292-0.26253-0.1673-0.56248-0.39022-0.29994-0.70625 0.78462-1.4289 1.5546-2.1918 2.2905-1.5364 1.7265-3.0395 3.4788-4.5608 5.2171-1.493 1.7001-3.0384 3.3562-4.5636 5.03-1.524 1.7747-3.0285 3.569-4.3788 5.4686-0.41242 0.57271-0.44384 0.59255-0.78599 1.1474-0.053528 0.08681-0.19588 0.17452-0.15091 0.26561 0.081949 0.16595 0.30475 0.22472 0.45163 0.34343 0.00536 0.0043-0.013502 0.0035-0.020253 0.0052 0.030602-0.06422 0.061196-0.12845 0.091797-0.19267 0.52247-0.96568 1.0917-1.909 1.6093-2.8774 0.81056-1.4609 1.6537-2.9041 2.5254-4.333 0.82826-1.3873 1.6707-2.7693 2.6394-4.0737 0.95784-1.3751 1.8318-2.8 2.7641-4.1907 1.121-1.7353 2.1982-3.4949 3.2743-5.2556 0.18278-0.28472 0.68657-1.0643 0.87532-1.377 0.10842-0.1796 0.22835-0.3545 0.31322-0.54523 0.07664-0.17224 0.26219-0.37318 0.16866-0.5377-0.35166-0.61854-0.5842-0.34578-0.83295-0.15145-0.75462 0.85718-1.4778 1.74-2.2825 2.5565-0.36076 0.38118-0.62786 0.65699-0.97661 1.0524-0.67785 0.76855-1.3018 1.5787-1.9739 2.3517-1.1965 1.3907-2.3661 2.8021-3.5841 4.1759-1.4227 1.6082-2.8594 3.2054-4.2516 4.8376-1.0576 1.2353-2.1323 2.4672-3.0291 3.8157-0.18642 0.37142-0.20614 0.24133 0.51711 0.50652 0.025314 0.0092 0.023143-0.0467 0.034401-0.07018 0.066557-0.13888 0.1329-0.27784 0.1992-0.41683 0.050075-0.10497 0.099739-0.21012 0.14961-0.31518 0.48878-0.9861 1.0136-1.9556 1.5911-2.8977 0.63279-1.066 1.199-2.1652 1.8037-3.2456 0.71274-1.2864 1.4883-2.5368 2.3413-3.7442 0.76728-1.1859 1.4893-2.3993 2.329-3.5417 0.83833-1.1558 1.6937-2.3004 2.5222-3.4628 0.68637-0.88066 1.4422-1.7118 2.0758-2.6292 0.27192-0.36647 0.20657-0.15851-0.32587-0.7673-0.0093-0.010625-0.02186 0.018252-0.03281 0.027344-0.03175 0.026311-0.16411 0.13544-0.17959 0.14893-0.04635 0.040381-0.09116 0.082336-0.13674 0.1235-0.51336 0.48203-1.0075 0.98201-1.5122 1.4721-0.88672 0.86445-1.7959 1.7074-2.696 2.5591-1.0121 0.99018-1.9946 2.0081-2.9658 3.0346-1.0586 1.1448-2.1015 2.3027-3.144 3.4606-0.39029 0.45167-0.7687 0.91406-1.1748 1.3531-0.37163 0.40181-0.35778 0.35589-0.70399 0.74354-0.069919 0.07829-0.13458 0.16071-0.20188 0.24107-0.23066 0.25468 0.14789 0.56504 0.37855 0.31036z" opacity=".98"/>
  <path d="m11.142 32.469c0.06664-0.07768 0.13601-0.15332 0.1999-0.23307 0.10875-0.13574 0.68055-0.89092 0.7399-0.96676 0.54402-0.6952 1.1169-1.3692 1.6842-2.0472 0.98878-1.1644 1.9365-2.3603 2.9333-3.5186 0.63-0.7321 1.0251-1.1569 1.6761-1.8728 1.8763-2.0211 3.7785-4.0202 5.6757-6.0236 0.9605-1.0146 1.9198-2.0303 2.8746-3.0498 0.45701-0.48802 1.2577-1.3201 1.6687-1.8647 0.2062-0.2732 0.37194-0.57207 0.55791-0.8581 0.16412-0.20956 0.32825-0.41912 0.49237-0.62867 0.08725-0.09194-0.04938-0.20933-0.13663-0.1174-0.20226 0.17645-0.40452 0.3529-0.60678 0.52934-0.28167 0.20433-0.57946 0.38997-0.845 0.61298-0.53486 0.44918-1.308 1.2837-1.776 1.7744-0.96425 1.011-1.9211 2.0284-2.8805 3.0436-1.9016 2.0081-3.8141 4.0073-5.6766 6.0484-1.5898 1.7701-3.1298 3.58-4.5969 5.444-0.90956 1.1032-1.8597 2.1891-2.5973 3.4076-0.2381 0.41241 0.37491 0.73279 0.613 0.32037z" opacity=".98"/>
  <path d="m12.509 35.562c0.05867-0.07249 0.12052-0.14278 0.17605-0.21749 0.60614-0.81562-0.04544-0.0095 0.7825-1.0415 0.66848-0.83323 1.3724-1.6407 2.067-2.4542 1.3196-1.5134 2.6091-3.0513 3.9463-4.5508 0.56865-0.63764 1.5998-1.7533 2.1842-2.3883 1.9203-2.1293 3.8552-4.2476 5.8264-6.3344 1.5293-1.6581 3.0058-3.3598 4.4568-5.0802 0.43844-0.70369 0.98506-1.3342 1.5229-1.9688 0.23089-0.27241-0.17401-0.58309-0.4049-0.31068-0.53606 0.63246-1.0706 1.2686-1.728 1.7946-1.5157 1.6584-2.9439 3.3894-4.53 4.9892-1.9409 2.1145-3.9011 4.2131-5.8171 6.3482-2.1036 2.2804-4.1692 4.593-6.1166 6.9968-0.6936 0.83098-1.3833 1.6648-2.04 2.5228-0.20288 0.26507-0.62633 0.81879-0.80393 1.1478-0.05458 0.10111-0.08202 0.21349-0.12302 0.32024-0.16847 0.40455 0.43284 0.63124 0.60132 0.22669z" opacity=".98"/>
  <path d="m15.892 35.833c0.08398-0.1032 0.17157-0.20382 0.25194-0.30959 0.64394-0.84744 0.1216-0.21654 0.8584-1.1654 0.7523-0.96884 1.5598-1.8978 2.3595-2.8311 2.2389-2.6465 4.5009-5.274 6.8502-7.8326 1.1837-1.2678 2.3517-2.5488 3.5262-3.8242 0.88645-0.96263 1.1151-1.1862 1.9541-2.1525 0.27086-0.31199 0.53303-0.63071 0.79955-0.94606 0.23162-0.24591 0.46325-0.49182 0.69487-0.73772 0.29282-0.31088-0.16926-0.70489-0.46208-0.39401-0.23141 0.24568-0.46283 0.49137-0.69424 0.73705-0.73935 0.70079-1.1746 1.1016-1.8992 1.8399-1.5735 1.6034-3.0577 3.2841-4.6042 4.9107-2.346 2.5777-4.6414 5.1955-6.8384 7.8901-0.55669 0.68262-1.1216 1.3592-1.6733 2.0455-0.53621 0.66699-1.0819 1.3527-1.5205 2.0845-0.08308 0.13864-0.14749 0.28668-0.22123 0.43002-0.18984 0.41598 0.42846 0.67142 0.6183 0.25544z" opacity=".98"/>
  <path d="m20.731 33.058c0.08751-0.09579 0.17914-0.18832 0.26256-0.28737 0.29452-0.34968 0.4597-0.59945 0.75394-0.96128 0.61039-0.75061 1.2677-1.4689 1.9029-2.2004 0.21016-0.23313 1.4878-1.6382 1.6646-1.8836 0.25868-0.35897 0.42427-0.7731 0.678-1.1353 0.0962-0.13731 1.2946-1.56 1.4597-1.7566 0.08338-0.09935-0.06428-0.21154-0.14766-0.1122-0.29624 0.35293-1.1917 1.4387-1.4979 1.7177-0.32849 0.29933-0.73398 0.51441-1.0675 0.80864-0.44212 0.39-1.341 1.4226-1.7322 1.8606-0.98354 1.1545-1.9981 2.3012-2.7952 3.5838-0.27197 0.34903 0.24683 0.71498 0.5188 0.36595z" opacity=".98"/>
  <path d="m20.645 15.102c0.7767-0.86215 1.5293-1.7443 2.3038-2.6088 1.1666-1.2526 2.2906-2.54 3.4451-3.8025 0.31771-0.35851 0.58452-0.75503 0.89634-1.1178 0.1359-0.15812 0.56591-0.59824 0.73161-0.76928 0.23575-0.24334-0.12596-0.56055-0.3617-0.3172-0.18275 0.18865-0.56735 0.59062-0.74653 0.75188-0.36404 0.32763-0.77362 0.60772-1.1188 0.95537-1.1599 1.2624-2.271 2.564-3.4264 3.8302-0.78304 0.87848-1.562 1.7653-2.2042 2.7445-0.24808 0.32345 0.23269 0.65725 0.48077 0.3338z" opacity=".98"/>
  <path d="m26.393 11.321c0.05104-0.05131 0.10119-0.10341 0.1531-0.15392 0.36004-0.35033 0.26046-0.2198 0.64554-0.70263 0.1462-0.18331 0.27601-0.37821 0.42424-0.56003 0.15331-0.18805 0.6933-0.78372 0.87175-0.98191 0.21196-0.2354-0.13794-0.52061-0.3499-0.2852-0.20012 0.22225-0.68646 0.76795-0.88659 0.96565-0.45925 0.45366-0.99468 0.85007-1.3509 1.3907-0.2433 0.33152 0.24946 0.6589 0.49277 0.32738z" opacity=".98"/>
  <path d="m19.311 37.333c1.1493-1.1712 2.2791-2.3596 3.3976-3.5576 1.943-2.084 3.8275-4.2161 5.7319-6.3319 0.31344-0.35936 0.62716-0.7185 0.94032-1.0781 0.70776-0.81266 1.0317-1.1977 1.7517-1.9859 0.71691-0.78467 1.4595-1.5472 2.2025-2.3094 0.35149-0.35321 0.5532-0.57616 0.92306-0.88376 0.08488-0.07057 0.1718-0.14014 0.2674-0.19697 0.01592-0.0096 0.07314 0.01212 0.05608 0.0048-0.60861-0.26519-0.44833-0.37755-0.67285-0.07451-1.169 1.9233-2.4738 3.7671-3.6878 5.6646-1.1021 1.7812-2.1399 3.5972-3.2416 5.3786-0.36182 0.58121-0.72232 1.1632-1.0809 1.7462-0.12709 0.20663-0.27539 0.41519-0.38265 0.63321 0.26668 0.09939 0.5138 0.30727 0.80004 0.29813 0.16292-0.0052 0.22986-0.22012 0.3399-0.33454 0.22366-0.23255 0.7015-0.76986 0.90097-0.99125 0.54842-0.60866 0.57285-0.63385 1.1565-1.2754 0.30446-0.33839 1.3445-1.4832 1.605-1.8198 0.28216-0.3645 0.50917-0.7656 0.78879-1.1319 0.26786-0.35087 0.56804-0.67834 0.85207-1.0175 0.21526-0.25242-0.15992-0.54205-0.37518-0.28964-0.28916 0.33296-0.55924 0.6818-0.8675 0.99886-0.32131 0.33049-0.6925 0.61449-1.0184 0.94091-0.21169 0.21204-1.3986 1.5436-1.6235 1.7947-0.67641 0.74807-1.3367 1.5109-2.0229 2.2508-0.09226 0.09951-0.31298 0.16526-0.28146 0.2945 0.05783 0.23712 0.32688 0.37454 0.49031 0.56181-0.07465 0.05091-0.01301 0.01106 0.10723-0.18488 0.28687-0.46747 0.57573-0.9338 0.86844-1.398 0.14435-0.22891 0.29003-0.45706 0.43505-0.6856 1.1139-1.7709 2.179-3.5681 3.2759-5.3484 0.69282-1.0812 0.63312-0.99873 1.3557-2.0823 0.81203-1.2176 1.6567-2.4178 2.385-3.6838 0.05918-0.16254 0.24024-0.32627 0.17755-0.48761-0.32337-0.83226-0.78606-0.48692-1.1883-0.14827-0.14738 0.12408-0.28806 0.25532-0.42716 0.38778-0.18266 0.17393-0.35861 0.35412-0.53792 0.53117-0.74821 0.77234-1.4988 1.5428-2.2231 2.3357-0.75446 0.82591-1.0159 1.1425-1.7583 1.9932-0.31116 0.35655-0.62358 0.7121-0.93536 1.0682-1.8959 2.1179-3.7599 4.2615-5.6859 6.355-1.1117 1.2156-2.2592 2.4029-3.3383 3.6447-0.30782 0.36324 0.23211 0.77742 0.53992 0.41418z" opacity=".98"/>
  <path d="m6.8501 30.357c0.4097-0.59412 0.84189-1.1728 1.2371-1.7761 0.15874-0.24234 0.30064-0.49484 0.46871-0.73141 0.15946-0.22446 0.34183-0.43339 0.51275-0.65009 0.23813-0.30192-0.21064-0.62234-0.44877-0.32042-0.17188 0.21792-0.3347 0.44257-0.51562 0.65376-0.19245 0.22464-0.40869 0.43006-0.60364 0.65274-0.51127 0.58401-1.0008 1.2146-1.2936 1.9268-0.18188 0.43262 0.46116 0.67735 0.64304 0.24473z" opacity=".98"/>
  <path d="m28.716 23.834c0.82614-0.80182 1.6097-1.6411 2.3892-2.4837 0.78034-0.82588 1.4968-1.7027 2.2556-2.5466 0.29507-0.32817-0.19272-0.7252-0.48779-0.39703-0.43518 0.48402-0.62585 0.70588-1.096 1.1848-0.21254 0.21649-0.43745 0.42183-0.64893 0.63926-0.20369 0.20943-0.3975 0.42735-0.59625 0.64102-0.15845 0.17248-0.83441 0.91003-1.0185 1.1041-0.39704 0.41868-0.84858 0.81312-1.185 1.2808-0.06102 0.08483-0.10344 0.18049-0.15516 0.27074-0.22787 0.36515 0.31488 0.67176 0.54275 0.30661z" opacity=".98"/>
 </g>
</svg>
