
<svg width="30.459mm" height="27.403mm" version="1.1" viewBox="0 0 30.459 27.403" xmlns="http://www.w3.org/2000/svg" xmlnsCc="http://creativecommons.org/ns#" xmlnsDc="http://purl.org/dc/elements/1.1/" xmlnsRdf="http://www.w3.org/1999/02/22-rdf-syntax-ns#">

 <g transform="translate(-78.886 -126.91)" fill="#020202" stroke-width="0">
  <path d="m92.11 130.41c-0.27878 0.25794-0.55838 0.51429-0.82509 0.78235-0.60981 0.60393-1.2772 1.158-1.9356 1.7187-0.90306 0.73368-1.7865 1.4863-2.6455 2.2611-0.90382 0.81284-1.7719 1.6567-2.638 2.5015-0.65234 0.67238-1.3276 1.3264-1.967 2.0086-0.52228 0.5485-1.0339 1.1047-1.5418 1.6638-0.31448 0.34989-0.65395 0.68135-0.96437 1.0341-0.1599 0.18166-0.28098 0.38654-0.3315 0.6146-0.01224 0.0553-0.01867 0.11141-0.02801 0.16711-0.04209 0.4858-0.03686 0.97367-0.03709 1.4606 0.0017 0.44803 0.0026 0.89604-0.0025 1.344-0.01381 0.4665-0.03251 0.93299-0.0557 1.3992-0.03084 0.50168-0.05548 1.0036-0.07902 1.5056-0.02236 0.49087-0.04578 0.9817-0.06543 1.4727-0.01754 0.43278-0.04822 0.86502-0.08269 1.297-0.0043 0.21566-0.07556 0.49483 0.0489 0.69528 0.02584 0.0416 0.06407 0.076 0.09611 0.11406 0.05087 0.0321 0.09917 0.0678 0.1526 0.0964 0.07446 0.0399 0.2737 0.11874 0.3508 0.14746 0.19292 0.0719 0.39014 0.13233 0.58829 0.19133 0.37203 0.10243 0.74658 0.19778 1.1217 0.29069 0.40028 0.087 0.79944 0.17891 1.2019 0.25754 0.56136 0.0943 1.1245 0.18006 1.688 0.26388 0.5657 0.0846 1.1355 0.14338 1.705 0.20271 0.44913 0.0472 0.89804 0.0956 1.3459 0.15182 0.38505 0.0479 0.76888 0.10313 1.1525 0.15936 0.17307 0.0226 0.34565 0.0469 0.51788 0.074 0.11436 0.012 0.23825 0.039 0.35223 8e-3 0.02491-7e-3 0.04806-0.018 0.0721-0.027 0.02708-0.0212 0.05708-0.0398 0.08122-0.0637 0.10503-0.10398 0.15249-0.28334 0.19314-0.41363 0.06682-0.26555 0.13918-0.52909 0.23007-0.78891 0.13051-0.40738 0.36681-0.77503 0.6069-1.137 0.206-0.29422 0.37806-0.6053 0.56039-0.91121 0.13511-0.22887 0.31915-0.42878 0.49737-0.63109 0.29147-0.31413 0.5465-0.65211 0.80528-0.98773 0.5672-0.70294 1.1767-1.3772 1.7791-2.0561 0.8203-0.96579 1.6423-1.9303 2.4672-2.893 0.63375-0.76429 1.2943-1.5102 1.9413-2.2655 0.50226-0.55434 1.0047-1.1087 1.5129-1.6588 0.48756-0.49641 0.95054-1.0109 1.4091-1.5287 0.50484-0.55435 0.98845-1.1237 1.4876-1.682 0.42468-0.43575 0.79962-0.908 1.2163-1.3494 0.0798-0.0845 0.16296-0.16643 0.24444-0.24964 0.44721-0.41785 0.84967-0.87025 1.2683-1.3103 0.24684-0.25023 0.5073-0.48968 0.74438-0.74756 0.11853-0.12892 0.21426-0.24306 0.32731-0.37514 0.30622-0.3631 0.62252-0.71931 0.93735-1.0765 0.28211-0.31188 0.53831-0.64109 0.79181-0.97167 0.17675-0.22924 0.35712-0.45657 0.55448-0.6721 0.14154-0.13893 0.2673-0.2773 0.35143-0.45044 0.10858-0.28547-0.0568-0.42093-0.28473-0.59751-0.22473-0.17384-0.49363-0.27711-0.76543-0.37626-0.33697-0.12291-0.16646-0.066-0.51387-0.17124-0.63765-0.1819-1.289-0.32084-1.9319-0.48675-0.61341-0.16467-1.2215-0.34708-1.8424-0.48879-0.3699-0.0844-0.56912-0.11749-0.93898-0.18594-0.74206-0.13208-1.4936-0.20915-2.245-0.28254-0.58412-0.0563-1.1693-0.10268-1.7541-0.15381-0.45857-0.0355-0.91059-0.10997-1.3593-0.19906-0.26364-0.0293-0.51725-0.10188-0.77751-0.14647-0.11556-0.0198-0.20246-0.0307-0.3174-0.0464-0.34518-0.0305-0.50791 0.0418-0.75556 0.24553-0.19897 0.18141-0.42034 0.34072-0.62461 0.51714-0.25916 0.23999-0.48528 0.50581-0.7525 0.73897-0.23715 0.18707-0.5063 0.33635-0.75128 0.51476-0.20536 0.16578-0.36615 0.36806-0.54632 0.55449-0.15714 0.15549-0.33731 0.28978-0.5216 0.41848-0.13589 0.0885-0.27473 0.17347-0.39864 0.27532-0.05629 0.0637-0.14386 0.12825-0.17211 0.20845-0.14114 0.40066 0.12984-0.14987-0.08513 0.25912-0.07283 0.10903 0.09973 0.20106 0.17255 0.092 0.25424-0.31007-0.04886 0.035 0.20548-0.19193 0.04431-0.0396 0.05988-0.10842 0.11408-0.14249 0.1146-0.0973 0.25074-0.17141 0.37542-0.25764 0.20233-0.14031 0.39937-0.28752 0.57125-0.45795 0.1693-0.17221 0.31813-0.36108 0.50802-0.5161 0.2499-0.18632 0.53143-0.33541 0.77167-0.53254 0.26742-0.23082 0.49464-0.49383 0.75787-0.72833 0.20812-0.1723 0.43827-0.32182 0.63413-0.50602 0.15744-0.1358 0.20871-0.17012 0.4386-0.14639 0.15962 0.0216 0.31726 0.0494 0.47602 0.0754 0.13326 0.0218 0.2627 0.0385 0.39467 0.0668 0.06645 0.0143 0.13168 0.0327 0.19752 0.0491 0.46378 0.092 0.93043 0.17011 1.4045 0.20634 0.5833 0.0557 1.1682 0.0972 1.7511 0.15575 0.73914 0.0722 1.4782 0.14788 2.2083 0.277 0.4039 0.0736 0.50774 0.088 0.9135 0.18086 0.61925 0.14168 1.2258 0.32294 1.8376 0.48757 0.63822 0.16459 1.2842 0.30417 1.9185 0.48114 0.0906 0.0258 0.39862 0.11209 0.48894 0.14399 0.23731 0.0838 0.45849 0.20118 0.67291 0.32342 0.2125 0.15459-1.7e-4 -4e-3 0.15387 0.121 0.0104 8e-3 0.0303 0.0106 0.0336 0.0228 5e-3 0.0203-5e-3 0.0493-9e-3 0.0676-0.0641 0.14315-0.18633 0.25155-0.29715 0.3671-0.20376 0.22302-0.39005 0.45807-0.57074 0.69635-0.24959 0.32405-0.50234 0.64647-0.77854 0.95308-0.31594 0.35842-0.6305 0.71787-0.94068 1.0803-0.1061 0.12402-0.20411 0.24075-0.31506 0.36158-0.23693 0.258-0.4988 0.49627-0.74313 0.74851-0.41759 0.43907-0.82184 0.88834-1.2666 1.3063-0.508 0.52397-0.972 1.0796-1.4706 1.6107-0.49815 0.55957-0.98558 1.1268-1.4891 1.6825-0.4567 0.51576-0.91927 1.0273-1.4036 1.5226-0.51382 0.55122-1.0178 1.11-1.5216 1.6685-0.6508 0.75313-1.3057 1.5034-1.945 2.2644-0.82078 0.96415-1.6456 1.9255-2.4654 2.8904-0.59198 0.69404-1.2098 1.3704-1.7778 2.0806-0.25457 0.33016-0.5055 0.66255-0.79145 0.97215-0.19053 0.21851-0.38851 0.43326-0.53217 0.68049-0.17619 0.30304-0.3448 0.60985-0.54696 0.9002-0.25197 0.3846-0.49896 0.77532-0.63682 1.2068-0.08795 0.26387-0.16292 0.53036-0.22953 0.79918-0.02252 0.0766-0.04431 0.152-0.0801 0.22466-0.0049 0.01-0.03428 0.0611-0.0336 0.0622 0.0035 6e-3 0.01387-3e-3 0.02079-4e-3 0.0031 3.8e-4 0.0097-2e-3 0.0094 1e-3 -5.07e-4 4e-3 -0.02247 6e-3 -0.04163 6e-3 -0.04138 5.6e-4 -0.0672-2e-3 -0.11012-6e-3 -0.02242-2e-3 -0.04478-5e-3 -0.06717-7e-3 -0.17369-0.0272-0.34706-0.0554-0.52202-0.0762-0.38623-0.0556-0.77281-0.10934-1.1598-0.16035-0.45051-0.0565-0.90207-0.1056-1.3539-0.15274-0.56419-0.0588-1.1288-0.1154-1.6893-0.1989-0.55798-0.0809-1.115-0.1672-1.6707-0.25982-0.39637-0.0772-0.78902-0.16931-1.184-0.25206-0.36962-0.0915-0.7384-0.18599-1.1052-0.28619-0.32125-0.0954-0.64319-0.19671-0.93998-0.34415-0.01292-9e-3 -0.02899-0.0157-0.03874-0.0275-0.09601-0.11732-0.0234-0.42827-0.02487-0.56324 0.03473-0.43531 0.06494-0.87088 0.08208-1.3071 0.02226-0.49049 0.04063-0.98113 0.06497-1.4716 0.02353-0.50173 0.04928-1.0034 0.07898-1.5048 0.02334-0.46969 0.04224-0.93965 0.05602-1.4096 0.0051-0.44899 0.0043-0.89798 0.0025-1.347 1.68e-4 -0.47238-5e-3 -0.94578 0.03523-1.4171 0.01566-0.10129 0.01891-0.15159 0.04884-0.24658 0.04586-0.14554 0.13604-0.27352 0.23871-0.3922 0.30889-0.35171 0.64845-0.681 0.96089-1.0302 0.50758-0.55756 1.0171-1.1135 1.5395-1.6601 0.63466-0.6799 1.3064-1.3308 1.9555-1.9996 0.86234-0.84233 1.7278-1.6828 2.6283-2.4929 0.85879-0.77087 1.736-1.525 2.6321-2.2612 0.66736-0.56583 1.3453-1.1249 1.9502-1.7457 0.0589-0.0631 0.11652-0.1271 0.17671-0.18918 0.20415-0.21058 0.43322-0.40271 0.61559-0.62956 0.11736-0.1308-0.08967-0.27911-0.20702-0.1483z" opacity=".98"/>
  <path d="m79.579 143.24c0.29652 0.16276 0.62874 0.26119 0.95066 0.37497 0.30138 0.1108 0.58891 0.24861 0.89188 0.35616 0.20548 0.0729 0.28492 0.094 0.49404 0.15673 0.53336 0.16064 1.0933 0.21499 1.6499 0.26739 0.56697 0.0445 1.1328 0.0995 1.7007 0.13457 0.48434 0.0237 0.96912 0.0357 1.4533 0.0616 0.44196 0.0344 0.88196 0.0852 1.3241 0.11856 0.34012 0.0226 0.68117 0.0338 1.0222 0.0365 0.19961 2e-3 0.3992 2e-3 0.59882 5.7e-4 0.01358 5.6e-4 0.02717 1e-3 0.04075 1e-3 0.0029 1e-3 0.01189 4e-3 0.0087 4e-3 -0.01055-1e-3 -0.02219-6.1e-4 -0.03115-6e-3 -0.05999-0.0338-0.06041-0.0811-0.06702-0.0242-0.02208 0.23568-0.01611 0.47266-0.01605 0.70893 0.0026 0.39064-0.02427 0.77982-0.06573 1.1684-0.04784 0.39207-0.07403 0.78571-0.09777 1.1794-0.02272 0.37814-0.03432 0.75673-0.05087 1.1351-0.01989 0.39832-0.03806 0.79669-0.06264 1.1948-0.02498 0.37048-0.04653 0.74112-0.07072 1.1116-0.01514 0.22249-0.0372 0.44453-0.05273 0.66699-0.01422 0.18277-0.02179 0.36579-0.02772 0.54888-0.0083 0.20674-0.01381 0.41356-0.01704 0.6204-0.0019 0.16915 0.0053 0.33829 0.01674 0.5071 0.0032 0.047 0.0037 0.0943 0.01086 0.14094 8e-3 0.0522 0.02299 0.10327 0.03449 0.1549 0.01683 0.0508 0.03363 0.10161 0.05045 0.15241 0.0079 0.1177 0.19414 0.10775 0.18627-0.01 0.01-0.0517 0.01992-0.10344 0.02988-0.15515 0.0053-0.0518 0.01385-0.10344 0.01599-0.15544 0.0086-0.20989-0.02784-0.42064-0.0166-0.63074 0.0032-0.20538 0.0095-0.41072 0.01693-0.616 0.0058-0.17984 0.01445-0.35956 0.02723-0.53913 0.01552-0.22285 0.03827-0.44523 0.05281-0.66815 0.0242-0.37082 0.04626-0.74175 0.07078-1.1126 0.02467-0.39967 0.04555-0.79951 0.06452-1.1994 0.0165-0.37693 0.02809-0.75405 0.05228-1.1307 0.02349-0.38965 0.04934-0.77923 0.09676-1.1673 0.04239-0.39788 0.0688-0.79667 0.06558-1.1966 0-0.23205-0.0081-0.46462 0.01246-0.69621 0.0042-0.18835-0.05838-0.27988-0.27938-0.27817-0.1977 1e-3 -0.39538 2e-3 -0.59309 2e-3 -0.33346-4e-3 -0.6669-0.0136-0.99962-0.0348-0.44469-0.0319-0.88706-0.0838-1.3316-0.1172-0.48315-0.0251-0.96694-0.0354-1.4502-0.0581-0.56447-0.0356-1.1271-0.0887-1.6909-0.13198-0.5345-0.047-1.0724-0.0964-1.585-0.24861-0.19183-0.0565-0.28453-0.0811-0.4724-0.14749-0.30578-0.10813-0.60027-0.2397-0.90489-0.35018-0.31633-0.10602-0.64054-0.19523-0.94441-0.32846-0.15641-0.0704-0.26791 0.12721-0.1115 0.19765z" opacity=".98"/>
  <path d="m90.057 144.63c0.1988-0.21663 0.38888-0.43956 0.57702-0.66361 0.23739-0.29165 0.49559-0.56892 0.75737-0.84315 0.23924-0.24735 0.4826-0.49147 0.71909-0.74094 0.26022-0.29373 0.53686-0.57473 0.81547-0.85448 0.2522-0.24786 0.48081-0.51358 0.72322-0.76888 0.15004-0.15801 0.30276-0.31397 0.45379-0.47123 0.49604-0.53882 1.0209-1.0555 1.5175-1.5938 0.43624-0.49975 0.9166-0.96623 1.364-1.4577 0.38127-0.43967 0.7975-0.85348 1.195-1.2812 0.30446-0.33316 0.59707-0.67471 0.89915-1.0096 0.30147-0.33679 0.6294-0.6535 0.94021-0.98328 0.30596-0.36179 0.63813-0.70297 0.98347-1.0348 0.33952-0.3449 0.6464-0.71328 0.99705-1.0495 0.19779-0.1828 0.40401-0.3587 0.58504-0.55533 0.0996-0.10821 0.15574-0.17985 0.24797-0.29229 0.21077-0.29257 0.4666-0.53254 0.73953-0.77743 0.2782-0.23526 0.48367-0.52525 0.70604-0.80105 0.16675-0.20639 0.37604-0.37952 0.5862-0.54957 0.0319-0.0275 0.19049-0.16152 0.21651-0.19383 0.0949-0.16064 0.0404-0.0883 0.15998-0.21904 0.12441-0.12757-0.0775-0.28477-0.2019-0.15721-0.22709 0.21817 0.0616-0.0451-0.21329 0.15819-0.0725 0.0537-0.12154 0.12973-0.19725 0.1806-0.22703 0.18609-0.44968 0.37705-0.6316 0.6007-0.21006 0.2633-0.40417 0.54017-0.66882 0.76402-0.28178 0.25292-0.55367 0.51333-0.77257 0.81367-0.0868 0.1065-0.13698 0.17123-0.23064 0.27336-0.17778 0.19389-0.38212 0.366-0.57617 0.54648-0.16969 0.16309-0.16977 0.15891-0.33154 0.33193-0.22295 0.23848-0.42757 0.49066-0.66442 0.71869-0.34916 0.33553-0.68523 0.68029-0.99335 1.047-0.31249 0.33169-0.64328 0.6494-0.94505 0.98913-0.2991 0.33506-0.59304 0.67375-0.89436 1.0072-0.39596 0.42984-0.80495 0.85016-1.1872 1.29-0.44703 0.49132-0.92919 0.9561-1.3614 1.4584-0.4911 0.53958-1.0185 1.0516-1.5021 1.5968-0.15197 0.15824-0.30553 0.31527-0.4566 0.4742-0.24043 0.25295-0.46686 0.51641-0.71674 0.76217-0.28062 0.28177-0.55671 0.56688-0.81992 0.86188-0.23317 0.25148-0.47691 0.49488-0.71456 0.74296-0.26268 0.2807-0.5205 0.56543-0.75722 0.86422-0.18764 0.22818-0.38455 0.45035-0.56917 0.68029-0.10765 0.14047 0.11467 0.2765 0.22232 0.13603z" opacity=".98"/>
  <path d="m82.764 141.88c0.44896 0.021 0.88806 0.10442 1.3244 0.19582 0.59727 0.13662 1.1501 0.37888 1.6923 0.63482 0.33848 0.17349 0.6809 0.33953 1.0324 0.49111 0.09088 0.0392 0.17997 0.0822 0.27372 0.11559 0.11542 0.0411 0.2352 0.0716 0.3528 0.10746 0.12524 0.0147 0.24942 0.0425 0.37571 0.044 0.25924 3e-3 0.49906-0.0459 0.73459-0.14057 0.36024-0.14484 0.64297-0.38788 0.92852-0.62349 0.20318-0.20083 0.44518-0.42202 0.60349-0.65472 0.09371-0.13776 0.158-0.28987 0.23789-0.43441 0.0783-0.14168 0.1578-0.28282 0.2367-0.42423 0.08231-0.13845-0.13682-0.24246-0.21912-0.10401-0.08437 0.13323-0.15908 0.27172-0.25312 0.39968-0.09245 0.12581-0.20383 0.23965-0.30509 0.35993-0.37556 0.4461-0.15682 0.21189-0.55844 0.61-0.24465 0.2046-0.48974 0.42226-0.79507 0.55602-0.17094 0.0749-0.37466 0.1266-0.56622 0.12909-0.10406 1e-3 -0.20694-0.02-0.31041-0.03-0.10401-0.0261-0.21073-0.0448-0.31203-0.0783-0.09331-0.0309-0.18-0.0759-0.26975-0.11429-0.34875-0.14925-0.68867-0.31233-1.0244-0.48379-0.56856-0.26722-1.1529-0.51325-1.7805-0.64891-0.46018-0.0918-0.92842-0.17845-1.4025-0.17028-0.20849 2e-3 -0.20439 0.26605 0.0041 0.26346z" opacity=".98"/>
  <path d="m85.934 142.45c0.07037-0.10109 0.13896-0.20314 0.20875-0.30456 0.04094-0.0595 0.08766-0.11612 0.1228-0.17851 0.05044-0.0896 0.08847-0.18428 0.13328-0.2762 0.05382-0.1104 0.10841-0.22049 0.16262-0.33074 0.27339-0.42221 0.13812-0.21743 0.40522-0.61462 0.03525-0.0524-0.04771-0.097-0.08296-0.0445-0.26683 0.3968-0.1275 0.19455-0.41877 0.60632-0.08527 0.0931-0.17005 0.18659-0.2558 0.27935-0.07124 0.0771-0.14846 0.14987-0.21517 0.2301-0.04699 0.0565-0.08377 0.11922-0.12514 0.17911-0.07783 0.11265-0.159 0.22498-0.21719 0.34718-0.08476 0.17842 0.19761 0.28554 0.28238 0.10712z" opacity=".98"/>
  <path d="m82.829 141.9c0.13605-0.21013 0.31937-0.39049 0.48354-0.58259 0.19817-0.23189 0.22307-0.26968 0.41316-0.51351 0.41717-0.55772 0.85723-1.1014 1.2765-1.6578 0.13625-0.1862 0.24456-0.38708 0.37424-0.57668 0.07241-0.10586 0.23138-0.30992 0.31546-0.41917 0.1027-0.13344-0.1085-0.26322-0.2112-0.12977-0.06056 0.0787-0.27266 0.35525-0.32425 0.4177-0.0719 0.087-0.14821 0.17107-0.22231 0.2566-0.07507 0.0914-0.15014 0.18285-0.22521 0.27428-0.42049 0.55421-0.8581 1.0979-1.2745 1.6546-0.13211 0.1716-0.25728 0.33712-0.395 0.50497-0.17005 0.20724-0.36104 0.40375-0.48744 0.63672-0.10653 0.17506 0.17054 0.30967 0.27707 0.13462z" opacity=".98"/>
  <path d="m91.809 140.54c-0.26255-0.17173-0.52497-0.3434-0.80084-0.49788-0.46246-0.2493-0.97701-0.39994-1.4711-0.58823-0.10672-0.0407-0.21201-0.0843-0.31801-0.12644-0.42867-0.19252-0.85166-0.39828-1.2512-0.63632-0.087-0.0518-0.1742-0.10367-0.25689-0.16086-0.07245-0.0501-0.13861-0.10707-0.20791-0.1606-0.16602-0.16037-0.36549-0.35664-0.34001-0.5943 0.01141-0.10653 0.06009-0.18615 0.10639-0.28274 0.13384-0.1996 0.33495-0.36363 0.57645-0.45531 0.03832-0.0146 0.0791-0.0232 0.11866-0.0349 0.29135-0.0655 0.56093 0.0524 0.802 0.18849 0.23941 0.16345 0.27504 0.30126 0.31934 0.55562 0.03245 0.19327 0.02132 0.38729-0.0075 0.58001-0.02689 0.16371-0.06383 0.32579-0.10472 0.4871-0.03367 0.14451-0.0569 0.29068-0.07658 0.43715-0.01982 0.15409-0.01791 0.10851 0.33763 0.15709 0.01928 2e-3 0.02141-0.0292 0.03296-0.0432 0.03972-0.0483 0.03639-0.0404 0.09283-0.0855 0.02858-0.0157 0.05502-0.0351 0.08575-0.0471 0.16616-0.0651 0.36346-0.0832 0.54133-0.0986 0.13679-0.0118 0.41016-0.0251 0.54265-0.0322 0.09892-8e-3 0.19792-0.0144 0.29676-0.0228 0.20406-0.0173 0.36035-0.0305 0.56121-0.0657 0.26048-0.0457 0.51378-0.11678 0.76659-0.18768 0.39225-0.118 0.77997-0.25852 1.1186-0.47497 0.06586-0.0421 0.12769-0.089 0.19153-0.13349 0.28299-0.25771 0.06342-0.0357 0.27806-0.31283 0.03167-0.0409 0.06916-0.0781 0.10374-0.11707 0.09353-0.0806-0.03395-0.19877-0.12751-0.1182-0.04395 0.0286-0.08524 0.0608-0.13186 0.0858-0.41186 0.22109 0.05-0.0702-0.35429 0.19628-0.05557 0.0386-0.10947 0.0792-0.1667 0.11586-0.31066 0.19878-0.66588 0.32722-1.0256 0.43641-0.23542 0.067-0.47064 0.13282-0.71338 0.17598-0.19518 0.0347-0.33006 0.0477-0.52993 0.0631-0.09766 8e-3 -0.19555 0.0124-0.29332 0.0185-0.38771 0.0266-0.91686 0.0276-1.2652 0.18979-0.05037 0.0235-0.09381 0.0573-0.14072 0.0859-0.09173 0.0826-0.07813 0.0635-0.1427 0.14161-0.0053 6e-3 -0.02251 0.0165-0.01454 0.0201 0.36395 0.16543 0.3096 0.21235 0.32366 0.0897 0.01561-0.13462 0.03947-0.26844 0.06896-0.40117 0.04333-0.17117 0.08242-0.34318 0.11068-0.51691 0.03271-0.2249 0.04479-0.45149 0.0053-0.67671-0.06977-0.36042-0.14903-0.55596-0.49034-0.78061-0.05392-0.0292-0.10615-0.0612-0.16178-0.0878-0.24098-0.11523-0.51079-0.18637-0.78643-0.16149-0.05638 5e-3 -0.11078 0.0214-0.16616 0.0321-0.05654 0.0182-0.1147 0.0328-0.16961 0.0547-0.23679 0.0943-0.46404 0.25518-0.6177 0.44138-0.04655 0.0564-0.08251 0.11921-0.12377 0.17882-0.07542 0.17037-0.12961 0.24909-0.13216 0.43962-0.0044 0.32295 0.22458 0.58679 0.46401 0.80494 0.07877 0.0611 0.15393 0.12604 0.23632 0.18315 0.0867 0.0601 0.17884 0.11371 0.27025 0.16794 0.41518 0.24632 0.85184 0.46343 1.2978 0.66158 0.10968 0.0434 0.21855 0.0885 0.32903 0.13022 0.47573 0.17978 0.9709 0.32298 1.4182 0.5584 0.27132 0.15002 0.5244 0.3242 0.79972 0.46822 0.19314 0.12127 0.38508-0.12279 0.19194-0.24406z" opacity=".98"/>
  <path d="m91.666 137.84c-0.26009-0.21794-0.51685-0.43901-0.76669-0.66632-0.25456-0.24458-0.50994-0.49075-0.71444-0.77163-0.12905-0.17725-0.13979-0.20965-0.24113-0.39311-0.0586-0.13343-0.12733-0.27576-0.12886-0.4226-1.66e-4 -0.0147-0.0025-0.0437 0.01378-0.0422 0.03918 4e-3 -0.0067 0.0504-0.04247 0.0942 0.38085 0.17682 0.70506 0.43707 1.0301 0.68398 0.38677 0.29602 0.75962 0.60635 1.1634 0.88407 0.12827 0.0849 0.2631 0.16152 0.39948 0.23551 0.03317 0.018 0.06665 0.0356 0.10018 0.0531 0.02712 0.0141 0.05185 0.0333 0.08174 0.0419 0.02491 7e-3 0.05221 2e-3 0.07828 4e-3 0.0089 3e-3 0.01772 6e-3 0.02658 9e-3 0.13333 0.11722 0.31886-0.0513 0.18553-0.16849-0.01766-0.0202-0.03533-0.0404-0.05293-0.0606-0.01671-0.0234-0.02778-0.051-0.05012-0.0703-0.0054-4e-3 -0.17629-0.0925-0.17683-0.0928-0.12665-0.0663-0.2523-0.13446-0.37092-0.21197-0.40322-0.26943-0.77297-0.57444-1.1575-0.86438-0.22076-0.16494-0.43989-0.33296-0.67245-0.48475-0.10211-0.0667-0.26994-0.17043-0.38767-0.21803-0.05725-0.0231-0.1194-0.0351-0.17909-0.0526-0.07523 0.0141-0.15972 7e-3 -0.22567 0.0424-0.04951 0.0265-0.07469 0.081-0.09517 0.12923-0.0727 0.17113 0.07935 0.49432 0.14699 0.64917 0.03933 0.0712 0.07513 0.14406 0.118 0.21361 0.23721 0.38488 0.56587 0.71435 0.90084 1.0326 0.25738 0.23402 0.5191 0.4648 0.79565 0.68084 0.18545 0.13993 0.40692-0.0944 0.22147-0.23435z" opacity=".98"/>
  <path d="m90.914 137.19c0.13182-0.19187 0.28796-0.3678 0.44866-0.54072 0.06027-0.0649 0.1265-0.12549 0.18218-0.19354 0.06399-0.0782 0.1174-0.16287 0.1761-0.24431 0.23802-0.2807 0.12302-0.14596 0.3448-0.40439 0.12423-0.14476-0.10489-0.30175-0.22911-0.15699-0.22008 0.25646-0.1044 0.12399-0.34767 0.39695-0.27893 0.25637-0.16289 0.13779-0.40241 0.40209-0.17161 0.18936-0.34958 0.38066-0.45345 0.6088-0.10454 0.17748 0.17636 0.30959 0.2809 0.13211z" opacity=".98"/>
  <path d="m93.778 132.79c-0.30626-0.17806-0.65617-0.27937-1.0012-0.37891-0.37276-0.0932-0.66602-0.11141-0.92161 0.19932-0.13398 0.16289-0.15466 0.3074-0.21223 0.49857-0.09381 0.52771-0.06759 1.0645 5.99e-4 1.5931 0.02802 0.14492 0.04102 0.57933 0.32587 0.54507 0.07844-9e-3 0.12862-0.0824 0.19294-0.12368 0.0273-0.046 0.11036-0.18876 0.14141-0.22871 0.11796-0.15181 0.27331-0.2897 0.44102-0.39725 0.05533-0.0355 0.11563-0.0643 0.17344-0.0965 0.05976-0.0178 0.11781-0.041 0.17926-0.0533 0.38387-0.077 0.74007 0.0775 1.0724 0.22974 0.28226 0.1493 0.53795 0.34295 0.71898 0.59007 0.07622 0.10405 0.1615 0.26788 0.22292 0.37983 0.12868 0.28343 0.17715 0.52815 0.09748 0.82967-0.01287 0.0486-0.03305 0.0955-0.04952 0.1433-0.03958 0.0759-0.08201 0.17192-0.1447 0.23703-0.11765 0.1222-0.31095 0.15554-0.47758 0.18023-0.20862 0.0132-0.43751 7e-3 -0.62137-0.0947-0.11782-0.0654-0.14506-0.11026-0.2357-0.20565-0.16132-0.23495-0.25827-0.51215-0.1883-0.78863 0.0085-0.0336 0.02748-0.0645 0.0412-0.0967-0.07322-0.0653 0.09203-0.0248 0.07728-0.05-6e-3 -0.0102-0.02623 2e-3 -0.0385-1e-3 -0.0048-1e-3 0.0083-8e-3 0.01233-6e-3 0.01844 9e-3 0.03221 0.0249 0.04838 0.0373 0.12692 0.0974 0.28113-0.0629 0.15422-0.16037-0.04389-0.0336-0.16229-0.12857-0.20841-0.1409-0.22031-0.0589-0.29394 0.0688-0.39705 0.20767-0.05996 0.1531-0.08711 0.18918-0.09653 0.35816-0.01772 0.31808 0.10563 0.61334 0.30116 0.87449 0.14828 0.1444 0.17989 0.19906 0.37183 0.29488 0.25785 0.12873 0.56317 0.14342 0.85007 0.12082 0.18277-0.0312 0.24291-0.0296 0.40919-0.10344 0.28236-0.12552 0.41459-0.30713 0.5245-0.56242 0.01988-0.0626 0.04419-0.12427 0.05958-0.18792 0.08742-0.36272 0.02629-0.70562-0.13869-1.0427-0.04054-0.0709-0.07668-0.14386-0.12166-0.21254-0.24428-0.37296-0.58262-0.68187-1.0001-0.90068-0.26263-0.11839-0.52539-0.23517-0.82076-0.27415-0.28089-0.0371-0.54856 9e-3 -0.80458 0.11311-0.0702 0.0405-0.14332 0.0772-0.21059 0.12149-0.27452 0.1807-0.50467 0.41738-0.65266 0.69226 0.03712-6e-3 0.07485-0.0283 0.11139-0.0195 0.05107 0.0122 0.08966 0.0502 0.13239 0.0781 0.0024 1e-3 -0.0054 6e-3 -0.0063 4e-3 -0.04982-0.10314-0.05119-0.22068-0.07945-0.32835-0.06488-0.48927-0.09372-0.98593-0.01449-1.4755 0.03479-0.13557 0.07869-0.35475 0.20225-0.45963 0.12991-0.11029 0.32244-0.0407 0.46706-8e-3 0.31772 0.0914 0.63954 0.18381 0.92509 0.34196 0.21586 0.1187 0.40372-0.15408 0.18786-0.27277z" opacity=".98"/>
  <path d="m93.798 131.58c0.31351 0.41721 0.56712 0.8668 0.83349 1.3086 0.35212 0.60904 0.69538 1.2226 0.99149 1.8553 0.08949 0.19952 0.16918 0.40246 0.23397 0.60949 0.03126 0.0999 0.06197 0.19984 0.07335 0.30311 0.0018 6e-3 -0.0012 0.0174 0.0048 0.0163 0.49113-0.0828 0.35969-2e-3 0.39251-0.30162 0.01443-0.13168 0.01754-0.11881 0.06147-0.23966 0.0191-0.0303 0.03425-0.063 0.05724-0.0911 0.0603-0.0736 0.11593-0.0953 0.19467-0.15641 0.04191-0.0325 0.28043-0.23367 0.30958-0.26253 0.05688-0.0564 0.10597-0.1186 0.15896-0.17791 0.19585-0.26045 0.11068-0.12137 0.25294-0.41852 0.10462-0.16236-0.15234-0.29456-0.25696-0.13221-0.19422 0.22508-0.09966 0.11353-0.2839 0.33455-0.10459 0.10486-0.17883 0.18382-0.29242 0.28034-0.18958 0.16109-0.39822 0.29659-0.49582 0.52406-0.05311 0.15513-0.09102 0.28988-0.10227 0.45284-0.0024 0.0356-0.03599 0.0943 0.0012 0.10689 0.11813 0.04 0.25187 0.0201 0.37818 0.0215 0.0065 0-0.0012-0.0116-0.0018-0.0174-0.03138-0.11226-0.01485-0.0494-0.04802-0.1889-0.07249-0.27027-0.17448-0.53385-0.28897-0.79196-0.29686-0.64483-0.64445-1.2701-1.013-1.8845-0.28007-0.45893-0.54236-0.93472-0.9087-1.3449-0.15409-0.1591-0.40591 0.0356-0.25182 0.19472z" opacity=".98"/>
  <path d="m95.501 133.78c0.08085-0.0987 0.17134-0.19928 0.22338-0.31377 0.0279-0.0613 0.03467-0.12926 0.06259-0.19058 0.01862-0.0408 0.16973-0.27919 0.19857-0.32517 0.06054-0.0965-0.09222-0.17302-0.15276-0.0765-0.03467 0.0553-0.1687 0.27285-0.20747 0.31767-0.04467 0.0516-0.10683 0.0897-0.15279 0.14039-0.08429 0.0931-0.13899 0.2071-0.20428 0.3107-0.10862 0.14706 0.12414 0.28432 0.23276 0.13726z" opacity=".98"/>
  <path d="m93.93 131.67c0.24127-0.059 0.47269-0.15204 0.6647-0.29762 0.05089-0.0386 0.09664-0.0823 0.14496-0.1234 0.26907-0.27829 0.51476-0.5754 0.74463-0.88039 0.14545-0.2119 0.27352-0.44403 0.27468-0.69857 1.68e-4 -0.0498-0.0089-0.0993-0.01335-0.14895-0.04784-0.20607-0.16521-0.41539-0.43218-0.43662-0.17173-0.0136-0.24244 0.0504-0.38079 0.12303-0.13621 0.12348-0.17255 0.13346-0.25113 0.29282-0.02515 0.051-0.0367 0.10656-0.05509 0.15984-0.07543 0.10207 0.0861 0.19739 0.16153 0.0953 0.12241-0.0833 0.24651-0.16563 0.35333-0.2653 0.03239-0.025 0.06789-0.0468 0.0985-0.0736 0.0071-6e-3 0.0077-0.0214 0.01754-0.0212 0.06742 2e-3 0.10336 0.11875 0.11433 0.15774 0.0042 0.0301 0.0115 0.06 0.01239 0.0903 0.0054 0.19531-0.10453 0.37306-0.2158 0.53363-0.21763 0.28471-0.43634 0.57005-0.68597 0.83341-0.09535 0.0834-0.11866 0.11107-0.2263 0.17825-0.13813 0.0862-0.29537 0.1348-0.44761 0.19597-0.22574 0.0768-0.10413 0.3621 0.12162 0.28526z" opacity=".98"/>
  <path d="m97.883 134.8c0.15005-0.24427 0.26627-0.50661 0.31193-0.78371 0.01341-0.0812 0.01671-0.16349 0.02509-0.24523 0.01778-0.55731-0.16561-1.0933-0.34982-1.6192-0.20347-0.51466-0.43341-1.021-0.69455-1.5144-0.17221-0.30949-0.37416-0.60472-0.51129-0.92871-0.05042-0.18029-0.13947-0.41209-0.01275-0.58293 0.17995-0.0641 0.32704-4e-3 0.4844 0.0755 0.22997 0.19807 0.42925 0.43642 0.54942 0.70279 0.02425 0.0538 0.04114 0.11001 0.06172 0.16501 0.0641 0.25296 0.08722 0.51927 8e-3 0.77205-0.01066 0.0339-0.02658 0.0663-0.03988 0.0995-0.05688 0.12428-0.15937 0.22015-0.25976 0.3166-0.16404 0.13428-0.12892 0.24209-0.0071 0.39522 0.21777 0.22045 0.4743 0.40734 0.73083 0.59029 0.18245 0.12082 0.37215 0.24424 0.59877 0.28731 0.04233 8e-3 0.08565 0.011 0.12847 0.0164 0.27206 0.0131 0.52769-0.0596 0.74781-0.20212 0.05251-0.034 0.0999-0.0738 0.14986-0.11076 0.2978-0.25589 0.50875-0.57279 0.68848-0.9017 0.14621-0.30117 0.25437-0.62863 0.22244-0.96063-6e-3 -0.0597-0.0208-0.11844-0.0312-0.17766-0.0794-0.24981-0.20209-0.5235-0.45872-0.67053-0.0443-0.0254-0.095-0.0405-0.14246-0.0608-0.0604-6e-3 -0.12039-0.0197-0.18109-0.018-0.28305 8e-3 -0.50295 0.19734-0.68632 0.367-0.17795 0.18314-0.30097 0.40617-0.32938 0.64971-0.0072 0.0615-0.01772 0.12562-5.03e-4 0.18548 0.01838 0.0637 0.06949 0.11603 0.10424 0.17405 0.01599 0.13346 0.22723 0.11325 0.21123-0.0202 0.02203-0.0479 0.05227-0.0934 0.06618-0.14365 0.02389-0.0862-8e-3 -0.18035 0.03359-0.26476 0.03694-0.12431 0.11093-0.23643 0.20377-0.33332 0.1193-0.11266 0.24442-0.22726 0.4175-0.26877 0.01934 6e-3 0.03982 9e-3 0.05796 0.0177 0.17221 0.0792 0.25138 0.29441 0.3069 0.44629 9e-3 0.0427 0.0215 0.0848 0.0269 0.1279 0.0346 0.27411-0.0616 0.54625-0.17621 0.79647-0.15314 0.28538-0.33458 0.56052-0.58553 0.78705-0.12614 0.0966-0.18292 0.13691-0.33414 0.19848-0.03186 0.013-0.06234 0.0293-0.09582 0.0384-0.05185 0.0141-0.1151 0.0129-0.16864 0.0141-0.21271-0.0189-0.37264-0.12326-0.53988-0.23604-0.23086-0.16445-0.46-0.33295-0.66248-0.52554-0.0087-0.01-0.01198-0.0304-0.02617-0.03-0.0115 3.8e-4 0.0018 0.0206 3.35e-4 0.0308-0.0086 0.0608-0.03467 0.077-0.02144 0.0579 0.0064-9e-3 0.01503-0.0171 0.02251-0.0257 0.14126-0.12938 0.27011-0.26879 0.34591-0.43893 0.01689-0.0463 0.03682-0.0917 0.0506-0.13877 0.09109-0.31128 0.06416-0.63868-0.0197-0.9483-0.02575-0.0677-0.047-0.13684-0.07721-0.20301-0.08983-0.19668-0.22238-0.37964-0.36761-0.54694-0.05173-0.0596-0.10263-0.12028-0.16248-0.17343-0.05646-0.0501-0.12322-0.09-0.18483-0.135-0.05796-0.0259-0.11358-0.0567-0.17395-0.0779-0.21467-0.0752-0.48336-0.0875-0.68487 0.0299-0.04886 0.0284-0.08518 0.0712-0.12777 0.10686-0.02497 0.0422-0.05742 0.0815-0.07488 0.12664-0.01611 0.0415-0.01964 0.0862-0.02455 0.12986-0.02323 0.20665 0.02287 0.41206 0.08989 0.60891 0.14321 0.33328 0.34278 0.63454 0.52405 0.95173 0.25315 0.47969 0.47862 0.97097 0.67727 1.4708 0.16858 0.48718 0.34591 0.98041 0.34193 1.4961-0.01108 0.16934-0.0074 0.23565-0.0479 0.39844-0.04593 0.18462-0.1289 0.36066-0.20349 0.53686-0.09361 0.17456 0.18267 0.29286 0.27628 0.1183z" opacity=".98"/>
  <path d="m90.532 150.43c0.03036-0.36383 0.0767-0.72638 0.11536-1.0895 0.06427-0.59156 0.12382-1.1835 0.17891-1.7758 0.05112-0.53392 0.09042-1.0686 0.12314-1.6037 0.0066-0.0998 0.03002-0.448 0.03442-0.54584 0.0039-0.0869 0.01484-0.17411 0.0075-0.26085-7e-3 -0.0822-0.04165-0.16103-0.0501-0.24307-0.01517-0.14712 0.0078-0.25611 0.02771-0.39901 0.0095-0.0679-0.09798-0.0798-0.10744-0.0119-0.01975 0.14176-0.0316 0.26117-0.07327 0.40134-0.02403 0.0808-0.06951 0.15632-0.08804 0.23831-0.01933 0.0856-0.01826 0.17384-0.02477 0.26094-0.01184 0.1583-0.02005 0.38735-0.02666 0.54658-0.02755 0.53254-0.06749 1.0644-0.11434 1.5959-0.05336 0.59208-0.11382 1.1836-0.17187 1.7754-0.03136 0.36827-0.06484 0.73713-0.06468 1.1067-0.0037 0.14793 0.23047 0.15254 0.23412 5e-3z" opacity=".98"/>
  <path d="m91.838 147.08c0.17234-0.81558 0.29667-1.6381 0.41023-2.4615 0.0194-0.13666 0.0388-0.27331 0.0582-0.40996 0.02018-0.13698 0.0409-0.27391 0.06052-0.41096 0.01964-0.13732 0.04581-0.27409 0.0573-0.41215 0.01108-0.13277-0.0018-0.26662 0.01024-0.39932 0.01012-0.11149 0.08635-0.49741 0.1109-0.62573 0.0194-0.10141-0.14108-0.12593-0.16049-0.0245-0.01629 0.085-0.10835 0.57088-0.1231 0.62658-0.03461 0.13069-0.09258 0.256-0.12475 0.38719-0.03341 0.13616-0.04988 0.27521-0.07156 0.41324-0.02952 0.18792-0.08774 0.63435-0.11286 0.82332-0.11112 0.818-0.23539 1.6347-0.39797 2.446-0.0379 0.17899 0.24538 0.22689 0.28328 0.0479z" opacity=".98"/>
  <path d="m93.24 146.94c0.14703-0.62521 0.23688-1.2606 0.33641-1.893 0.10548-0.66878 0.18749-1.3409 0.32158-2.0059 0.06322-0.31356 0.13625-0.62548 0.20107-0.93878 0.12018-0.57536 0.04515-0.30136 0.21823-0.82348 0.03814-0.11504-0.14394-0.16322-0.18206-0.0481-0.17521 0.52869-0.07607 0.25608-0.30144 0.81667-0.04796 0.15354-0.10277 0.3055-0.14394 0.46061-0.04275 0.16102-0.07469 0.3242-0.10756 0.48704-0.13472 0.66743-0.21621 1.3422-0.31753 2.014-0.08406 0.5661-0.05048 0.34398-0.13235 0.88019-0.04545 0.29779-0.10349 0.59791-0.12423 0.89835-3e-3 0.0457-0.0012 0.0916-0.0024 0.13743-0.01198 0.14783 0.22202 0.16294 0.23397 0.0151z" opacity=".98"/>
  <path d="m94.98 144.6c0.07501-0.64594 0.1973-1.2868 0.31823-1.9268 0.03131-0.16455 0.20688-1.0755 0.22464-1.2175 0.02856-0.2282 0.02072-0.45936 0.05143-0.68733 0.02784-0.2064 0.08276-0.40917 0.12413-0.61375 0.01916-0.0949-0.13094-0.1191-0.15013-0.0242-0.04143 0.20479-0.07057 0.41187-0.12426 0.61437-0.05946 0.22426-0.15633 0.43975-0.21471 0.66422-0.03916 0.1507-0.19653 1.0424-0.22803 1.2178-0.05898 0.33178-0.11992 0.65952-0.16932 0.99244-0.0391 0.26377-0.06256 0.4301-0.0692 0.68747-0.0018 0.0623 0.0072 0.21402 0.01126 0.28967-3e-3 0.14276 0.22305 0.14641 0.22594 4e-3z" opacity=".98"/>
  <path d="m96.591 142.59c0.05694-0.50439 0.18028-1.0004 0.30388-1.4944 0.03808-0.14885 0.07635-0.29767 0.11424-0.44656 0.07098-0.2789 0.18797-0.73116 0.24301-1.0044 0.15753-0.78194 0.05473-0.41581 0.19608-1.2006 0.03431-0.19051 0.07922-0.37937 0.11884-0.56905 0.03922-0.16165 0.07845-0.32332 0.11768-0.48498 0.02299-0.0947-0.12692-0.12375-0.1499-0.0291-0.03928 0.16188-0.07855 0.32376-0.11784 0.48564-0.31471 1.1875 0.02527-0.0681-0.3278 1.1514-0.19508 0.6738-0.33691 1.358-0.51253 2.0359-0.12069 0.51156-0.26855 1.0341-0.24111 1.5605 0.0036 0.16141 0.25897 0.15695 0.25545-4e-3z" opacity=".98"/>
  <path d="m98.079 141.01c0.15599-0.5005 0.29742-1.0046 0.44455-1.5072 0.13972-0.4535 0.2575-0.91223 0.37222-1.3712 0.04203-0.16807 0.088-0.33545 0.12305-0.50479 0.03545-0.17122 0.05892-0.34426 0.08835-0.51639 0.03772-0.17083 0.07541-0.34166 0.11311-0.51249 0.0385-0.14957 0.077-0.29914 0.1155-0.4487 0.03215-0.12501-0.16567-0.16567-0.19784-0.0407-0.0385 0.14968-0.07706 0.29936-0.11558 0.44904-0.04898 0.16878-0.09792 0.33755-0.14688 0.50633-0.05575 0.16696-0.11754 0.3324-0.16725 0.50088-0.04904 0.16611-0.08602 0.33486-0.12874 0.50234-0.11642 0.45634-0.23611 0.91198-0.35008 1.3688-0.35152 1.2722 0.12295-0.44228-0.20706 0.74197-0.07312 0.26239-0.14861 0.5256-0.17524 0.79582-0.02868 0.14651 0.20319 0.18277 0.23188 0.0363z" opacity=".98"/>
  <path d="m100.03 138.37c0.10859-0.37399 0.16493-0.75811 0.25751-1.1353 0.10255-0.4178 0.16941-0.62546 0.29328-1.045 0.19963-0.61368 0.3332-1.2428 0.52262-1.8588 0.0805-0.26171 0.27705-0.80421 0.37473-1.0778 0.0331-0.0926-0.11346-0.13434-0.14652-0.0418-0.0595 0.16663-0.33667 0.94513-0.38709 1.0763-0.23339 0.60712-0.50498 1.2035-0.68419 1.8266-0.21456 0.7293-0.42207 1.4652-0.47537 2.2208-0.0276 0.15482 0.21744 0.1897 0.24503 0.0349z" opacity=".98"/>
  <path d="m101.77 136.88c0.10125-0.58649 0.30442-1.155 0.49257-1.7228 0.17134-0.51483 0.34041-1.0302 0.51267-1.5448 0.061-0.18209 0.12604-0.3631 0.18313-0.54619 0.10921-0.35018 0.23412-0.82169 0.33025-1.1748 0.24598-0.7084 0.11953-0.3697 0.37592-1.0171 0.0316-0.0799-0.0948-0.11985-0.12643-0.04-0.25716 0.6494-0.12017 0.31258-0.4126 1.01-0.1981 0.43479-0.32299 0.68933-0.49024 1.1347-0.0678 0.18052-0.12476 0.36414-0.18623 0.54646-0.1735 0.51469-0.34091 1.031-0.50873 1.5472-0.19111 0.58562-0.40869 1.1781-0.44369 1.7915-0.0126 0.17273 0.26077 0.18866 0.27338 0.0159z" opacity=".98"/>
  <path d="m103.61 135.15c0.21313-0.472 0.34707-0.96915 0.49626-1.4593 0.19814-0.6292 0.06-0.21064 0.30034-0.88438 0.0593-0.16626 0.11379-0.33392 0.17596-0.49934 0.1401-0.37276 0.23013-0.57005 0.38563-0.92991 0.0713-0.16511-0.18997-0.25526-0.26131-0.0901-0.21089 0.48806-0.18026 0.41984-0.40601 0.93054-0.0729 0.16501-0.15225 0.32787-0.21969 0.49474-0.14583 0.36087-0.19358 0.54201-0.30388 0.90176-0.13686 0.48871-0.28196 0.97585-0.41054 1.4662-0.0553 0.1537 0.18796 0.22356 0.24324 0.0699z" opacity=".98"/>
  <path d="m80.355 145.17c0.19345-0.15486 0.37835-0.31952 0.58782-0.45767 0.13213-0.0871 0.15841-0.095 0.29144-0.15885 0.02311-3e-3 0.04622-6e-3 0.06933-0.01 0.0015 4e-3 0.01006 0.0135 0.0047 0.0137-0.02257 1e-3 -0.04779-0.0218-0.06673-0.0108-0.02026 0.0117-0.01405 0.0413-0.02126 0.0619-0.05808 0.16632-0.02925 0.09-0.10759 0.27216-0.02812 0.0565-0.05503 0.1136-0.08435 0.16966-0.22746 0.43487 0.0074-0.0365-0.22888 0.43293-0.12093 0.24023-0.23365 0.48314-0.34396 0.72736-0.16228 0.34492-0.26384 0.70817-0.39397 1.0627-0.04768 0.0857-0.06533 0.0919 0.21465 0.0989 0.02718 6.1e-4 0.02808-0.0417 0.04439-0.0612 0.03539-0.0422 0.07307-0.0829 0.11054-0.12363 0.18976-0.20636 0.16294-0.17413 0.38106-0.38778 0.09078-0.0785 0.17988-0.15857 0.27234-0.23548 0.20494-0.17049 0.39217-0.31017 0.6015-0.47637 0.27736-0.22021 0.54822-0.44654 0.81871-0.67341 0.16978-0.13481 0.32848-0.28104 0.50158-0.4126 0.02638-0.0201 0.05327-0.0397 0.08208-0.0569 0.0063-4e-3 0.02896-2e-3 0.02199-5e-3 -0.06011-0.0228-0.12352-0.0378-0.18528-0.0568-0.24468 0.42753-0.54464 0.82825-0.83182 1.2337-0.14444 0.20176-0.41775 0.57736-0.54029 0.77672-0.09293 0.1512-0.17023 0.30967-0.25763 0.46348-0.08352 0.14699-0.17007 0.2926-0.2551 0.43889-0.03885 0.0614 0.05824 0.11043 0.09709 0.0491 0.09582-0.1393 0.18552-0.28213 0.28746-0.41792 0.1067-0.14214 0.22905-0.27447 0.33802-0.41523 0.11558-0.14928 0.43649-0.59837 0.55763-0.76694 0.14536-0.20647 0.29417-0.41684 0.43786-0.62455 0.12929-0.1869 0.29717-0.40237 0.38418-0.60983 0.01956-0.0466 0.02989-0.0959 0.04484-0.1439-0.06388-0.0458-0.11646-0.1083-0.19163-0.13729-0.02515-0.01-0.04959 0.0214-0.07181 0.0357-0.03151 0.0203-0.05952 0.0447-0.0886 0.0677-0.17124 0.13562-0.33551 0.27813-0.50335 0.41704-0.26868 0.22481-0.53824 0.44867-0.81342 0.66715-0.22051 0.17507-0.3947 0.30423-0.61076 0.48398-0.0965 0.0803-0.18962 0.16372-0.28444 0.24559-0.17887 0.1768-0.36228 0.3526-0.5162 0.54805-0.01769 0.0224-0.0654 0.0498-0.04624 0.0713 0.04984 0.0559 0.13164 0.0841 0.20675 0.10851 0.01371 4e-3 0.0066-0.0254 0.0099-0.0381 0.12672-0.35051 0.25257-0.70168 0.40092-1.0454 0.20165-0.45028 0.42545-0.8918 0.6521-1.3324 0.04621-0.10024 0.17757-0.35734 0.14161-0.4693-0.06191-0.19279-0.19405-0.16665-0.35319-0.11876-0.04873 0.0254-0.09928 0.0483-0.1462 0.0764-0.11817 0.0706-0.24509 0.1663-0.35193 0.24846-0.09255 0.0712-0.23881 0.18739-0.32601 0.26768-0.03203 0.0295-0.0603 0.0621-0.09045 0.0931-0.09014 0.0951 0.06041 0.20902 0.15054 0.1139z" opacity=".98"/>
  <path d="m80.339 150.06c0.01138-0.0227 0.02041-0.0464 0.03413-0.068 0.08514-0.13403 0.1938-0.25791 0.30169-0.37728 0.17342-0.19189 0.21089-0.22857 0.39583-0.42282 0.58125-0.54579 1.143-1.1076 1.7263-1.6516 0.2943-0.26553 0.57486-0.54305 0.86814-0.80945 0.25984-0.23601 0.53022-0.46288 0.79924-0.69044 0.19207-0.15606 0.37997-0.31708 0.58113-0.464 0.03303-0.0241 0.06668-0.0477 0.10197-0.0691 0.0077-5e-3 0.03316-3e-3 0.02609-9e-3 -0.06429-0.0486-0.13842-0.0859-0.20764-0.12882-0.29183 0.34808-0.5813 0.69953-0.84619 1.0647-0.09833 0.13557-0.19162 0.27402-0.28744 0.41103-0.54164 0.80925-1.0354 1.6429-1.5374 2.472-0.22433 0.40188-0.49937 0.78394-0.69263 1.1994 0.0025 0.0392-0.03112 0.0986 0.0073 0.11769 0.23989 0.11899 0.30507 0.0164 0.4514-0.10536 0.06668-0.0555 0.13069-0.11354 0.19595-0.17039 0.3446-0.30024 0.2013-0.17431 0.56384-0.49824 0.57743-0.53304 1.1488-1.0715 1.7681-1.5663 0.09937-0.0735 0.23018-0.17633 0.34331-0.24041 0.02997-0.017 0.06196-0.0318 0.09563-0.0418 0.0082-2e-3 0.03365 7e-3 0.02506 6e-3 -0.15317-0.0158-0.10821-0.0538-0.14746 0.065-0.16864 0.5523-0.38548 1.0918-0.57034 1.64-0.04596 0.14471-0.11207 0.34548-0.1516 0.49566-0.0094 0.0356-0.058 0.22503-0.04629 0.28183 0.0085 0.0411 0.01201 0.10163 0.0564 0.11479 0.08516 0.0253 0.17893-0.0123 0.26839-0.0185 0.23569-0.18673 0.37603-0.43116 0.52189-0.67485 0.03811-0.0431-0.03011-0.0913-0.06822-0.0482-0.20881 0.16423-0.41948 0.32732-0.60008 0.51743 0.0311 0.027 0.06972 0.0485 0.09329 0.0811 0.0085 0.0118-0.0041 0.0559-0.0043 0.0419-0.0012-0.0917 0.0116-0.13603 0.03769-0.23527 0.03873-0.14734 0.10368-0.34461 0.14869-0.48643 0.10562-0.30815 0.21682-0.61403 0.33168-0.91952 0.03659-0.0973 0.1689-0.44517 0.20411-0.55256 0.02232-0.0681 0.03913-0.13747 0.05869-0.2062 0.0041-0.0667 0.04129-0.13842 0.01239-0.19999-0.03096-0.0659-0.10285-0.11607-0.17514-0.14678-0.03764-0.016-0.08378 8e-3 -0.12298 0.0201-0.19345 0.0624-0.33888 0.21285-0.49894 0.31893-0.62291 0.49807-1.2006 1.0377-1.7783 1.577-0.24818 0.22177-0.49701 0.44287-0.75026 0.66001-0.04029 0.0346-0.12336 0.0527-0.12198 0.1026 0.0015 0.0528 0.08524 0.0732 0.12786 0.10978-5e-3 0.0191-0.0099 0.0382-0.01492 0.0573 0.06177-0.1352 0.139-0.26305 0.2148-0.39238 0.15349-0.26188 0.30926-0.5227 0.46743-0.78234 0.49742-0.82529 0.99265-1.6522 1.5288-2.4581 0.0937-0.13455 0.18487-0.27055 0.28111-0.40367 0.27749-0.38382 0.59141-0.74456 0.87827-1.1224-0.06213-0.0609-0.10877-0.13815-0.18638-0.18263-0.02285-0.0131-0.04914 0.0211-0.07156 0.0348-0.04017 0.0245-0.07834 0.0517-0.11567 0.0796-0.20237 0.15118-0.38704 0.32042-0.58132 0.47951-0.57493 0.48862-1.1326 0.99215-1.6735 1.511-0.58496 0.5486-1.1541 1.1104-1.7281 1.6681-0.18222 0.19102-0.2359 0.24157-0.40116 0.43576-0.11841 0.13916-0.23767 0.28311-0.30884 0.44756-0.01233 0.0285-0.01787 0.059-0.0268 0.0884-0.03455 0.12556 0.16417 0.16923 0.19873 0.0437z" opacity=".98"/>
  <path d="m84.786 152.38c0.19166-0.18867 0.33553-0.41123 0.48928-0.62443 0.10671-0.14797 0.32363-0.44548 0.42811-0.58895 0.47499-0.64562 0.91116-1.3132 1.3809-1.9617 0.18374-0.24789 0.37974-0.48864 0.58828-0.72036 0.04466-0.0496 0.21359-0.23222 0.27795-0.28656 0.02156-0.0182 0.04889-0.03 0.07333-0.045 5e-3 0.15965-0.15471-0.0172-0.19054 0.0308-0.02809 0.0376-0.01947 0.0889-0.034 0.13217-0.02521 0.0752-0.05447 0.14928-0.08508 0.22284-0.08732 0.20988-0.15647 0.34553-0.25635 0.55244-0.302 0.57517-0.58108 1.1592-0.85544 1.7452-0.20569 0.4158-0.3875 0.83958-0.52941 1.2762-0.04692 0.18683-0.19556 0.42278 0.20017 0.41161 0.0377-1e-3 0.2549-0.22961 0.26164-0.23638 0.30102-0.29777 0.60422-0.60505 0.96458-0.848 0.04824-0.0325 0.1013-0.0589 0.15194-0.0884 0.02324 0 0.05107-0.0125 0.06971-1.5e-4 0.01116 7e-3 -0.02054 0.0185-0.02399 0.0305-7e-3 0.0243-0.0084 0.0501-0.0062 0.0752 0.01363 0.15603 0.05085 0.30973 0.07123 0.46517 0.01126 0.086 0.0183 0.17231 0.02745 0.25847 0.01479 0.15569 0.26121 0.13699 0.24641-0.0187-0.02931-0.34927-0.01829-0.17264-0.03258-0.52992-0.01694-0.21082-0.02077-0.51314-0.33507-0.54179-0.06179-6e-3 -0.12052 0.0269-0.18078 0.0404-0.05926 0.0357-0.12094 0.0683-0.17779 0.107-0.37077 0.25226-0.68562 0.56701-0.99581 0.87515-0.04009 0.0406-0.08079 0.0806-0.12028 0.12167-0.01566 0.0163-0.0569 0.0315-0.04511 0.0502 0.03578 0.0567 0.10695 0.0883 0.16042 0.13238-0.0019-5e-3 -0.0065-9e-3 -0.0058-0.0143 0.0043-0.0303 0.01251-0.0601 0.02054-0.0898 0.01136-0.042 0.02506-0.0835 0.0376-0.12529 0.13945-0.42678 0.32735-0.83818 0.5226-1.2468 0.27022-0.58598 0.55668-1.1656 0.8528-1.7415 0.09557-0.19565 0.18622-0.37299 0.26843-0.57339 0.05645-0.13762 0.23652-0.53237 0.0549-0.66746-0.05766-0.0429-0.14932-0.0132-0.22398-0.0198-0.03627 0.0275-0.07542 0.0521-0.10881 0.0824-0.06821 0.0618-0.2323 0.2473-0.28327 0.30549-0.21006 0.23981-0.41342 0.48458-0.60067 0.73916-0.46943 0.64847-0.90353 1.3169-1.3792 1.962-0.29541 0.40657-0.58487 0.81636-0.8752 1.2258-0.1002 0.12456 0.09695 0.25118 0.19715 0.12662z" opacity=".98"/>
 </g>
</svg>
