<?xml version="1.0" encoding="UTF-8"?>
<svg width="16mm" height="16mm" version="1.1" viewBox="0 0 16 16" xmlns="http://www.w3.org/2000/svg" xmlnsCc="http://creativecommons.org/ns#" xmlnsDc="http://purl.org/dc/elements/1.1/" xmlnsRdf="http://www.w3.org/1999/02/22-rdf-syntax-ns#">

 <g transform="translate(-71.179 -16)">
  <path d="m77.6 31.883c-0.4047-0.19916-0.51671-0.52383-0.51702-1.4987-2.56e-4 -0.8316 0.0042-0.85523 0.1775-0.94462 0.09777-0.05043 0.32191-0.24209 0.49809-0.42592l0.32033-0.33424v2.1966l8.0762-0.04158 0.01837-4.571 0.01837-4.571h-2.7763v-0.31212c0-0.17166-0.02001-0.42538-0.04447-0.56382l-0.04447-0.2517 1.5921 2.98e-4c1.4714 2.83e-4 1.61 0.01263 1.8276 0.16286 0.45347 0.31296 0.44569 0.20967 0.42426 5.632-0.01904 4.8174-0.02205 4.9098-0.16676 5.1331-0.34008 0.52466-0.19148 0.50933-4.9047 0.50599-3.5047-0.0024-4.3105-0.02329-4.4992-0.11614zm-2.3817-3.6607c-1.6748-0.60617-3.7754-3.1911-4.0057-4.9293-0.10835-0.81788-0.14-0.77201 2.8208-4.0893 1.9548-2.1902 2.7756-3.0581 2.9651-3.1354 0.33054-0.1348 0.82208-0.06858 1.3735 0.18503 1.307 0.60115 3.1141 2.6985 3.5652 4.1378 0.1188 0.37906 0.1363 0.58324 0.10406 1.2138-0.03872 0.75713-0.0384 0.75894 0.23799 1.3812 0.52752 1.1876 0.52786 1.7391 0.0013 2.2775-0.32494 0.33231-0.68534 0.43542-1.0681 0.3056-0.5455-0.185-0.85664-0.64787-0.85664-1.2744v-0.30258l-1.8323 2.068c-1.1962 1.3501-1.9241 2.1113-2.0968 2.1928-0.34173 0.16127-0.7036 0.15208-1.2085-0.03067zm4.3152-6.0017c-0.6354-0.40274-1.2103-0.91667-1.7787-1.5902-0.51266-0.6074-1.1815-1.6587-1.281-2.0133-0.0405-0.14444-0.32969 0.15183-2.0672 2.1177-1.1111 1.2571-2.0201 2.3322-2.0201 2.3892 0 0.18473 0.40329 1.0139 0.73908 1.5195 0.63995 0.96367 1.7045 1.9367 2.4274 2.2187l0.35578 0.13881 4.0132-4.5342zm0.94761-1.8031c0.13662-0.09818-0.2678-0.74673-0.94005-1.5075-0.624-0.70618-1.2191-1.1863-1.7574-1.4178-0.34223-0.1472-0.34509-0.14707-0.34509 0.01463 0 0.27686 0.39961 1.077 0.86475 1.7315 0.46963 0.66083 0.77575 0.87816 1.585 1.1252 0.43423 0.13259 0.47788 0.13656 0.59284 0.05395z" fill="#fff" stroke-width=".075705"/>
 </g>
</svg>
