<?xml version="1.0" encoding="UTF-8"?>
<svg width="16mm" height="16mm" version="1.1" viewBox="0 0 16 16" xmlns="http://www.w3.org/2000/svg" xmlnsCc="http://creativecommons.org/ns#" xmlnsDc="http://purl.org/dc/elements/1.1/" xmlnsRdf="http://www.w3.org/1999/02/22-rdf-syntax-ns#">

 <g transform="translate(.16475 -.21864)">
  <path d="m7.0098 16.223c-2.7217-0.31934-5.0821-1.9804-6.2871-4.4243-1.949-3.9529-0.31829-8.746 3.6413-10.703 1.9156-0.94659 4.1429-1.0859 6.1524-0.38486 2.5585 0.89258 4.4929 3.0075 5.1453 5.6255 0.99927 4.0094-1.232 8.1249-5.1453 9.4902-1.092 0.38098-2.3881 0.5274-3.5066 0.39616zm1.8391-2.2512c0.1747-0.04117 0.39268-0.10365 0.48439-0.13884 0.09171-0.03519 0.16675-0.05253 0.16675-0.03853s0.05503-0.0047 0.12229-0.04154c0.06726-0.03685 0.25236-0.13427 0.41133-0.2165 0.551-0.28499 1.2383-0.8754 1.6209-1.3924 0.83659-1.1305 1.2695-2.4599 1.2695-3.8982 0-1.4383-0.43295-2.7677-1.2695-3.8982-0.38259-0.517-1.0699-1.1074-1.6209-1.3924-0.15897-0.08223-0.34407-0.17965-0.41133-0.2165-0.06726-0.03685-0.12229-0.05554-0.12229-0.04154s-0.07504-0.0033-0.16675-0.03853c-0.36406-0.1397-0.81451-0.2137-1.3007-0.2137-0.48618 0-0.93662 0.07401-1.3007 0.2137-0.09172 0.03519-0.16675 0.05253-0.16675 0.03853s-0.05503 0.0047-0.12229 0.04154c-0.06726 0.03685-0.25236 0.13427-0.41133 0.2165-0.551 0.28499-1.2383 0.8754-1.6209 1.3924-0.83659 1.1305-1.2695 2.4599-1.2695 3.8982 0 1.4383 0.43295 2.7677 1.2695 3.8982 0.3828 0.51729 1.0705 1.108 1.6209 1.3922 0.15897 0.08209 0.32633 0.16955 0.3719 0.19435 0.04557 0.0248 0.12148 0.05285 0.16868 0.06234 0.0472 0.0095 0.14999 0.03874 0.22842 0.065 0.6005 0.20109 1.4728 0.24963 2.0484 0.11398z" fill="#fff" stroke-width=".045427"/>
 </g>
</svg>
