<?xml version="1.0" encoding="UTF-8"?>
<svg width="16mm" height="16mm" version="1.1" viewBox="0 0 16 16" xmlns="http://www.w3.org/2000/svg" xmlnsCc="http://creativecommons.org/ns#" xmlnsDc="http://purl.org/dc/elements/1.1/" xmlnsRdf="http://www.w3.org/1999/02/22-rdf-syntax-ns#">

 <g transform="translate(-64.712 -10.903)">
  <path d="m71.99 24.636v-2.2675l-0.70953 0.79454c-0.96106 1.0762-1.2888 1.2145-2.1775 0.91887-1.7952-0.59727-4.1049-3.4238-4.3552-5.3298-0.11548-0.87933-0.14921-0.83001 3.0064-4.3965 2.0834-2.3547 2.9582-3.2879 3.1602-3.371 0.86564-0.35612 2.3448 0.48103 3.7218 2.1064 1.1472 1.3541 1.6764 2.4625 1.6764 3.5111v0.5276l-1.7371-0.0275c-0.95541-0.01513-1.7198 0.0043-1.6987 0.04321 0.0211 0.03889 0.05413 0.05272 0.07338 0.03074 0.01926-0.02199 0.12251 0.05263 0.22946 0.16581 0.10695 0.11318 0.22429 0.18473 0.26075 0.159 0.03646-0.02573 0.0663-0.0032 0.0663 0.05003 0 0.05325 0.03413 0.07273 0.07584 0.0433 0.04171-0.02944 0.07584-0.01 0.07584 0.0433 0 0.05325 0.03413 0.07273 0.07584 0.0433 0.04171-0.02944 0.07584-0.01 0.07584 0.0433 0 0.05325 0.03055 0.07526 0.06789 0.04891s0.08552 0.0045 0.10707 0.06866c0.02333 0.06945-0.37202 0.58514-0.97794 1.2756l-1.0171 1.159v1.9922l1.2486-1.4238c0.68672-0.78308 1.2726-1.3964 1.3019-1.3629 0.02931 0.03347 9e-3 0.06085-0.04505 0.06085-0.13253 0-0.05863 0.77234 0.08376 0.87536 0.05668 0.04101 0.06893 0.07575 0.02723 0.07721-0.05056 0.0018-0.05056 0.02386 0 0.06627 0.04171 0.03499 0.10996 0.13483 0.15167 0.22185 0.04171 0.08703 0.10454 0.15263 0.13962 0.14578 0.03508-0.0069 0.10729 0.05549 0.16047 0.13853 0.07248 0.1132 0.22258 0.15582 0.59979 0.17032 0.28236 0.01085 0.50311-0.01711 0.50311-0.06373 0-0.04569 0.03413-0.05898 0.07584-0.02955 0.04171 0.02944 0.07584 0.01 0.07584-0.0433 0-0.05325 0.0289-0.07642 0.06423-0.05149 0.08343 0.05888 0.48495-0.41831 0.41713-0.49575-0.0284-0.03242-0.0098-0.05894 0.04133-0.05894s0.07332-0.03628 0.04932-0.08061c-0.02399-0.04434-0.01319-0.1021 0.02402-0.12835 0.05668-0.04 0.06522-0.8283 0.0097-0.89515-0.0099-0.01191-0.02651-0.06062-0.03694-0.10825-0.01043-0.04763-0.02726-0.11582-0.03742-0.15154-0.01015-0.03572-0.01442-0.09417-0.0095-0.1299 0.0049-0.03572-0.01946-0.06495-0.05421-0.06495-0.03476 0-0.0632-0.05343-0.0632-0.11873 0-0.0653-0.10389-0.36731-0.23087-0.67113-0.22592-0.54056-0.26274-0.79392-0.14657-1.0086 0.04358-0.08052 0.58735-0.10672 2.2146-0.10672h2.1569v9.8721h-8.7213zm0-6.0231v-1.5815h0.75696l-0.78756-0.88762c-0.71851-0.8098-1.4734-1.948-1.6043-2.4189-0.04316-0.15529-0.35138 0.16323-2.2032 2.2768-1.1842 1.3516-2.153 2.5075-2.153 2.5687 0 0.19861 0.42982 1.0901 0.7877 1.6337 0.68218 1.0363 1.8169 2.0825 2.587 2.3852l0.37918 0.14906 2.2372-2.544zm2.636-2.9523c0.14561-0.10556-0.28541-0.80282-1.0019-1.6208-0.66505-0.75923-1.2993-1.2754-1.873-1.5244-0.36474-0.15825-0.3678-0.15812-0.3678 0.01573 0 0.29766 0.42591 1.1579 0.92164 1.8616 0.50053 0.71048 0.82679 0.94413 1.6892 1.2098 0.4628 0.14255 0.50932 0.14682 0.63184 0.05801z" fill="#fff" stroke-width=".081039"/>
 </g>
</svg>
