<?xml version="1.0" encoding="UTF-8"?>
<svg width="16mm" height="16mm" version="1.1" viewBox="0 0 16 16" xmlns="http://www.w3.org/2000/svg" xmlnsCc="http://creativecommons.org/ns#" xmlnsDc="http://purl.org/dc/elements/1.1/" xmlnsRdf="http://www.w3.org/1999/02/22-rdf-syntax-ns#">

 <g transform="translate(-68.801 -45.154)">
  <path d="m69.907 60.977c-0.46803-0.2163-0.83224-0.63614-0.98094-1.1308-0.16643-0.55363-0.16643-12.83 0-13.384 0.14869-0.49464 0.5129-0.91448 0.98094-1.1308l0.38388-0.1774h13.021l0.38388 0.1774c0.46803 0.2163 0.83224 0.63614 0.98094 1.1308 0.16643 0.55363 0.16643 12.83 0 13.384-0.14869 0.49464-0.5129 0.91448-0.98094 1.1308l-0.38388 0.1774h-13.021zm7.5921-3.187c0.46092-0.32572 0.47553-0.42206 0.47553-3.1341 0-2.3876-0.0047-2.4661-0.16534-2.7497-0.1875-0.33109-0.64659-0.5925-1.0406-0.5925-0.30294 0-0.74592 0.23845-0.95161 0.51222-0.14465 0.19254-0.1514 0.31879-0.1514 2.8311 0 2.5955 0.0023 2.6326 0.16792 2.8632 0.09236 0.1285 0.27972 0.29024 0.41636 0.35942 0.3348 0.16951 0.94428 0.12577 1.2491-0.08964zm-0.04845-7.1731c0.81431-0.54463 0.81431-1.593 0-2.1377-0.35232-0.23564-0.94647-0.23564-1.2988 0-0.81431 0.54463-0.81431 1.593 0 2.1377 0.35232 0.23564 0.94647 0.23564 1.2988 0z" stroke-width=".075416"/>
 </g>
</svg>
