<?xml version="1.0" encoding="UTF-8"?>
<svg width="30.93mm" height="29.502mm" version="1.1" viewBox="0 0 30.93 29.502" xmlns="http://www.w3.org/2000/svg" xmlns:cc="http://creativecommons.org/ns#" xmlns:dc="http://purl.org/dc/elements/1.1/" xmlns:rdf="http://www.w3.org/1999/02/22-rdf-syntax-ns#">
 <metadata>
  <rdf:RDF>
   <cc:Work rdf:about="">
    <dc:format>image/svg+xml</dc:format>
    <dc:type rdf:resource="http://purl.org/dc/dcmitype/StillImage"/>
    <dc:title/>
   </cc:Work>
  </rdf:RDF>
 </metadata>
 <g transform="translate(-5.8152 -6.7664)" fill="#020202" stroke-width="0">
  <path d="m22.244 7.0369c-0.26882 0.3956-0.56515 0.75163-0.87381 1.095-0.60042 0.66969-1.1658 1.3896-1.7461 2.088-0.69848 0.87914-1.4043 1.7487-2.1017 2.6293-0.74398 0.96564-1.5007 1.9144-2.2198 2.911-0.723 1.0079-1.4722 1.9833-2.1847 3.0037-0.66947 0.97971-1.3119 1.9891-1.9717 2.9796-0.15246 0.22822-0.30595 0.45534-0.45641 0.68576-0.02375 0.0364-0.04768 0.07261-0.07065 0.10983-0.01485 0.02408-0.03569 0.0446-0.04276 0.07396-0.02029 0.08454-0.02513 0.17398-0.03767 0.26097 0.11506 0.0728 0.22097 0.17754 0.3452 0.21842 0.04861 0.01597 0.09611-0.0372 0.14374-0.0575 0.06113-0.02605 0.1212-0.05611 0.18247-0.08157 0.21938-0.09115 0.43653-0.14446 0.66392-0.18977 0.57318-0.08479 1.149-0.01476 1.7144 0.11315 0.34447 0.08737 0.67473 0.25277 0.96312 0.5133 0.16156 0.14595 0.29481 0.30671 0.4426 0.47434 0.28295 0.33308 0.53879 0.70167 0.82843 1.0256 0.2026 0.22657 0.24887 0.26318 0.46189 0.46771 0.32704 0.27318 0.67292 0.52383 1.0592 0.62448 0.22067 0.0575 0.3531 0.05463 0.57736 0.06851 0.47707 0.01227 0.9522-0.06513 1.4289-0.06941 0.37327-0.0033 0.4413 0.01489 0.81174 0.05506 0.75581 0.14138 1.325 0.55092 1.9349 1.1109 0.49525 0.45319 0.89759 1.0318 1.2561 1.6571 0.28251 0.53124 0.59692 1.0308 0.92933 1.5111 0.19779 0.27343 0.40168 0.56121 0.66975 0.722 0.04216 0.02529 0.08702 0.0422 0.13053 0.0633 0.05784 0.0052 0.11575 0.02258 0.1735 0.01588 0.2636-0.03059 0.45224-0.32739 0.62302-0.5535 0.37695-0.45448 0.68186-0.99128 0.98015-1.5306 0.50166-0.9828 1.0714-1.9018 1.6278-2.8329 0.49309-0.82784 1.0118-1.6296 1.5046-2.4577 0.12188-0.20477 0.60128-1.029 0.71584-1.2257 0.73194-1.2408 1.454-2.4912 2.1801-3.7376 0.5167-0.92316 1.0874-1.7926 1.6268-2.6931 0.40188-0.7071 0.79746-1.4194 1.2241-2.1023 0.20278-0.31619 0.41224-0.62508 0.61015-0.94639 0.11572-0.2618 0.08425-0.4425-0.13948-0.59217-0.08295-0.05551-0.49669-0.06592-0.59003-0.07422-0.83386-0.09121-1.6629-0.24272-2.4931-0.37607-0.93046-0.13522-1.8507-0.35385-2.7626-0.62399-0.92178-0.27372-1.8321-0.60014-2.732-0.97464-0.13024-0.057944-0.26106-0.11379-0.39072-0.17386-0.24216-0.1122-0.4591-0.21756-0.69179-0.35751-0.311-0.18705-0.60736-0.41362-0.9053-0.63205-0.5134-0.38317-1.0668-0.66023-1.6152-0.946-0.30339-0.16757-0.59724-0.36187-0.88809-0.56243-0.28397-0.19558-0.56638-0.39946-0.80821-0.6756 0.0035-0.0051 0.0071-0.010193 0.01057-0.015268-0.15779-0.37718-0.57231-0.090031-0.41452 0.28715 0.03134 0.061365 0.06265 0.12273 0.094 0.1841 0.27146 0.30228 0.5781 0.54013 0.89585 0.75362 0.3057 0.21068 0.6146 0.41465 0.93372 0.58995 0.52913 0.27568 1.0635 0.54148 1.5589 0.91087 0.31332 0.22964 0.62507 0.46619 0.95236 0.66219 0.24292 0.14548 0.4716 0.25672 0.72395 0.37353 0.13264 0.0614 0.26647 0.11849 0.3997 0.17772 0.91288 0.3797 1.8362 0.711 2.7713 0.98859 0.92761 0.27441 1.8635 0.49716 2.8099 0.63475 0.83882 0.13473 1.6764 0.28785 2.519 0.37929 0.1317 0.01171 0.26318 0.02829 0.39508 0.0357 0.01785 9.37e-4 0.05799 0.01939 0.05351-0.0028-0.01888-0.09367-0.18776-0.22217-0.0556-0.34702-0.19719 0.3203-0.40641 0.62768-0.60816 0.94318-0.42846 0.68631-0.82674 1.4011-1.23 2.112-0.54056 0.90281-1.1129 1.774-1.6306 2.6995-0.72615 1.2465-1.4482 2.4968-2.1802 3.7377-0.10863 0.18651-0.59345 1.02-0.71076 1.2172-0.49334 0.82897-1.0127 1.6315-1.5062 2.4603-0.56 0.9371-1.1332 1.8621-1.6383 2.851-0.28426 0.51442-0.57405 1.0272-0.93426 1.4597-0.09914 0.13146-0.20491 0.25633-0.30204 0.38845-0.25327-0.09907-0.42922-0.37978-0.60556-0.61708-0.32307-0.46637-0.62799-0.95199-0.90223-1.4682-0.38886-0.67587-0.82577-1.3008-1.3618-1.7908-0.10052-0.0917-0.19874-0.18772-0.30155-0.27509-0.56617-0.48111-1.1917-0.82665-1.8671-0.94579-0.40222-0.04248-0.46378-0.06057-0.86842-0.05671-0.46372 0.0042-0.92589 0.07798-1.3899 0.0696-0.18033-0.0097-0.30312-0.0077-0.47955-0.04943-0.328-0.07765-0.61892-0.29838-0.89716-0.52431-0.1962-0.18752-0.23914-0.22135-0.42608-0.42973-0.29211-0.32561-0.5481-0.6993-0.83459-1.0327-0.17998-0.203-0.30926-0.36053-0.50774-0.53611-0.33898-0.29985-0.72546-0.49149-1.1277-0.59325-0.61648-0.13785-1.244-0.21208-1.8684-0.11487-0.22328 0.04558-0.29965 0.05396-0.51905 0.12763-0.15729 0.05281-0.24956 0.09969-0.39801 0.16527-0.03197 0.0141-0.11136 0.0024-0.09613 0.04136 0.04356 0.11095 0.14143 0.16939 0.21214 0.25409-0.01481 0.07281-0.03647 0.14387-0.0444 0.21844-0.0021 0.01902 0.0169-0.03162 0.02614-0.04666 0.02175-0.03522 0.04438-0.06958 0.06686-0.10402 0.14997-0.22966 0.30297-0.45604 0.45492-0.68351 0.65734-0.98692 1.2976-1.9925 1.9644-2.969 0.71065-1.0181 1.4584-1.9907 2.1795-2.9964 0.714-0.98992 1.4659-1.9316 2.2045-2.8908 0.69466-0.87729 1.3979-1.7434 2.0936-2.6193 0.57582-0.69308 1.1369-1.4075 1.7325-2.0723 0.31836-0.35464 0.62487-0.72192 0.90258-1.1299 0.2326-0.30643-0.10418-0.72972-0.33677-0.42329z" opacity=".98"/>
  <path d="m16.386 20.561c0.89974 0.54073 1.751 1.2006 2.574 1.9128 0.60205 0.5314 1.1393 1.1677 1.617 1.8757 0.22714 0.3604 0.23151 0.60167 0.58155-0.06354 0.02748-0.05224-0.02128-0.12327-0.02859-0.18566-0.0083-0.07139-0.0122-0.14354-0.01833-0.21532 0.0063-0.27739 0.02247-0.58967 0.16227-0.81875 0.04434-0.07264 0.09657-0.09359 0.15798-0.1309 0.29989-0.09505 0.60719-0.1655 0.87611-0.37429 0.07502-0.05824 0.14272-0.1308 0.21409-0.1962 0.06143-0.07284 0.12287-0.14569 0.18431-0.21853 0.24326-0.29241-0.0781-0.7351-0.32136-0.44269-0.04689 0.05736-0.09377 0.11471-0.14065 0.17206-0.04937 0.0481-0.09574 0.10179-0.14812 0.1443-0.27584 0.22388-0.60541 0.23834-0.90202 0.39241-0.16636 0.13625-0.21623 0.14872-0.3347 0.36634-0.18508 0.33996-0.21693 0.77419-0.21563 1.1749 8e-3 0.0881 0.01396 0.1766 0.02422 0.26432 0.0073 0.06255-0.0205 0.18816 0.02868 0.18618 0.13681-0.0055 0.24718-0.15628 0.37922-0.20266 0.01905-0.0067 0.05054 0.07732 0.04101 0.05503-0.04824-0.1129-0.14379-0.18636-0.18488-0.30464-0.50585-0.7471-1.0728-1.4203-1.7096-1.9809-0.84724-0.73246-1.7234-1.4115-2.6501-1.9662-0.30562-0.16976-0.4922 0.38642-0.18657 0.55618z" opacity=".98"/>
  <path d="m21.622 20.257c-0.04787-0.02787-0.09805-0.04993-0.14358-0.08363-0.42348-0.31348-0.78393-0.78114-1.0731-1.2811-0.10284-0.17778-0.19321-0.36696-0.28982-0.55045-0.21066-0.50679-0.40496-1.0341-0.4802-1.6058-0.0088-0.06648-0.05465-0.37895 0.02294-0.48168 0.01194-0.01579 0.01777 0.03761 0.02661 0.05644 0.0043 0.03921-0.0097 0.09059 0.01284 0.11761 0.05992 0.072 0.14527 0.09841 0.2143 0.15531 0.09798 0.08077 0.19322 0.16716 0.28618 0.25723 0.34415 0.33344 0.63729 0.72249 0.93479 1.1211 0.50654 0.7462 1.0621 1.43 1.6197 2.1114 0.19606 0.23704 0.36223 0.507 0.51214 0.79303 0.18673 0.35461 0.57645 0.0148 0.38972-0.33981-0.16982-0.32123-0.3569-0.62556-0.57768-0.89249-0.55244-0.6751-1.1029-1.3524-1.6045-2.092-0.31944-0.42701-0.63525-0.84531-1.0065-1.1996-0.12564-0.11991-0.4912-0.4537-0.66089-0.50403-0.13203-0.03916-0.27095-0.0057-0.40642-0.0086-0.06561 0.09226-0.15202 0.16582-0.19686 0.27679-0.08465 0.20954-0.05261 0.56599-0.02355 0.77378 0.08973 0.64181 0.30609 1.2351 0.54817 1.8021 0.10543 0.19859 0.20369 0.40381 0.31629 0.59578 0.36547 0.62308 0.82656 1.1973 1.3822 1.5286 0.30224 0.1795 0.49952-0.37053 0.19728-0.55003z" opacity=".98"/>
  <path d="m20.411 19.091c0.30458-0.29716 0.63588-0.54667 0.95357-0.82024 0.27664-0.23825 0.01481-0.74169-0.26184-0.50344-0.33493 0.28848-0.68558 0.54945-1.0031 0.8693-0.24969 0.2833 0.06166 0.73768 0.31134 0.45439z" opacity=".98"/>
  <path d="m20.405 13.719c7e-3 0.05938 0.0094 0.11998 0.02097 0.17814 0.05047 0.2522 0.13146 0.48294 0.21451 0.72046 0.13743 0.39304 0.25114 0.69348 0.42255 1.0697 0.08674 0.19038 0.18292 0.37336 0.27439 0.56004 0.39932 0.67272 0.87375 1.2893 1.4258 1.7569 0.21773 0.18441 0.30788 0.22282 0.53255 0.34976 0.30543 0.17034 0.49264-0.38549 0.1872-0.55583-0.17745-0.0974-0.26979-0.13806-0.44018-0.28132-0.50435-0.42404-0.9392-0.98395-1.3074-1.593-0.08624-0.17525-0.17697-0.34698-0.25874-0.52575-0.16874-0.3689-0.26798-0.63461-0.40348-1.0191-0.02864-0.08128-0.15108-0.43169-0.18202-0.5748-0.0097-0.04478-0.01143-0.09175-0.01716-0.13762-0.02885-0.42675-0.49783-0.37427-0.46899 0.05247z" opacity=".98"/>
  <path d="m22.287 13.069c0.35961 1.1277 0.61638 2.299 0.85956 3.475 0.34028 1.8262 0.70788 3.6433 1.0798 5.4592 0.2163 1.0086 0.40433 2.0285 0.703 3.0034 0.12238 0.39836 0.56018 0.17565 0.4378-0.22271-0.29322-0.95174-0.47209-1.9505-0.68558-2.935-0.37201-1.8163-0.7396-3.6339-1.0801-5.4606-0.24629-1.1903-0.506-2.3763-0.86979-3.518-0.10923-0.40464-0.55393-0.20586-0.4447 0.19878z" opacity=".98"/>
  <path d="m23.682 13.416c0.19253 0.94172 0.3884 1.8818 0.56212 2.8298 0.30311 1.6299 0.52368 3.281 0.71918 4.937 0.11523 1.019 0.23777 2.037 0.33313 3.0594 0.03176 0.26795 0.01459 0.35577 0.48564-0.02365 0.05735-0.04619 0.0049-0.17403 0.0095-0.26088 0.01206-0.23007 0.03676-0.59123 0.06551-0.81217 0.01942-0.1493 0.04864-0.29622 0.07296-0.44433 0.07219-0.35549 0.17834-0.70133 0.37406-0.97639 0.15462-0.21731 0.36723-0.3699 0.55672-0.52884 0.38432-0.3185 0.64409-0.71555 0.92027-1.1742 0.20326-0.33922-0.16954-0.70914-0.37281-0.36991-0.23341 0.39173-0.4762 0.76935-0.80485 1.0369-0.2401 0.20209-0.48895 0.39671-0.67961 0.67896-0.23368 0.34593-0.36692 0.77123-0.45462 1.2097-0.02649 0.16494-0.05805 0.32865-0.07943 0.4948-0.03056 0.2375-0.05552 0.61108-0.06847 0.85755-0.0043 0.0815-0.06418 0.20508-0.0088 0.24483 0.1356 0.09718 0.3063 0.08122 0.46151 0.07966 0.02208-1.96e-4 -0.0068-0.05613-0.01022-0.0842-0.09609-1.0287-0.21901-2.053-0.33511-3.0782-0.19746-1.6721-0.42038-3.3393-0.72642-4.9851-0.17288-0.9426-0.36632-1.8779-0.55937-2.8138-0.06769-0.41941-0.52862-0.29622-0.46093 0.12319z" opacity=".98"/>
  <path d="m25.386 18.76c0.16317-0.19529 0.31888-0.40052 0.47552-0.60435 0.23406-0.30458-0.10067-0.73054-0.33474-0.42596-0.15373 0.20006-0.30648 0.40157-0.4667 0.59315-0.24022 0.29655 0.08569 0.7337 0.32591 0.43715z" opacity=".98"/>
  <path d="m23.791 13.77c0.50999 0.01199 0.97714-0.2586 1.4334-0.51827 0.30433-0.17357 0.11358-0.7274-0.19075-0.55383-0.39085 0.22342-0.78995 0.46985-1.2274 0.46664-0.33271-0.01391-0.34801 0.59154-0.01532 0.60547z" opacity=".98"/>
  <path d="m25.968 12.817c0.3168 1.0212 0.57876 2.0683 0.8501 3.1104 0.311 1.2356 0.68082 2.4436 1.0513 3.6509 0.02216 0.07526 0.04432 0.15053 0.06649 0.22579 8.97e-4 0.0028 3.89e-4 0.01031 0.0021 0.0086 0.1323-0.12046 0.30893-0.19012 0.39295-0.36846 0.04145-0.08797-0.05684-0.19233-0.08293-0.28957-0.10334-0.38514-0.14238-0.56575-0.2376-0.9693-0.21363-1.0491-0.38298-2.1232-0.40725-3.2108-0.0035-0.15568 0.0021-0.31147 0.0035-0.46721 0.03185-0.21462 0.0961-0.69249 0.36008-0.5728 0.06518 0.02956 0.17502 0.16358 0.21733 0.20997 0.08455 0.17884 0.14622 0.28499 0.19236 0.49468 0.06041 0.2746 0.05594 0.60384-0.0096 0.87635-0.01861 0.07753-0.05179 0.148-0.07769 0.222-0.09895 0.18538-0.22477 0.33998-0.36844 0.46708-0.10312 0.09123-0.21746 0.15948-0.32275 0.24667-0.04057 0.07543-0.09886 0.13941-0.12174 0.2263-0.12319 0.4677 0.25655 0.86648 0.49082 1.1286 0.2535 0.24703 0.52423 0.47241 0.82479 0.61286 0.19942 0.09318 0.26509 0.09934 0.47181 0.15189 0.39957 0.07189 0.80071 0.02675 1.1684-0.19755 0.07134-0.04351 0.13807-0.09852 0.2071-0.14779 0.46106-0.40877 0.7333-1.0349 0.96227-1.6743 0.14695-0.57894 0.16023-1.2138-0.05623-1.7703-0.03533-0.09073-0.084-0.17176-0.12598-0.25764-0.06381-0.07148-0.12083-0.15447-0.19143-0.21444-0.27585-0.2343-0.62695-0.21132-0.91444-0.02693-0.07437 0.04771-0.14043 0.11437-0.21065 0.17155-0.29767 0.3381-0.55728 0.78718-0.59401 1.3146-0.0071 0.10115 0.0039 0.20308 0.0056 0.30461 0.02897 0.10104 0.04581 0.20932 0.08694 0.30312 0.12615 0.28776 0.36248 0.42185 0.61374 0.36696 0.17604-0.03846 0.24011-0.12285 0.37904-0.24648 0.18699-0.31499 0.11304-0.14852 0.22684-0.49569 0.1208-0.39915-0.31786-0.61901-0.43867-0.21985-0.04246 0.16655-0.01866 0.0908-0.06835 0.22872-0.06915 0.07627-0.10702 0.10753-0.18672 0.15596-0.01212 0.0074-0.02135 0.03152-0.03424 0.02698-0.04887-0.01719-0.0847-0.10631-0.10846-0.15169-0.0045-0.05262-0.01511-0.10498-0.01343-0.15787 0.01173-0.36504 0.19785-0.67991 0.39129-0.9239 0.22796-0.20754 0.41163-0.32433 0.66368-0.10273 0.02735 0.04981 0.05969 0.09567 0.08209 0.14942 0.16736 0.40153 0.16308 0.86681 0.06544 1.2933-0.18513 0.5234-0.40039 1.0473-0.76583 1.3991-0.36602 0.2726-0.63122 0.34432-1.0549 0.27794-0.16307-0.03917-0.22184-0.04492-0.37881-0.1157-0.25517-0.11505-0.48334-0.30765-0.69939-0.51296-0.11017-0.121-0.14572-0.15206-0.2404-0.28435-0.02453-0.03428-0.04561-0.0724-0.06909-0.10787-0.01054-0.01588-0.01699-0.04178-0.03283-0.04619-0.02791-0.0078-0.03933 0.08529-0.07658 0.04927 0.1152-0.09924 0.24102-0.17162 0.35434-0.27571 0.20904-0.192 0.38429-0.42542 0.51396-0.71261 0.03549-0.11603 0.08073-0.22786 0.10642-0.34809 0.11269-0.52768 0.06059-1.1388-0.1589-1.6098-0.05928-0.12722-0.13878-0.2369-0.20817-0.35536-0.20459-0.17913-0.29902-0.31685-0.56674-0.3212-0.10256-0.0019-0.20796 0.03092-0.29963 0.09017-0.33014 0.21332-0.40774 0.65235-0.46096 1.0771-8.96e-4 0.16947-0.0064 0.33902-0.0025 0.50842 0.02675 1.1348 0.20241 2.2557 0.42671 3.3502 0.1 0.42333 0.13761 0.59834 0.24637 1.0029 0.02727 0.10148 0.0074 0.26829 0.08669 0.30222 0.15521 0.06652 0.32653-0.02961 0.48888-0.05556 0.0058-9.62e-4 -0.0039-0.01438-6e-3 -0.02159-0.0229-0.07786-0.04584-0.15571-0.06877-0.23357-0.36744-1.1974-0.73443-2.3954-1.0428-3.6209-0.27349-1.0503-0.53772-2.1056-0.85696-3.1349-0.11926-0.39992-0.55877-0.1829-0.43952 0.21703z" opacity=".98"/>
  <path d="m18.123 12.382c-0.04802-0.01752-0.09697-0.03125-0.14405-0.05254-0.31143-0.14098-0.60572-0.33765-0.89817-0.53251-0.24084-0.16047-0.48001-0.32504-0.72021-0.48708-0.37765-0.22842-0.81647-0.58868-1.2508-0.36987-0.25486 0.12839-0.38077 0.35834-0.56141 0.60471-0.61183 0.97328-1.1663 2.003-1.7179 3.0332-0.10509 0.19276-0.20834 0.38721-0.31528 0.57828-0.277 0.49489-0.4193 0.72151-0.70072 1.2138-0.35672 0.624-0.70489 1.2536-1.0705 1.8692-0.79862 1.2982-1.5749 2.6188-2.3557 3.9348-0.5691 0.96016-1.1289 1.9293-1.6638 2.9216-0.11644 0.24466-0.27075 0.46741-0.3638 0.73084-0.019861 0.05622-0.054782 0.11505-0.045721 0.1757 0.019903 0.13308 0.0489 0.28183 0.12755 0.37196 0.073277 0.08396 0.18933 0.0664 0.28399 0.0996 1.0185 0.18482 2.0117 0.5455 3.0068 0.87162 0.86028 0.28244 1.7277 0.53043 2.5795 0.85407 0.51138 0.19428 0.75025 0.30334 1.253 0.51966 1.05 0.49504 2.0854 1.0461 3.094 1.6677 0.93667 0.6013 1.856 1.2456 2.783 1.8707 0.94918 0.68044 1.915 1.3191 2.896 1.9199 0.60733 0.35458 1.2327 0.65536 1.8351 1.0245 0.38758 0.23751 0.40816 0.26352 0.77456 0.53133 0.28372 0.19978 0.54018 0.46167 0.82787 0.65273 0.11248 0.07471 0.26695 0.16565 0.40081 0.14253 0.07946-0.01373 0.15045-0.0714 0.22567-0.10709 0.05666-0.08673 0.12155-0.16555 0.16996-0.26019 0.06954-0.13593 0.17513-0.4909 0.22043-0.63014 0.04757-0.14624 0.09388-0.29322 0.14409-0.43799 0.17451-0.5032 0.17739-0.48851 0.38262-0.98212 0.3979-0.83913 0.85526-1.6308 1.3519-2.3773 0.05125-0.07703 0.80108-1.1583 0.84326-1.2192 0.75934-1.0552 1.401-2.2323 2.0676-3.3826 0.494-0.80235 0.9795-1.6117 1.4313-2.4544 0.19952-0.37797 0.39995-0.75568 0.58155-1.1485 0.13509-0.43387-0.03715-0.61826-0.31834-0.78931-0.2837-0.15834-0.56931-0.31089-0.85303-0.4692-0.26559-0.13573-0.52064-0.29947-0.76486-0.48995-0.13831-0.10669-0.25848-0.24247-0.36799-0.39346-0.07537-0.08345-0.12301-0.18531-0.1684-0.29643-0.15525-0.37892-0.57168-0.09638-0.41643 0.28253 0.06485 0.15788 0.13829 0.30622 0.24137 0.4282 0.13944 0.19075 0.29272 0.36222 0.46789 0.49758 0.26259 0.20383 0.53594 0.38142 0.82115 0.52732 0.27984 0.15614 0.56142 0.30694 0.84145 0.4625 0.14314 0.08406 0.08497 0.08823 0.09311-0.03134 0.0056-0.08164 0.0107-0.06044 0.01938-0.03799-0.17598 0.38129-0.37114 0.74718-0.56441 1.1141-0.44838 0.83668-0.93104 1.6394-1.4211 2.4362-0.65834 1.1361-1.2915 2.2993-2.0415 3.3415-0.06277 0.09059-0.79041 1.1396-0.85543 1.2375-0.51649 0.77719-0.99189 1.6017-1.4036 2.4768-0.21603 0.52149-0.21781 0.50318-0.40089 1.0313-0.20336 0.58667-0.0823 0.26719-0.24427 0.75284-0.02315 0.06946-0.05236 0.1356-0.07352 0.20612-0.0072 0.02384-0.0072 0.05023-0.01095 0.07535 0.0099 0.01087 0.03548 0.01776 0.02949 0.03251-0.01909 0.04689-0.12267-0.0157-0.1899-0.06022-0.12335-0.08174-0.39229-0.30706-0.49441-0.38874-0.11282-0.09023-0.22635-0.179-0.33952-0.2685-0.38582-0.28106-0.40658-0.30761-0.81235-0.55608-0.59983-0.3673-1.2221-0.668-1.8272-1.0198-0.97553-0.59736-1.9358-1.2329-2.8798-1.9094-0.9321-0.62857-1.8564-1.2765-2.7983-1.8806-1.0264-0.63177-2.0794-1.1935-3.148-1.6958-0.51424-0.22114-0.75204-0.32981-1.2756-0.52856-0.85541-0.32474-1.7262-0.57437-2.59-0.85768-1.0102-0.33107-2.0185-0.69619-3.0525-0.88354-0.11095 0.07115-0.065136 0.01509-0.029449 0.29445 0.00214 0.01531-0.00129-0.03218 0.00386-0.04632 0.086967-0.24602 0.23163-0.45323 0.34004-0.68197 0.53076-0.98472 1.0865-1.9464 1.6512-2.8992 0.78075-1.3159 1.557-2.6364 2.3556-3.9346 0.36652-0.61738 0.71581-1.2486 1.0735-1.8743 0.29551-0.51691 0.4175-0.70761 0.70906-1.2286 0.10771-0.19246 0.2117-0.38831 0.31754-0.58247 0.53922-1.007 1.0815-2.0131 1.6769-2.9671 0.07794-0.11316 0.29142-0.48516 0.44731-0.49152 0.23541-0.0096 0.59818 0.26615 0.79965 0.38339 0.24202 0.16326 0.48295 0.3292 0.72568 0.4907 0.32097 0.21357 0.64539 0.4317 0.98978 0.57762 0.06804 0.02881 0.13878 0.04572 0.20818 0.06856 0.3304 0.05221 0.38778-0.54906 0.05738-0.60128z" opacity=".98"/>
  <path d="m8.2811 26.028c0.029747-0.05421 0.061426-0.10671 0.089187-0.16263 0.083019-0.16719 0.26178-0.56931 0.32789-0.71487 0.14938-0.32891 0.31883-0.69833 0.46922-1.0268 0.16899-0.36905-0.23661-0.67658-0.40559-0.30752-0.28223 0.61638-0.55289 1.2438-0.85485 1.8441-0.20203 0.34044 0.17212 0.70811 0.37415 0.36766z" opacity=".98"/>
  <path d="m9.6074 26.036c0.30669-0.5767 0.57477-1.186 0.85383-1.7852 0.17112-0.36742-0.23267-0.67884-0.4038-0.31142-0.27303 0.58622-0.53526 1.1824-0.83462 1.7472-0.19197 0.34996 0.19264 0.6993 0.3846 0.34935z" opacity=".98"/>
  <path d="m12.287 26.585c0.22133-0.82717 0.55968-1.5868 0.89845-2.341 0.06528-0.14105 0.13056-0.2821 0.19584-0.42315 0.17032-0.36804-0.23416-0.67799-0.40448-0.30995-0.06633 0.14334-0.13265 0.28667-0.19897 0.43001-0.35405 0.78867-0.70592 1.5842-0.9366 2.4493-0.10705 0.4056 0.33871 0.60041 0.44576 0.19481z" opacity=".98"/>
  <path d="m11.156 26.254c0.33184-0.7454 0.67865-1.4797 1.0214-2.2169 0.05964-0.12816 0.11927-0.25633 0.17891-0.38449 0.17101-0.36751-0.23289-0.67872-0.40389-0.31121-0.05967 0.12823-0.11934 0.25646-0.179 0.38469-0.3478 0.7481-0.7002 1.493-1.0358 2.2503-0.15256 0.38073 0.26586 0.65835 0.41842 0.27763z" opacity=".98"/>
  <path d="m13.743 27.287c0.25827-0.69993 0.51217-1.4021 0.77941-2.0966 0.14771-0.38387-0.27416-0.65268-0.42188-0.26881-0.27243 0.70803-0.53192 1.4237-0.7939 2.1381-0.1249 0.39706 0.31148 0.62435 0.43637 0.22729z" opacity=".98"/>
  <path d="m15.634 28.044c0.15402-0.53147 0.35783-1.0336 0.56883-1.5303 0.1596-0.37591-0.25353-0.66636-0.41313-0.29044-0.22722 0.53547-0.44687 1.0775-0.60802 1.6528-0.09226 0.41158 0.36006 0.57948 0.45232 0.1679z" opacity=".98"/>
  <path d="m17.438 29.19c0.17676-0.59609 0.41237-1.1617 0.65319-1.7184 0.04749-0.10576 0.09498-0.21153 0.14247-0.31729 0.16651-0.37092-0.24113-0.67394-0.40764-0.30301-0.04875 0.10862-0.09749 0.21722-0.14623 0.32583-0.25549 0.59148-0.50572 1.1925-0.68996 1.8275-0.10186 0.40781 0.34632 0.59318 0.44818 0.18537z" opacity=".98"/>
  <path d="m18.757 30.081c0.35828-0.89055 0.73641-1.7678 1.1243-2.6375 0.1657-0.37151-0.24259-0.67307-0.4083-0.30155-0.40234 0.9021-0.79838 1.8103-1.1607 2.7402-0.10929 0.40461 0.33539 0.60349 0.44467 0.19888z" opacity=".98"/>
  <path d="m20.239 31.597c0.23975-0.84629 0.59574-1.6317 0.93361-2.4179 0.0679-0.15421 0.13579-0.30842 0.20369-0.46263 0.16408-0.3727-0.24552-0.6713-0.4096-0.29861-0.06869 0.15604-0.13738 0.31208-0.20607 0.46811-0.22469 0.52299-0.45009 1.0457-0.65595 1.5816-0.09676 0.25186-0.19863 0.52698-0.27397 0.79342-0.02222 0.07852-0.03767 0.15993-0.0565 0.2399-0.05283 0.42293 0.41198 0.51905 0.4648 0.09612z" opacity=".98"/>
  <path d="m21.873 31.95c0.18871-0.78616 0.43662-1.547 0.6735-2.3106 0.1234-0.39784-0.31382-0.62241-0.43722-0.22458-0.24965 0.80486-0.51485 1.6062-0.70119 2.44-0.0523 0.42304 0.41262 0.51822 0.46492 0.09518z" opacity=".98"/>
  <path d="m23.296 32.691c0.08617-0.3901 0.21102-0.763 0.33188-1.1367 0.12787-0.39549-0.30678-0.62819-0.43465-0.2327-0.13467 0.4167-0.27513 0.83289-0.36182 1.2715-0.05377 0.42273 0.41083 0.52056 0.46459 0.09782z" opacity=".98"/>
  <path d="m24.792 34.061c0.08807-0.29706 0.19991-0.58148 0.30666-0.86783 0.14394-0.38624-0.28055-0.64818-0.42448-0.26194-0.12235 0.32843-0.25348 0.65394-0.34216 1.0009-0.07083 0.41855 0.38916 0.54744 0.45999 0.12888z" opacity=".98"/>
  <path d="m25.873 34.729c0.2106-0.78064 0.53681-1.5008 0.83927-2.2268 0.67305-1.6841 1.4087-3.3257 2.1508-4.9605 0.13053-0.28468 0.26107-0.56935 0.39161-0.85403 0.16917-0.36892-0.23628-0.67677-0.40544-0.30785-0.13089 0.28544-0.26178 0.57088-0.39266 0.85633-0.74501 1.6413-1.4835 3.2892-2.1592 4.9798-0.32183 0.77248-0.67055 1.5394-0.88291 2.3759-0.07535 0.41724 0.3832 0.55437 0.45854 0.13713z" opacity=".98"/>
  <path d="m29.582 28.6c0.40624-1.0328 0.80125-2.0729 1.1953-3.1134 0.14583-0.38507-0.27735-0.65045-0.42319-0.26539-0.39366 1.0395-0.78827 2.0784-1.1941 3.1102-0.14764 0.38392 0.2743 0.6526 0.42194 0.26867z" opacity=".98"/>
  <path d="m9.6087 22.924c0.40665-0.74619 0.8247-1.4824 1.2386-2.222 0.4257-0.77118 0.21769-0.393 0.62416-1.1344 0.19189-0.35002-0.19278-0.69923-0.38468-0.34921-0.405 0.73875-0.19787 0.36217-0.6215 1.1296-0.41959 0.74974-0.8439 1.4955-1.2549 2.253-0.17753 0.36236 0.2207 0.68542 0.39823 0.32307z" opacity=".98"/>
  <path d="m13.92 15.782c0.06395-0.13583 0.12788-0.27165 0.19182-0.40748 0.17247-0.36638-0.23018-0.68025-0.40265-0.31387-0.06394 0.13583-0.12788 0.27165-0.19182 0.40748-0.17247 0.36638 0.23018 0.68025 0.40265 0.31387z" opacity=".98"/>
  <path d="m12.577 18.374c0.11838-0.35373 0.29889-0.66237 0.4691-0.97619 0.19044-0.35134-0.19569-0.6979-0.38612-0.34656-0.18636 0.34405-0.38161 0.68429-0.51142 1.0717-0.13795 0.38984 0.29049 0.64089 0.42844 0.25105z" opacity=".98"/>
 </g>
</svg>
