<?xml version="1.0" encoding="UTF-8"?>
<svg width="16mm" height="16mm" version="1.1" viewBox="0 0 16 16" xmlns="http://www.w3.org/2000/svg" xmlnsCc="http://creativecommons.org/ns#" xmlnsDc="http://purl.org/dc/elements/1.1/" xmlnsRdf="http://www.w3.org/1999/02/22-rdf-syntax-ns#">

 <path d="m4.0062 13.728c-4.1333-2.3521-4.0684-2.3116-4.0272-2.507 0.0087586-0.04154 0.056901-0.10989 0.10698-0.15191 0.05008-0.04201 0.62855-0.38153 1.2855-0.75448l1.1944-0.67809-0.11251-0.067982c-0.061883-0.03739-0.62875-0.36118-1.2597-0.71952-1.2632-0.71742-1.293-0.74125-1.194-0.95511 0.039437-0.085234 0.2277-0.20392 1.194-0.75273 0.63095-0.35835 1.1977-0.68204 1.2593-0.7193l0.11216-0.067761-1.2456-0.70901c-0.68508-0.38996-1.2611-0.73178-1.2799-0.75961-0.071561-0.10542-0.078066-0.18899-0.022306-0.28658 0.04619-0.080841 0.78287-0.51241 3.9888-2.3368 2.521-1.4346 3.9634-2.2376 4.0191-2.2376 0.055739 0 1.4981 0.80304 4.0191 2.2376 4.1334 2.3521 4.0684 2.3116 4.0272 2.507-0.0088 0.041536-0.0569 0.10989-0.10698 0.15191-0.05008 0.042013-0.62855 0.38153-1.2855 0.75448l-1.1944 0.67809 0.11251 0.067981c0.06189 0.03739 0.62875 0.36118 1.2597 0.71952 0.9663 0.54881 1.1546 0.6675 1.194 0.75273 0.09896 0.21386 0.06917 0.23769-1.194 0.95511-0.63095 0.35835-1.1978 0.68214-1.2597 0.71953l-0.11251 0.067981 1.1944 0.67809c0.65694 0.37295 1.2354 0.71247 1.2855 0.75448 0.05008 0.04201 0.09822 0.11037 0.10698 0.15191 0.04121 0.1954 0.10619 0.15495-4.0272 2.507-2.521 1.4346-3.9634 2.2376-4.0191 2.2376-0.055738 0-1.4981-0.80304-4.0191-2.2376zm7.5959-0.41574c2.7588-1.5706 3.5572-2.0388 3.5242-2.0667-0.12506-0.10544-2.2107-1.2601-2.2561-1.2489-0.02945 0.00719-1.0806 0.59818-2.336 1.3133-1.2553 0.71508-2.3334 1.3222-2.3957 1.3491-0.10293 0.04449-0.12354 0.04449-0.22635 6.3e-5 -0.062209-0.026895-1.1403-0.63394-2.3957-1.349-1.2554-0.71505-2.3069-1.3061-2.3366-1.3134-0.045675-0.01128-2.1297 1.1427-2.2555 1.2489-0.033042 0.0279 0.76326 0.49517 3.5205 2.0659 1.9598 1.1164 3.5693 2.0302 3.5768 2.0307 0.00744 4.64e-4 1.6186-0.91294 3.5804-2.0298zm0.0074-3.2779c1.9568-1.1131 3.5578-2.0308 3.5577-2.0393-6.9e-5 -0.0085667-0.51141-0.3054-1.1363-0.65963l-1.1361-0.64407-0.27949 0.15861c-0.15372 0.087236-1.2146 0.69231-2.3575 1.3446-1.9375 1.1058-2.0884 1.186-2.2325 1.186s-0.29506-0.08019-2.2325-1.186c-1.1429-0.6523-2.2039-1.2575-2.3579-1.3448l-0.2799-0.15884-1.1361 0.6443c-0.62485 0.35436-1.136 0.6513-1.1359 0.65987 3.3816e-4 0.021727 7.1201 4.0746 7.1468 4.0683 0.011928-0.0028 1.6228-0.91586 3.5796-2.0289zm-0.03452-3.2573c1.9297-1.098 3.5277-2.0125 3.5509-2.0321 0.03253-0.027469-0.7837-0.50612-3.5291-2.0696l-3.5715-2.0338-3.5711 2.0336c-2.061 1.1737-3.5583 2.0453-3.5409 2.0611 0.068113 0.061745 7.0641 4.0347 7.1067 4.0359 0.025438 6.852e-4 1.6251-0.89711 3.5549-1.9951z" fill="#fff" stroke-width=".032701"/>
</svg>
