<svg width="211.46mm" height="221.81mm" version="1.1" viewBox="0 0 211.46 221.81" xmlns="http://www.w3.org/2000/svg" xmlns:xlink="http://www.w3.org/1999/xlink">
 <defs>
  <linearGradient id="linearGradient5727" x1=".1386" x2="211.6" y1="147.88" y2="147.88" gradientUnits="userSpaceOnUse">
   <stop stop-color="#c062a7" offset="0"/>
   <stop stop-color="#c062a7" stop-opacity="0" offset="1"/>
  </linearGradient>
 </defs>
 <g transform="translate(-.1386 -36.975)">
  <path d="m99.748 258.73c-10.385-0.91592-17.367-2.2139-25.287-4.7006-9.9783-3.1331-18.701-7.2762-27.39-13.01-6.4488-4.2555-11.225-8.3078-18.05-15.315-15.668-16.087-25.733-37.942-28.4-61.668-0.64593-5.7464-0.64302-16.668 0.005916-22.225 2.7926-23.913 13.24-46.139 29.108-61.922 4.3195-4.2967 5.5176-5.1141 9.159-6.2493 2.8233-0.88015 7.2371-0.87979 10.045 7.94e-4 6.4214 2.014 10.623 6.0448 12.866 12.344 0.36613 1.0281 0.46856 2.1189 0.4596 4.8948-0.02085 6.4589-1.153 9.1682-6.1914 14.817-9.7456 10.926-15.329 22.003-17.802 35.322-1.4135 7.6122-1.1986 19.059 0.50174 26.723 1.2613 5.6853 3.5534 11.921 6.3706 17.33 6.6961 12.858 17.051 22.952 30.13 29.372 11.093 5.4448 20.091 7.3894 32.676 7.0617 6.4016-0.16671 9.5803-0.58251 14.949-1.9554 9.6533-2.4686 17.598-6.4063 25.268-12.524 3.3054-2.6364 8.1306-7.3928 10.899-10.744 7.5787-9.1735 12.785-20.938 14.68-33.171 0.36277-2.3422 0.4705-4.6264 0.46795-9.9219-4e-3 -7.7746-0.34303-10.861-1.8309-16.656-3.0713-11.961-7.7633-20.523-16.999-31.02-5.093-5.7887-5.9668-7.9277-5.9782-14.634-6e-3 -3.3367 0.0466-3.7118 0.7934-5.6978 1.7544-4.6654 4.7702-8.0192 9.219-10.252 5.2387-2.6296 11.768-2.5694 16.917 0.15593 1.9219 1.0172 6.884 5.7433 10.477 9.979 9.8451 11.606 17.516 26.536 21.407 41.666 6.5736 25.562 3.5195 51.961-8.731 75.468-5.259 10.091-10.731 17.452-19.307 25.973-19.785 19.656-44.913 30.177-73.025 30.575-3.4197 0.0485-6.7535 0.0409-7.4083-0.0169zm4.3656-83.211c-4.9384-0.46672-10.207-3.411-13.109-7.326-1.724-2.3256-2.5005-4.0109-2.8833-6.2577-0.68684-4.0313-0.82612-17.816-0.65109-64.441l0.17729-47.228 0.92675-1.8521c3.9299-7.8538 10.217-11.856 17.921-11.41 5.335 0.30934 8.5772 1.7229 12.194 5.3166 2.0934 2.0801 2.598 2.771 3.9026 5.3443l1.4984 2.9553v111.38l-1.1959 2.389c-2.8205 5.6342-6.5593 8.8801-12.033 10.447-2.6606 0.76147-4.2369 0.92128-6.7469 0.68407z" fill="url(#linearGradient5727)" stroke-width=".26458"/>
 </g>
</svg>
