<svg width="425.85" height="425.51" version="1.1" viewBox="0 0 425.85 425.51" xmlns="http://www.w3.org/2000/svg">
 <g transform="translate(-43.022 -35.09)">
  <path d="m55.5 459.23c-6.9732-3.0905-12.436-11.453-12.478-19.102-0.01418-2.5886 6.8642-24.661 19.409-62.282l19.431-58.273-2.3375-5.2855c-1.2856-2.907-3.9496-10.376-5.9199-16.599-22.603-71.381-2.8635-151.46 50.149-203.45 12.484-12.242 20.546-18.868 31.891-26.21 24.476-15.84 48.325-25.313 76.911-30.551 16.068-2.9441 53.711-3.2354 68.445-0.52969 42.81 7.8613 78.958 26.649 108.99 56.65 29.026 28.993 47.586 63.654 56.165 104.89 2.8856 13.869 3.6442 48.061 1.4387 64.838-4.6204 35.146-17.738 66.883-40.012 96.805-7.8815 10.587-27.896 30.479-38.919 38.68-37.908 28.202-82.853 42.316-129.06 40.526-23.716-0.91848-43.002-4.7681-65.051-12.985l-10.945-4.0785-57.565 19.179c-60.322 20.097-63.494 20.896-70.546 17.771zm84.5-67.092c46.845-15.626 46.509-15.57 59.338-9.8807 55.478 24.601 115.67 18.221 163.66-17.346 9.8262-7.2826 26.046-23.82 33.173-33.821 39.484-55.413 41.052-127.64 3.9735-183.07-31.83-47.586-86.921-74.704-143.16-70.467-41.948 3.1601-76.818 19.422-105.52 49.212-21.914 22.742-35.548 49.113-42.073 81.376-2.8412 14.048-2.5938 46.391 0.46267 60.5 2.7722 12.797 6.0066 22.661 11.278 34.394 6.5948 14.679 6.9734 12.172-9.0732 60.093-7.7327 23.093-14.059 42.105-14.059 42.25 0 0.69514 4.2301-0.63801 42-13.237z" fill="#fff"/>
 </g>
</svg>
