<?xml version="1.0" encoding="UTF-8"?>
<svg width="16mm" height="16mm" version="1.1" viewBox="0 0 16 16" xmlns="http://www.w3.org/2000/svg" xmlnsCc="http://creativecommons.org/ns#" xmlnsDc="http://purl.org/dc/elements/1.1/" xmlnsRdf="http://www.w3.org/1999/02/22-rdf-syntax-ns#">

 <g transform="translate(-.17735 -.022875)">
  <path d="m7.6012 16.018c-2.059-0.17643-3.7922-0.98496-5.179-2.4161-0.38042-0.39255-0.61574-0.68278-0.90757-1.1193-0.56335-0.84273-0.9308-1.7088-1.1555-2.7235-0.2321-1.0479-0.24226-2.2703-0.02769-3.3294 0.32461-1.6023 1.0928-3.0106 2.262-4.147 1.9533-1.8985 4.651-2.6479 7.4418-2.0674 3.1093 0.64678 5.519 2.9443 6.0366 5.7557 0.1622 0.88096 0.1367 1.7753-0.07031 2.466-0.20358 0.67925-0.55474 1.2916-1.0268 1.7905-0.68978 0.72904-1.5534 1.1807-2.5807 1.3497-0.18488 0.03041-0.49817 0.04276-1.3921 0.0549-1.1267 0.0153-1.1568 0.01694-1.2914 0.07058-0.38881 0.15492-0.66519 0.4502-0.78767 0.84154-0.05647 0.18044-0.06249 0.4462-0.01375 0.60684 0.06424 0.21169 0.22574 0.49095 0.39281 0.67923 0.25267 0.28474 0.33514 0.78738 0.20004 1.2192-0.12444 0.39775-0.48629 0.76578-0.89794 0.91329-0.12664 0.04538-0.20663 0.05443-0.52206 0.05908-0.20488 3e-3 -0.42117 0.0013-0.48065-0.0038zm-3.9809-8.0999c0.21609-0.05573 0.41317-0.17007 0.57892-0.33586 0.50127-0.5014 0.50072-1.2513-0.0013-1.7535-0.16358-0.16362-0.41578-0.30243-0.62942-0.34643-0.74477-0.15337-1.48 0.45459-1.48 1.2238 0 0.79172 0.77711 1.4066 1.5318 1.212zm9.6855 0.0018c0.23796-0.062 0.40069-0.15616 0.58574-0.33893 0.51673-0.51037 0.51646-1.2434-6.36e-4 -1.7504-0.43562-0.42714-1.0379-0.49295-1.5287-0.16702-0.68266 0.45338-0.77838 1.3457-0.20579 1.9184 0.30868 0.30876 0.75629 0.44038 1.1494 0.33797zm-7.0551-3.5225c0.20442-0.04716 0.4184-0.17248 0.59341-0.34754 0.25389-0.25396 0.37165-0.52806 0.37222-0.86637 5.45e-4 -0.34574-0.10932-0.60103-0.37441-0.86976-0.45296-0.45917-1.084-0.51005-1.5993-0.12894-0.38381 0.2839-0.58515 0.78145-0.49322 1.2188 0.09308 0.44288 0.42558 0.81719 0.85643 0.96414 0.17242 0.05881 0.46094 0.07207 0.64483 0.02965zm4.4799-0.02266c0.42899-0.13254 0.78178-0.52372 0.87581-0.97113 0.16803-0.79948-0.59908-1.594-1.4074-1.4576-0.4874 0.08223-0.93931 0.50921-1.037 0.97976-0.03765 0.1814-0.01748 0.49091 0.04292 0.6585 0.13549 0.376 0.48387 0.69779 0.87152 0.80502 0.17075 0.04723 0.47609 0.04043 0.65409-0.01456z" fill="#fff"/>
 </g>
</svg>
