<?xml version="1.0" encoding="UTF-8"?>
<svg width="16mm" height="16mm" version="1.1" viewBox="0 0 16 16" xmlns="http://www.w3.org/2000/svg" xmlnsCc="http://creativecommons.org/ns#" xmlnsDc="http://purl.org/dc/elements/1.1/" xmlnsRdf="http://www.w3.org/1999/02/22-rdf-syntax-ns#" >

 <g transform="translate(-.10477 -.1067)">
  <path d="m0.41933 16.132c-0.038521-0.01216-0.11556-0.06759-0.1712-0.12316-0.13124-0.13112-0.16634-0.24142-0.12972-0.40773 0.04359-0.19798 0.24456-0.82282 0.85652-2.6631l0.59451-1.7878 4.3827-4.3837c4.6306-4.6317 5.6563-5.6503 6.0936-6.0517 0.46042-0.42263 0.55194-0.4814 0.8322-0.53444 0.38258-0.072401 0.84862 0.00733 1.1258 0.1926 0.21818 0.14586 1.4912 1.3974 1.8042 1.7737 0.22263 0.26769 0.34319 0.75381 0.28029 1.1301-0.03051 0.18253-0.10313 0.39285-0.18674 0.54086-0.08524 0.15088-1.3535 1.4354-6.5406 6.6245l-4.2489 4.2505-1.881 0.62102c-2.0869 0.68898-2.2039 0.72683-2.4614 0.79602-0.19604 0.05269-0.24421 0.05576-0.35019 0.02231z" fill-opacity="0" stroke-width=".020022"/>
 </g>
 <path d="m0.34504 15.905c-0.037496-0.011861-0.1125-0.065945-0.16666-0.12018-0.12776-0.12794-0.16193-0.23558-0.12628-0.39786 0.042429-0.19318 0.23807-0.8029 0.83382-2.5986l0.57876-1.7445 4.2665-4.2776c4.5079-4.5196 5.5063-5.5135 5.9321-5.9053 0.44822-0.4124 0.53731-0.46975 0.81014-0.5215 0.37244-0.070649 0.82613 0.007154 1.0959 0.18794 0.2124 0.14233 1.4517 1.3636 1.7564 1.7307 0.21673 0.26121 0.3341 0.73557 0.27286 1.1028-0.02971 0.17811-0.10039 0.38334-0.18179 0.52777-0.082969 0.14723-1.3176 1.4006-6.3672 6.4642l-4.1363 4.1477-1.8312 0.60599c-2.0316 0.6723-2.1455 0.70924-2.3961 0.77675-0.19085 0.05141-0.23773 0.0544-0.34091 0.02177z" fill="#fff" stroke-width=".019514"/>
</svg>
