
<svg width="19.77mm" height="22.714mm" version="1.1" viewBox="0 0 19.77 22.714" xmlns="http://www.w3.org/2000/svg" xmlnsCc="http://creativecommons.org/ns#" xmlnsDc="http://purl.org/dc/elements/1.1/" xmlnsRdf="http://www.w3.org/1999/02/22-rdf-syntax-ns#">

 <g transform="matrix(.045553 0 0 .045362 4.8575 2.784)" fill="#020202" stroke-width="0">
  <path d="m-83.211 298.9c-1.2783 7.0252-2.471 14.065-3.6406 21.109-2.1112 12.368-3.6972 24.815-5.7593 37.191-1.692 9.9299-3.9018 19.756-6.0764 29.588-1.7208 7.7775-3.0897 15.627-4.6025 23.447-1.0699 5.2328-2.1496 10.458-2.8496 15.755-0.10016 2.3241-1.0402 5.864-0.0282 8.0795 1.1089 2.4276 1.6014 2.3241 3.7088 3.6343 4.5111 1.5622 9.354 1.6879 14.082 1.6389 5.579-0.12793 10.756-2.0815 15.753-4.3869 5.3727-2.869 10.808-5.5428 16.483-7.7617 7.0268-2.7034 14.216-4.8665 21.547-6.5622 6.8186-1.6386 13.794-2.2833 20.753-2.98 7.3593-0.52962 14.565-1.967 21.709-3.7438 7.0666-1.8061 13.952-4.2012 20.665-7.0367 5.8187-2.696 11.922-4.6123 18.108-6.2463 3.3013-0.80238 6.6188-1.5522 9.5713-3.2798 2.1876-1.4976 3.8828-3.5153 5.4835-5.5978 2.7861-4.2668 5.5482-8.5202 8.6288-12.587 9.8121-13.384 20.168-26.365 30.361-39.46 10.337-13.289 20.241-26.907 30.389-40.34 5.7964-7.6726 11.689-15.272 17.533-22.908 20.666-26.63 41.149-53.401 61.289-80.431 12.669-17.33 24.993-34.912 37.862-52.096 7.0314-9.3884 11.63-15.253 18.799-24.515 16.617-20.953 33.331-41.829 49.068-63.457 4.0734-6.4454 9.2328-12.746 11.168-20.297 0.29681-1.1582 0.55713-2.3447 0.57658-3.5401 0.0217-1.3396-0.30271-2.6623-0.45408-3.9935-0.49061-1.3672-0.87492-2.7773-1.4719-4.1014-1.5966-3.5413-3.2623-5.6471-5.6447-8.8072-4.4875-5.9523-9.24-10.944-14.359-16.339-12.24-12.538-26.307-23.042-40.393-33.382-11.874-7.7404-22.937-16.658-34.866-24.307-4.1898-1.8783-4.8325-2.7147-9.7066-2.534-7.9524 0.29488-15.147 6.1107-21.285 10.507-15.495 12.087-29.24 26.178-42.796 40.347-16.75 17.763-33.24 35.77-49.388 54.083-12.894 14.485-25.528 29.199-37.642 44.342-9.4207 12.476-19.456 24.464-29.146 36.728-9.4591 12.149-18.71 24.454-27.851 36.844-9.1915 12.05-18.347 24.117-27.224 36.402-4.604 6.6059-9.8765 12.704-14.693 19.148-3.0244 4.0466-3.1971 4.443-5.9565 8.6327-4.7766 7.9-9.9817 15.519-15.222 23.115-3.917 5.7757-7.6986 11.642-11.495 17.498-2.8932 4.2434-5.1096 8.8802-7.428 13.447-1.7501 3.4705-3.6139 6.8866-6.1002 9.8866-0.80996 1.2224-2.2381 2.0531-2.9884 3.3146-0.98176 1.6504-0.64916 2.1285-1.2288 3.9616-0.19227 0.60802-0.50021 1.1732-0.75031 1.7597-1.1426 2.3176 2.135 3.9335 3.2776 1.6159 0.26969-0.46776 0.44396-1.0055 0.80906-1.4032 0.62117-0.67675 1.8376-1.1 2.5422-1.6764 1.2362-1.0112 2.1274-2.458 3.2973-3.5368 2.7186-3.3892 4.9166-7.1135 6.8206-11.018 2.2442-4.3589 4.3223-8.8228 7.1009-12.881 3.7661-5.809 7.5425-11.612 11.445-17.33 5.2234-7.6569 10.489-15.286 15.273-23.231 0.89856-1.3679 1.7662-2.7566 2.6957-4.1037 5.5758-8.081 12.172-15.399 17.866-23.394 8.862-12.265 18.045-24.28 27.297-36.252 9.1551-12.305 18.344-24.585 27.926-36.564 9.5597-12.338 19.669-24.236 29.056-36.71 12.024-15.061 24.676-29.614 37.425-44.062 16.217-18.134 32.397-36.308 49.208-53.898 13.286-13.856 26.712-27.674 41.855-39.539 4.3078-3.1281 5.5194-4.2361 9.996-6.6944 2.6852-1.4745 6.6776-3.2743 9.8859-2.5569 1.2274 0.27444 2.3165 0.98012 3.4747 1.4702 1.3878 0.88134 2.7995 1.7261 4.1634 2.644 4.1374 2.7844 6.4856 4.6724 10.602 7.6586 6.0308 4.3744 6.8744 4.8846 13.023 9.1849 2.2363 1.564 4.4661 3.1371 6.6992 4.7057 6.2341 4.3837 7.6954 5.3106 13.799 10.018 9.005 6.9462 17.544 14.486 25.767 22.337 6.4826 6.9162 3.8862 3.9651 9.8414 11.012 3.8064 4.5043 7.9131 8.9289 9.7222 14.676 0.15325 0.69087 0.41871 1.3661 0.45972 2.0726 0.18796 3.2387-1.6242 6.5378-3.1269 9.2291-2.4551 4.3972-4.4937 7.2347-7.3634 11.535-15.525 21.69-32.362 42.38-48.838 63.346-7.2222 9.3303-11.806 15.176-18.891 24.636-12.864 17.177-25.206 34.737-37.836 52.086-20.075 27.043-40.554 53.779-61.166 80.414-5.852 7.6633-11.754 15.288-17.569 22.98-10.127 13.398-19.984 27.001-30.287 40.267-10.152 13.176-20.547 26.175-30.361 39.607-3.0105 4.0939-5.8887 8.2594-8.5477 12.59-1.0938 1.4705-2.2712 2.8731-3.7146 4.0186-2.3126 1.5489-5.3116 1.7375-7.8738 2.6583-6.4669 1.729-12.818 3.8067-18.928 6.5668-6.4085 2.73-12.989 5.0154-19.742 6.7432-6.8507 1.7218-13.755 3.1303-20.82 3.6189-7.2204 0.72298-14.457 1.4081-21.531 3.1087-7.6242 1.7701-15.095 4.0331-22.403 6.8511-5.7669 2.2774-11.352 4.9153-16.792 7.8932-4.2219 1.9143-8.5615 3.7016-13.267 3.8371-3.7458 0.0501-7.5276-0.0757-11.187-0.9524-0.13716 4e-3 -0.30241-0.0702-0.41148 0.0132-0.11411 0.0871-0.0149 0.47892-0.13944 0.40751-0.70359-0.40346 0.14863-5.1705 0.179-5.8545 0.70872-5.1709 1.8109-10.273 2.8053-15.395 1.5198-7.7619 2.8479-15.561 4.5393-23.288 2.233-9.9354 4.4174-19.885 6.1272-29.927 2.0308-12.389 3.6799-24.833 5.6097-37.237 1.1292-7.1803 2.4343-14.383 2.6454-21.663 0.28521-3.4858-4.6445-3.8892-4.9297-0.40333z" opacity=".98"/>
  <path d="m-79.041 299.66c4.5149-1.3016 9.0468-2.5425 13.529-3.9545 4.5918-1.4425 9.0067-3.3701 13.549-4.9534 1.417-0.0706-0.52446 0.0333-0.64439-0.0169-0.44835-0.18772-0.6461-0.79004-1.1043-0.95231-0.16624-0.0589-0.13203 0.32792-0.17852 0.49802-0.28143 1.0298-0.50948 2.0735-0.77269 3.1081-1.3134 5.081-2.2655 10.241-3.1689 15.406-0.54685 3.4533-1.4938 6.8667-1.6131 10.374 0.09381 0.47282 0.03587 1.0036 0.28143 1.4184 0.39715 0.67082 0.85452 1.4381 1.5794 1.7248 2.7545 1.0897 6.4359-1.8091 8.5629-3.1728 3.552-2.4377 6.6286-5.4671 9.9138-8.2322 2.2113-1.8612 3.4919-2.7908 5.7998-4.5477 5.4587-3.9786 10.951-7.9196 15.96-12.461 1.855-1.4414 3.14-3.6407 5.1473-4.9007 0.16683-0.1047-0.25698 0.39201-0.45352 0.37883-0.82131-0.055-1.6018-0.38013-2.4027-0.5702-0.19816-0.23652-0.30181-0.80722-0.5945-0.70954-0.3151 0.10515-0.12495 0.65278-0.20296 0.97565-0.60954 2.523-1.4192 5.0036-2.1127 7.5045-1.3202 4.9173-2.3236 9.9142-3.1972 14.928-0.37074 2.8026-1.1031 5.584-1.0282 8.4244 0.25876 0.59944 0.29793 1.3539 0.77628 1.7983 0.64498 0.59914 1.52 0.96644 2.3836 1.1371 1.4139 0.27951 6.1925-2.1298 7.4764-2.6861 7.504-3.194 14.03-8.1078 20.617-12.823 6.8155-4.8425 13.459-9.924 20.33-14.688 0.53167-0.32158 1.0562-0.6553 1.595-0.96473 0.35768-0.20542 0.71946-0.40529 1.0935-0.57922 0.16912-0.0787 0.71689-0.1605 0.53105-0.17627-0.63811-0.0541-1.3405 0.33031-1.9203 0.0584-2.2479-1.0543-0.62457-2.1188-1.644-1.3478-3.3986 6.0354-7.2445 11.808-10.96 17.651-2.863 4.5317-5.7061 9.0907-7.9996 13.945-1.2904 2.731-1.7995 4.121-2.9176 6.9103-1.9087 5.0712-3.887 10.115-6.4297 14.905-0.60452 1.4409-1.7696 2.6144-2.3729 4.0528-0.14025 0.33443-0.57783 0.76136-0.33859 1.0339 1.0666 1.2151 2.5623 1.9726 3.8435 2.9589 3.8135-2.1928 7.0606-5.2771 10.355-8.1677 4.6842-4.3078 9.3309-8.6551 14.05-12.925 4.4893-4.2212 9.3304-8.0332 14.099-11.926 4.1747-3.4004 8.042-7.1559 12.167-10.613 1.7019-0.8595-0.36099 0.22905-0.7434 0.0948-0.80731-0.28345-1.2699-1.1617-1.9972-1.6125-0.21943-0.136-0.55457 0.72646-1.1062 1.6536-0.41544 0.69826-0.85371 1.3827-1.2806 2.074-2.574 3.9234-5.4705 7.6232-8.0084 11.572-1.9519 3.0367-2.2569 3.6943-4.005 6.8222-3.0087 5.7379-5.8925 11.539-8.9847 17.233-2.2763 4.221-4.5569 8.4386-6.9096 12.618-0.83115 1.5176-1.8079 2.9539-2.6516 4.4638-0.11379 0.20362-0.48446 0.46246-0.31638 0.62423 1.2637 1.2161 2.8162 2.091 4.2243 3.1365 3.9393-3.1505 7.8037-6.381 11.873-9.3659 4.3321-3.173 8.9248-5.93 13.768-8.2392 2.914-1.1836 2.0085 0.33464-0.18164-1.4243-0.23091-0.18542-0.0834-0.7322-0.36969-0.80787-0.22434-0.0593-0.19095 0.42299-0.28642 0.63449-1.9156 4.5204-3.9813 8.973-6.1132 13.395-1.6285 3.4486-3.6158 6.731-5.0967 10.248-0.0549 0.57256-0.44521 1.2155-0.16475 1.7177 0.58499 1.0475 1.4889 1.9762 2.5453 2.5448 0.6149 0.331 1.3988 0.0143 2.0944-0.0475 2.0391-0.18108 4.1026-0.69152 6.1187-1.039 3.0101-0.44542 5.9666-1.2076 8.967-1.697 0.78471 0.0745-0.10756 0.17965-0.87146-0.31274-0.68901-0.4441-0.63059-1.2762-0.75181-0.11832-0.57071 3.3519-0.83568 6.7404-0.92204 10.136-0.0843 2.7532 0.19462 5.4973 0.26176 8.2469-4e-3 1.594 0.0277 3.1907 0.11827 4.7823 0.86804 1.1855 0.47361 0.56092 1.1792 1.8763 0.8753 2.641 4.6103 1.4032 3.735-1.2379 0.2627-0.4631 0.0773-0.15661 0.60972-0.88485-0.0475-1.5658-0.084-3.132-0.12991-4.6978-0.0892-2.6463-0.31932-5.288-0.31305-7.9376 0.0947-3.3011 0.38922-6.578 0.91345-9.8407 0.25102-3.5644-0.88991-5.8157-4.8593-5.3091-2.948 0.65518-5.9147 1.2206-8.8919 1.728-0.42091 0.0802-6.0299 0.99756-5.9266 1.207 1.4122 2.8654 1.7564 1.3057 1.1945 2.9276 1.4125-3.4387 3.4608-6.5767 4.9851-9.9647 2.2391-4.5808 4.3473-9.2209 6.3198-13.923 0.37874-1.1648 1.1296-2.7701 0.39692-4.0266-1.7228-2.9548-4.4338-1.931-6.8212-0.95311-5.1641 2.426-10.006 5.4566-14.628 8.7967-3.895 2.9022-7.7069 5.908-11.396 9.0689 1.0318 1.2657 1.979 2.6054 3.0954 3.7971 0.081 0.0865 0.10836-0.21096 0.16806-0.31335 0.14894-0.25548 0.3056-0.50639 0.4577-0.75999 0.75961-1.2667 1.508-2.54 2.264-3.8088 2.4164-4.1853 4.6312-8.482 6.9827-12.704 3.0783-5.6709 5.9713-11.437 8.919-17.176 1.5422-2.7163 2.1135-3.8075 3.8098-6.4494 2.5751-4.0105 5.4952-7.7868 8.1284-11.758 0.76874-1.2594 3.6058-5.4427 3.1153-7.0404-1.1793-3.8411-3.292-3.7714-5.897-1.976-4.1032 3.4466-7.9632 7.1738-12.112 10.568-4.8374 3.9499-9.7468 7.8193-14.302 12.101-4.6989 4.2524-9.328 8.5798-13.99 12.872-2.7612 2.4246-5.59 4.7752-8.4963 7.0211 0.9995 1.0752 2.1174 2.0514 2.9985 3.2256 0.1048 0.13965-0.39603 0.45702-0.22228 0.47432 0.17857 0.0177 0.16848-0.31716 0.26185-0.4704 0.73996-1.2145 1.5439-2.3912 2.2139-3.6482 2.6252-4.9627 4.7115-10.17 6.6716-15.427 1.032-2.5818 1.544-3.9739 2.7304-6.4945 2.2088-4.6925 4.9671-9.0899 7.7299-13.469 3.9048-6.1408 7.9746-12.203 11.441-18.605 0.57947-1.9947 1.5456-3.4313-0.6935-5.2765-2.1893-1.8042-5.3448 0.99015-7.0324 1.9729-6.8949 4.7832-13.569 9.874-20.4 14.747-6.2601 4.5253-12.46 9.2384-19.619 12.282-0.9664 0.41878-3.0257 1.3144-4.0842 1.7624-0.29545 0.12502-0.62418 0.18664-0.89012 0.36611-0.05085 0.0343 2.5549 1.5053 1.7499 2.2406-0.21266-2.4367 0.7816-4.8718 0.95451-7.2813 0.84222-4.843 1.8109-9.6697 3.0828-14.42 0.56516-2.0399 1.1886-4.0644 1.7445-6.1065 0.15623-0.57388 0.80579-2.9813 0.76948-3.6431-0.05033-0.91696-0.35883-1.8013-0.53824-2.702-0.99464-0.43884-1.9075-1.1643-2.9839-1.3165-0.89348-0.12634-2.1644 1.0405-2.7474 1.5746-1.4806 1.3565-2.7966 2.886-4.2733 4.2468-4.8443 4.4894-10.252 8.293-15.566 12.199-2.5495 1.9432-3.6252 2.7151-6.0754 4.7731-3.0972 2.6014-5.9664 5.488-9.3063 7.7916-1.487 0.97213-1.8721 1.2632-3.3416 2.0901-0.28723 0.16163-0.93118 0.12636-0.87944 0.45185 0.12244 0.77018 2.4707 0.0364 1.7308 2.0192 0.1615-3.2722 1.0538-6.4654 1.5114-9.6994 0.88191-5.0445 1.8004-10.09 3.1216-15.041 0.30572-1.2455 1.3239-4.4117 0.99718-5.6492-0.79529-3.0125-2.2128-3.6461-4.969-2.9689-4.4741 1.6235-8.7463 3.7903-13.283 5.261-4.4819 1.4659-9.0054 2.786-13.52 4.1458-2.9961 0.9987-1.5837 5.2358 1.4124 4.2371z" opacity=".98"/>
  <path d="m-86.942 375.23c4.3564-2.1965 9.4157-1.9796 14.137-1.55 3.7607 0.47916 7.4386 1.425 10.676 3.4582 1.7811 1.1186 2.5136 1.846 4.0964 3.2022 3.2788 3.0576 5.7332 6.8204 8.0932 10.596 2.0582 3.3754 3.1254 7.1546 3.9683 10.98 0.73733 3.2626 1.1155 6.5751 1.3465 9.9056 0.19573 1.9352 0.0723 3.8556-0.13694 5.7797-0.45526 2.2988-0.52575 2.1771 1.1065 4.1634-0.01553 0.22-0.03105 0.44-0.04657 0.66-0.36424 1.1056 1.1994 1.6208 1.5636 0.51512 0.13641-0.2412 0.27282-0.48239 0.40923-0.72356 0.39018-0.13023 0.78179-0.25625 1.1706-0.39066 0.29981-0.10366 0.64269-0.13123 0.89501-0.3235 0.8615-0.65649 0.65363-2.2908 0.91422-3.1976 0.28449-2.2921 0.36344-4.5974 0.16337-6.9023-0.25296-3.6362-0.66677-7.2568-1.4945-10.814-1.0257-4.4609-2.2905-8.8858-4.7562-12.797-2.6409-4.3399-5.5661-8.5711-9.3778-11.976-1.9395-1.6162-2.9454-2.5756-5.1502-3.8963-3.9922-2.3915-8.4805-3.483-13.079-3.9049-6.0404-0.24386-12.581-0.35647-17.675 3.4044-2.6948 2.2457 0.48106 6.0568 3.1759 3.8111z" opacity=".98"/>
  <path d="m-88.3 434.76c-1.9595-5.5413-3.1766-11.29-4.1874-17.067-0.95629-5.7175-1.3626-11.505-2.0488-17.257-0.43925-3.1305-1.0814-6.1718-1.2675-9.3352-0.15178-2.5743-3.7923-2.3596-3.6406 0.21466 0.19028 3.2199 0.0275 6.4532 0.50989 9.6454 0.69715 5.8378 1.1164 11.709 2.0721 17.514 1.0986 6.0247 2.4052 12.022 4.4709 17.801 1.0715 2.893 5.1629 1.3777 4.0914-1.5153z" opacity=".98"/>
  <path d="m-82.198 429.06c-1.4296-5.5684-2.3881-11.245-3.2122-16.93-0.72982-6.0811-1.3104-12.179-2.0882-18.255-0.44765-2.847-0.52681-5.7386-0.87025-8.5957-0.0995-0.8278-0.30344-1.6414-0.39-2.4707-0.15683-1.5022-0.0881-2.5206-0.0497-3.994 0.0678-2.6562-3.6886-2.7521-3.7564-0.096-0.0246 0.98317-0.0834 3.418-0.11592 4.2955-0.0332 0.89456-0.14685 1.7881-0.11989 2.6828 0.0882 2.9262 0.80354 5.8226 0.99781 8.7395 0.80899 6.0861 1.5442 12.18 2.2992 18.273 0.80676 5.8508 1.6963 11.699 3.219 17.415 0.7519 2.8897 4.8385 1.8263 4.0866-1.0633z" opacity=".98"/>
  <path d="m-72.388 432.1c-1.7342-5.0584-2.8965-10.266-3.8478-15.522-1.2541-7.1705-2.3194-14.372-3.4447-21.564-0.98467-5.7342-1.6926-11.504-2.1481-17.302-0.0494-0.7969-0.10003-1.5937-0.14821-2.3908-0.0637-1.0539-0.11378-2.9864-0.39764-4.053-0.27035-1.0157-1.035-1.8557-1.2999-2.8728-0.0813-0.31215 0.0384-0.64402 0.0577-0.96602 0.0643-0.22717 0.12862-0.45431 0.19293-0.68149 0.28303-1.0212-1.1611-1.4214-1.4442-0.40026-0.0754 0.27692-0.1508 0.55383-0.2262 0.83074-0.0993 0.37584-0.14656 0.76946-0.29799 1.1275-0.70052 1.6564-1.0426 1.2971-1.3838 3.1883-0.39176 2.1713 0.26588 4.4256 0.21563 6.5969 0.48334 5.9229 1.1925 11.823 2.2888 17.667 1.2098 7.2188 2.3155 14.454 3.5457 21.669 1.0881 5.521 2.1317 11.15 4.488 16.297 1.1484 2.7222 4.9983 1.0981 3.8498-1.6242z" opacity=".98"/>
  <path d="m-63.557 426.91c-1.1277-4.5105-1.7907-9.1219-2.5432-13.706-0.9304-7.1636-2.4535-14.218-3.958-21.277-1.272-5.9851-2.2602-12.023-3.3496-18.042-0.49816-1.7065-0.22935-3.9096-1.3492-5.4254-0.90708-1.2278-1.6964-0.69803-1.0244-2.3642 0.18798-0.47577-0.48488-0.7416-0.67286-0.26583-0.2242 0.57762-0.3746 1.0583-0.77093 1.5726-0.37953 0.4926-0.96963 0.82849-1.2532 1.3819-0.92695 1.8094 0.0987 4.1551 0.25553 5.9796 1.1158 6.0638 2.1399 12.147 3.4942 18.164 1.5034 6.9816 3.037 13.959 3.9743 21.046 0.80092 4.8099 1.5264 9.6763 2.9952 14.337 0.99045 2.9714 5.1926 1.5706 4.2021-1.4007z" opacity=".98"/>
  <path d="m-55.497 426.85c-0.60346-4.5662-1.7238-9.0516-2.754-13.537-1.4482-6.4566-2.2027-13.041-2.788-19.624-0.56076-6.4142-0.75112-12.854-1.2708-19.27-1.4453-2.419-1.2936-4.9439-1.3588-7.6272-0.04659-1.9152-2.7551-1.8493-2.7085 0.0659 0.06553 2.6913 0.37122 5.2835-0.79761 7.8307 0.19354 6.4941 0.63686 12.981 1.1365 19.458 0.63941 6.8132 1.5465 13.609 3.0682 20.287 1.0917 4.4526 2.3113 8.8757 3.6239 13.268 0.60234 2.7217 4.4514 1.8699 3.849-0.85182z" opacity=".98"/>
  <path d="m-46.42 418.88c-0.09122-0.50922-0.16031-1.0229-0.27366-1.5276-1.2741-5.6732 0.20603 1.7959-1.1601-4.9315-0.68414-3.3689-1.2165-6.7639-1.7569-10.158-0.69569-4.8561-1.3002-9.7273-2.1159-14.566-0.20507-1.2163-0.30744-2.4587-0.65572-3.642-0.33309-1.1317-0.91726-2.1738-1.3759-3.2608-0.99722-3.8641-0.65426-1.9922-1.0968-5.6027-0.25161-2.0518-3.1533-1.696-2.9017 0.35584 0.45074 3.6741 0.30227 1.7373 0.3886 5.8146-0.10201 1.1809-0.34051 2.3579-0.30602 3.5426 0.03577 1.2292 0.33262 2.4369 0.51543 3.653 0.73312 4.8766 1.5925 9.7349 2.3766 14.603 1.0913 5.8062 1.9458 11.917 4.2687 17.372 1.1689 2.8945 5.2624 1.2414 4.0934-1.6531z" opacity=".98"/>
  <path d="m-101.6 434.46c2.5909-2.1053 5.104-4.3527 8.0055-6.0373 2.2614-1.313 4.3367-2.1491 6.7319-3.2103 7.6812-2.7177 15.382-5.3061 22.843-8.5949 6.3359-2.6812 12.635-5.456 18.642-8.8197 1.4427-1.2282 2.9485-2.3724 4.499-3.459 2.2351-1.5677 0.01807-4.7287-2.2171-3.161-1.4422 1.0126-2.9374 1.9101-4.6096 2.5084-5.8451 3.3476-12.004 6.0598-18.179 8.7351-3.4578 1.5491-6.8652 3.1975-10.4 4.5685-4.8975 1.8997-2.9941 1.0585-8.0537 2.8158-1.418 0.49252-2.822 1.0245-4.233 1.5368-2.8798 1.2662-4.7581 1.9675-7.4303 3.6283-3.0063 1.8685-5.6517 4.3526-8.1616 6.8223-1.8859 1.8119 0.67657 4.479 2.5624 2.667z" opacity=".98"/>
  <path d="m-99.746 422.8c3.3981-1.1159 6.842-2.1694 10.149-3.5413 3.5041-1.4536 4.8871-2.2735 8.3044-4.0539 5.8587-3.2716 11.435-7.0136 17.265-10.332 3.1923-1.817 4.6836-2.5654 7.8934-4.249 3.108-1.7089 6.3881-3.1351 9.2781-5.2193 3.8324-2.7637 0.09762-0.57147 3.5097-2.457 2.2022-1.2169 0.48121-4.3313-1.721-3.1144-3.4473 1.905 0.46947-0.13247-3.9548 1.6739-3.2723 1.3361-6.2075 3.3466-9.3777 4.8868-8.5115 4.652-16.674 9.8636-25.004 14.825-5.6653 3.0501-11.397 6.0392-17.464 8.2199-2.3771 0.79235-1.2565 4.154 1.1206 3.3617z" opacity=".98"/>
  <path d="m-98.48 414.09c5.24-4.2518 10.429-8.3161 16.178-11.873 6.2888-3.5383 12.93-6.3757 19.359-9.6412 3.1306-1.7915 6.4747-3.365 9.1574-5.8366 5.4557-5.0265-1.1127 0.10192 3.677-3.5042 1.5927-1.1998-0.10405-3.4523-1.6968-2.2525-3.162 2.3833-0.04499 0.26831-4.2659 2.2854-3.1421 1.5016-5.8817 3.6842-8.966 5.2881-6.4616 3.4551-13.248 6.2606-19.594 9.937-5.8341 3.6854-11.317 7.8508-16.308 12.631-2.0975 1.7394 0.36237 4.7057 2.4599 2.9663z" opacity=".98"/>
  <path d="m-92.158 398.69c2.6582-1.8428 5.2109-3.84 7.7722-5.8137 1.2969-0.99933 2.6507-1.9307 3.878-3.0143 8.652-7.6386-1.4461 0.19995 7.2376-6.3091 1.0497-0.74271 2.0995-1.4854 3.1492-2.2281 1.8792-1.3297-0.0011-3.9873-1.8804-2.6577-1.0584 0.74893-2.1168 1.4979-3.1753 2.2468-5.2112 3.628-2.4548 1.9142-8.2949 5.0994-1.3812 0.8936-2.6245 1.9844-3.9236 2.9936-2.6134 2.0302-5.2905 4.0383-7.6419 6.3754-2.3389 2.0357 0.54003 5.3434 2.8789 3.3077z" opacity=".98"/>
  <path d="m142.97 3.1731c-3.0408 4.0109-4.5912 9.033-5.3433 13.966-0.20153 1.3217-0.27855 2.6594-0.41785 3.9891-0.27813 5.9075 0.45106 11.797 2.0314 17.49 0.93927 3.3837 1.555 4.7933 2.7888 8.06 2.5689 6.692 5.9906 12.992 10.566 18.532 0.99697 1.207 2.0917 2.3298 3.1376 3.4948 4.137 4.1218 8.747 7.7786 13.725 10.837 2.8711 1.7643 4.9473 2.8111 7.9192 4.3938 5.5243 2.8585 10.963 5.904 16.613 8.5147 3.5453 1.6382 4.3718 1.8912 7.9688 3.2774 7.2175 2.5209 14.683 4.2334 22.211 5.507 6.7718 0.95901 13.581 1.598 20.416 1.8367 5.5712 0.1667 11.135-0.15842 16.675-0.71638 4.8947-0.5199 9.6416-1.8256 14.287-3.4056 5.0057-1.8588 9.6082-4.5294 14.046-7.4619 2.6551-2.5598 1.4056-1.2663 3.7616-3.8678 2.5511-1.6111 0.27273-5.2189-2.2784-3.6078-3.5022 1.1308-1.7971 0.46782-5.1172 1.984-3.9673 2.6292-8.0504 5.0997-12.55 6.725-4.1563 1.4409-8.4231 2.6305-12.808 3.1117-5.2413 0.53059-10.505 0.84969-15.776 0.74672-6.5559-0.25728-13.107-0.77104-19.601-1.725-7.1108-1.1467-14.147-2.764-20.993-5.0229-8.2652-3.1883-16.129-7.2312-23.907-11.46-2.6234-1.3833-4.9148-2.541-7.4504-4.0748-4.5495-2.752-8.7406-6.0718-12.562-9.7622-0.9465-1.0232-1.9382-2.0063-2.8395-3.0695-4.2716-5.0391-7.4136-10.833-9.8933-16.93-1.212-3.067-1.7224-4.1472-2.6423-7.3256-1.4646-5.0606-2.0928-10.298-1.9865-15.563 0.0848-1.1519 0.11612-2.309 0.25434-3.4558 0.50427-4.183 1.7727-8.382 3.6949-12.125 2.045-2.7792-1.8853-5.6713-3.9303-2.8921z" opacity=".98"/>
  <path d="m113.33 35.247c-2.4282 4.5398-3.1392 9.643-3.7524 14.68-0.46024 5.2191-0.0832 10.564 1.2997 15.632 0.96626 3.5414 1.6814 4.8947 3.1164 8.2471 3.1725 6.322 6.0689 12.893 10.095 18.744 0.77798 1.1305 1.6519 2.1919 2.4778 3.2878 0.9792 1.0701 1.9257 2.1711 2.9376 3.2104 2.1563 2.2149 3.883 3.6682 6.1576 5.7527 3.171 2.906 6.2673 5.8912 9.4134 8.824 5.98 5.5929 12.872 9.951 20.186 13.555 7.3626 3.2061 15.233 4.9764 22.997 6.9076 7.6557 2.1319 15.57 2.7544 23.48 2.9146 6.5576 0.0718 13.048-0.77118 19.521-1.7074 4.4621-0.66168 8.918-1.4532 13.243-2.7482 3.563-1.1699 6.8926-2.9225 10.244-4.5811 1.9496-0.96997 3.9144-1.9133 5.8354-2.9398 0.66572-0.35575 1.3665-0.65882 1.9807-1.0976 4.6404-3.3147-0.82447-0.28756 4.1599-2.8404 2.89-1.3737 0.94731-5.4609-1.9427-4.0872-5.5463 2.4382 1.1106-0.27258-4.873 1.4631-2.8228 0.81885-5.2509 2.7286-7.9653 3.8063-3.0393 1.4898-6.0477 3.0704-9.2416 4.2122-4.0427 1.1911-8.1961 1.9404-12.359 2.5754-6.1241 0.91788-12.275 1.7379-18.484 1.656-7.4541-0.1276-14.896-0.66368-22.136-2.5764-7.3589-1.7851-14.82-3.3973-21.834-6.3134-6.8052-3.3152-13.191-7.3595-18.776-12.512-6.0062-5.6375-12.177-11.118-17.906-17.036-0.73901-0.94138-1.5239-1.8485-2.217-2.8241-3.8984-5.4876-6.782-11.913-9.8803-17.866-1.0581-2.3995-2.1595-4.6924-2.9186-7.2116-1.3468-4.4696-1.643-9.2209-1.4096-13.856 0.47707-4.5333 1.0894-9.0719 2.7608-13.346 1.362-2.9762-2.847-4.9023-4.2089-1.9261z" opacity=".98"/>
  <path d="m123.89 31.33c-2.1331 7.6409-0.30829 15.82 1.4334 23.35 1.6858 6.7546 4.4136 13.165 8.3698 18.905 1.9944 2.8936 3.6266 4.7016 5.8764 7.3693 3.8659 4.5815 7.9675 8.9696 12.738 12.624 2.6004 1.9921 4.0519 2.8546 6.7635 4.6037 5.1784 2.9751 10.471 5.765 15.855 8.3506 4.9824 2.2647 10.221 3.8683 15.302 5.8846 5.7475 2.6 11.817 4.1282 17.984 5.3198 5.7281 1.0606 11.483 1.98 17.315 2.0594 5.817 0.36736 11.67 0.21092 17.482-0.19245 5.94-0.53292 11.81-1.7064 17.564-3.251 0.97465-0.29974 5.1002-1.5199 6.0444-2.001 3.2003-2.2216 1.574-1.2649 4.8546-2.9112 2.4161-0.85548 1.2063-4.2724-1.2098-3.4169-3.5888 0.78988-1.7353 0.50736-5.5653 0.81354-1.9472 0.40246-3.6899 1.5526-5.672 1.8469-5.396 1.5009-10.888 2.6716-16.471 3.2092-5.5783 0.50703-11.173 0.52615-16.772 0.53471-5.5334-0.46295-11.078-0.85428-16.52-2.0371-5.8259-1.1635-11.576-2.6141-17.021-5.0524-4.9667-1.9657-10.081-3.5442-14.956-5.7413-5.1869-2.4677-10.286-5.134-15.273-7.9836-3.2865-2.1119-6.5235-4.2652-9.4792-6.8363-3.2364-2.8152-6.0235-6.0803-8.8657-9.2774-1.5152-1.7985-4.1386-4.8394-5.5095-6.7579-3.7114-5.1938-6.1868-11.097-7.8764-17.228-1.6071-6.7078-3.0399-13.598-2.2099-20.533 1.1672-2.957-3.0146-4.6077-4.1818-1.6507z" opacity=".98"/>
  <path d="m213.36-56.026c-4.3352 2.3707-8.399 5.4655-11.576 9.2785-0.81767 0.98124-1.5273 2.0477-2.2909 3.0716-3.0958 5.0064-5.2496 10.617-6.1917 16.441-0.70255 4.3432-0.57629 6.1318-0.65675 10.537 0.24442 8.0796 1.5819 16.212 4.9461 23.62 0.6186 1.3621 1.3776 2.656 2.0663 3.984 3.9972 6.8576 10.046 11.962 16.323 16.641 5.8675 4.246 12.572 7.0763 19.097 10.13 4.4384 2.0608 8.8143 4.2728 13.374 6.0624 3.1037 1.2181 4.9372 1.7833 8.0865 2.8317 7.7362 2.7438 15.82 3.7468 23.963 4.2412 7.2744 0.24276 14.453-1.0194 21.526-2.5676 6.189-1.3271 11.88-4.0549 17.227-7.3651 1.7042-1.1698 3.4116-2.3666 4.9857-3.7113 0.37324-0.31886 0.98557-0.52411 1.0748-1.0068 0.1406-0.76038-0.31237-1.5147-0.46855-2.272 1.1065-0.83022-0.0676-2.395-1.1741-1.5648-0.73903-0.32002-1.4126-0.92237-2.217-0.96005-0.47284-0.02215-0.79196 0.51961-1.1724 0.8013-1.4764 1.0934-2.8504 2.3289-4.4043 3.3193-4.7021 2.9796-9.7676 5.405-15.243 6.5725-6.4858 1.5005-13.096 2.6762-19.782 2.4894-7.6069-0.39341-15.193-1.2416-22.43-3.7671-3.019-0.96061-4.6933-1.4439-7.6547-2.5849-4.4992-1.7335-8.8144-3.8959-13.184-5.9221-6.1773-2.843-12.524-5.4754-18.062-9.4881-5.5794-4.143-11.064-8.5664-14.677-14.62-0.61505-1.1398-1.2907-2.2489-1.8451-3.4195-3.1583-6.6687-4.4354-14.041-4.7614-21.36 0.0426-3.8653-0.082-5.6211 0.51099-9.415 0.79353-5.0768 2.62-9.9672 5.1977-14.396 1.5508-2.1833 2.0289-3.0383 3.8689-4.9407 2.3467-2.4263 5.1537-4.3563 7.842-6.3716 3.0317-1.6257 0.73263-5.9131-2.2991-4.2874z" opacity=".98"/>
  <path d="m207.01-21.572c4.1281-3.502 8.2221-7.0423 12.295-10.609 2.4275-2.233 5.0447-4.2784 7.4204-6.5677 0.86384-0.83239 1.629-1.7633 2.493-2.5955 0.7771-0.74852 3.911-3.4431 4.838-4.2451 1.5711-1.3594-0.35132-3.5813-1.9225-2.2219-0.76959 0.66586-4.245 3.6839-4.9 4.2012-0.9475 0.74832-1.979 1.3869-2.9191 2.1445-2.5698 2.0708-4.8468 4.4955-7.3645 6.6266-4.0436 3.6239-8.1422 7.1861-12.097 10.908-1.6682 1.5252 0.48876 3.8843 2.1569 2.3591z" opacity=".98"/>
  <path d="m215.22-10.172c5.0134-4.4815 9.6233-9.3862 14.439-14.076 4.204-4.5184 2.0585-2.4072 6.4107-6.3598 1.6771-1.5232-0.47699-3.8949-2.1541-2.3718-4.3977 3.9943-2.0817 2.0099-6.9673 5.9305-4.824 4.6387-9.4611 9.4595-14.246 14.138-1.9372 1.7802 0.58029 4.5198 2.5175 2.7397z" opacity=".98"/>
  <path d="m228.38 0.28133c1.014-1.3003 1.364-1.7973 2.5841-3.1041 1.6384-1.7549 3.3778-3.4132 5.0325-5.1528 1.6258-1.7092 5.3045-5.6962 6.8564-7.3728 2.7352-4.5073 6.1898-8.4357 9.7827-12.256 0.76531-0.81377-0.38555-1.8961-1.1509-1.0823-3.5958 3.8235-7.3084 7.5167-11.615 10.562-4.9723 5.3116-10.517 10.324-14.223 16.65-1.242 1.9321 1.4903 3.6886 2.7324 1.7565z" opacity=".98"/>
  <path d="m235.41 23.752c3.6366-4.2563 7.2515-8.5322 10.93-12.753 5.9819-6.9306 12.089-13.747 18.25-20.519 2.6462-3.9445 1.2436-2.1847 4.1248-5.3443 1.727-1.8939-0.95142-4.3362-2.6784-2.4423-2.8844 3.1633-1.2603 1.6012-4.9441 4.6104-6.1829 6.821-12.388 13.628-18.119 20.84-3.6163 4.3818-7.4275 8.6585-10.454 13.483-1.5029 2.0439 1.3876 4.1693 2.8905 2.1254z" opacity=".98"/>
  <path d="m255.18 23.454c3.6645-3.8447 7.2394-7.7492 10.576-11.886 1.2288-1.5236 2.5676-2.9715 3.6319-4.6142 1.063-1.6407 1.8154-3.463 2.7231-5.1944 1.0666-1.2876 2.1332-2.5753 3.1998-3.8629 0.68932-0.83215-0.48752-1.807-1.1768-0.97483-1.0676 1.2888-2.1352 2.5776-3.2027 3.8664-1.5293 1.2283-3.1834 2.3156-4.5879 3.6848-1.3868 1.352-2.4943 2.9637-3.747 4.4407-3.5254 4.1566-7.2565 8.1513-10.545 12.5-1.4429 2.2124 1.686 4.253 3.1289 2.0406z" opacity=".98"/>
  <path d="m273.48 26.982c3.3702-4.9969 7.2959-9.5524 11.348-14 1.8738-2.0567-1.0348-4.7067-2.9086-2.65-4.213 4.6246-8.8377 9.1035-11.829 14.65-1.4141 2.3962 1.9745 4.396 3.3887 1.9999z" opacity=".98"/>
  <path d="m288.84 32.151c1.6222-1.39 2.3212-3.4011 3.4156-5.153 0.4471-0.71572 0.99682-1.362 1.4952-2.0429 1.1561-1.5797-1.0779-3.2147-2.234-1.635-0.4939 0.67488-0.93337 1.3932-1.4817 2.0246-1.2962 1.4928-2.9867 2.6712-3.9875 4.4264-1.6829 1.9746 1.1096 4.3545 2.7924 2.3799z" opacity=".98"/>
  <path d="m177.92-8.306c-0.80835 4.4645-0.41912 8.9654 0.12822 13.43 0.71427 6.9342 3.0677 13.43 6.1347 19.635 2.8052 5.3464 6.3466 10.254 9.832 15.168 3.1444 4.4627 6.9853 8.3153 11.572 11.291 1.0284 0.66729 2.1057 1.2561 3.1585 1.8842 6.823 3.7967 14.143 6.4894 21.624 8.6462 8.6376 2.2099 17.579 2.7996 26.457 3.1114 4.521 0.14987 9.0138-0.40989 13.497-0.89528 2.7481-0.27101 2.3648-4.1574-0.38325-3.8864-4.3056 0.38176-8.6175 0.75877-12.947 0.6066-8.5694-0.38396-17.174-0.96287-25.56-2.8778-7.2201-1.8091-14.205-4.384-20.729-8.0066-5.65-3.3297-9.8506-6.5916-13.647-12.042-3.4024-4.7467-6.8992-9.4611-9.7273-14.581-2.9734-5.8118-5.1607-11.934-5.8802-18.463-0.49678-4.2027-0.93961-8.3873-0.37354-12.612 0.28853-2.2313-2.867-2.6393-3.1555-0.40804z" opacity=".98"/>
  <path d="m165.89 14.573c0.33092 5.0391 1.9897 9.8292 3.5371 14.594 1.8001 5.1828 3.8197 10.417 6.7601 15.082 1.8306 2.9046 2.7307 3.7638 4.934 6.3225 4.8331 5.0058 10.42 9.1762 16.034 13.251 5.7895 3.9985 12.113 7.1241 18.267 10.508 2.7323 1.3983 5.4928 2.7926 8.4564 3.6443 3.2952 0.94699 6.6868 1.337 10.079 1.7268 4.3316 0.46586 8.5772-0.57727 12.822-1.2662 1.851-0.21611 1.5454-2.8338-0.30562-2.6177-1.3981 0.0967-2.793 0.29579-4.1944 0.29-2.6133-0.0108-5.2009-0.63456-7.8234-0.51002-6.1724-0.79383-11.6-1.7877-17.064-4.977-6.0935-3.1228-12.116-6.4025-17.766-10.286-5.4377-3.7596-10.763-7.7459-15.486-12.389-1.8685-2.1266-2.98-3.2508-4.5617-5.6328-2.9255-4.4057-4.7952-9.4159-6.7866-14.279-1.5685-4.4973-3.2034-9.027-3.8252-13.774-0.2213-2.176-3.2986-1.8631-3.0774 0.31295z" opacity=".98"/>
  <path d="m160.98 45.124c3.7667 4.8057 8.1712 9.0495 12.587 13.246 4.0437 3.6756 8.2427 7.2008 12.67 10.409 1.0557 0.76491 2.0902 1.5669 3.2103 2.234 1.0652 0.63428 2.2189 1.1064 3.3284 1.6596 4.4926 1.2654 2.4494 0.41145 6.1824 2.432 1.2212 0.66084 2.1558-1.0662 0.93458-1.727-3.6504-1.975-1.9105-0.72255-5.1311-3.8775-6.0961-4.7492-12.658-8.9251-18.256-14.304-4.3619-3.9291-8.7071-7.9472-12.593-12.349-1.6108-2.0736-4.5433 0.20433-2.9325 2.2779z" opacity=".98"/>
  <path d="m-2.9027 251.13c0.41434 0.36296 0.81081 0.74743 1.243 1.0889 4.1683 3.293 8.6585 6.193 12.977 9.2786 7.5137 5.3685 6.478 4.6804 14.222 10.595 16.005 12.377 30.668 26.338 45.826 39.708 0.28355 0.24302 8.3871 7.227 9.3036 7.8809 1.1505 0.82087 2.4641 1.386 3.6733 2.1177 2.2681 1.3723 2.1847 1.3784 4.0043 2.7929 2.5677 1.9958 5.3902-1.6355 2.8225-3.6313-1.7266-1.3418-1.8345-1.334-3.5424-3.1704-0.94212-1.013-1.7351-2.1643-2.7283-3.1273-2.883-2.7953-6.3452-4.9526-9.1404-7.8474-15.301-13.471-30.285-27.347-46.533-39.692-6.7206-4.8423-13.509-9.5662-20.305-14.301-2.4386-1.699-4.8217-3.4778-7.2827-5.1443-0.55925-0.3787-1.1489-0.71038-1.7234-1.0656-3.1935-1.9917-6.0102 2.5247-2.8166 4.5163z" opacity=".98"/>
  <path d="m-5.1457 258.23c0.38475-0.49078 0.7968-0.96134 1.1542-1.4724 2.1256-3.039 3.9163-6.3165 5.8751-9.4601 2.612-4.1919 2.7277-4.2384 5.583-8.3113 6.3948-8.085 13.2-15.864 20.403-23.239 1.0714-0.93356 2.7824-2.5578 4.123-3.3038 0.44995-0.25035 1.4627-0.47585 1.0828 0.01-0.55525 0.2263-0.36647 0.0456-0.62754 0.46979 0.61906 5.7112-0.55218 11.393-1.6172 16.977-2.1305 10.278-5.879 20.1-9.7835 29.808-0.84627 4.7153-2.9072 9.0216-4.7463 13.396-1.1997 2.8536 2.836 4.5502 4.0356 1.6966 1.8441-4.3866 3.4881-8.8815 6.2782-12.792 4.2514-10.028 8.074-20.268 10.288-30.964 0.75851-4.0726 1.5254-8.1267 1.7724-12.271 0.1133-1.9008 0.19522-4.3069-0.17903-6.2166-0.19084-0.97374-0.56786-1.9016-0.8518-2.8523-0.57786-0.74311-0.99475-1.646-1.7336-2.2293-4.4214-3.4907-9.2938 1.1902-12.393 4.0326-7.4105 7.6248-14.436 15.644-21.007 24.003-1.0202 1.4543-2.0742 2.8854-3.0606 4.3628-2.5183 3.7721-4.7446 7.7044-6.9365 11.67-0.44884 0.812-0.94169 1.6009-1.3519 2.433-0.30841 0.62574-0.53362 1.2892-0.80044 1.9337-1.6407 3.1772 2.8525 5.4974 4.4932 2.3203z" opacity=".98"/>
  <path d="m77.308 290.57c1.6423-7.0135 2.25-14.217 2.8444-21.379 0.22944-4.3304 0.68161-8.6762 0.31037-13.015-0.16737-1.9562-0.55322-4.7282-1.5956-6.4902-0.56808-0.96025-1.4607-1.6869-2.191-2.5303-1.1842-0.39971-2.3062-1.1053-3.5525-1.1991-5.5473-0.41767-9.3094 5.6189-11.158 9.9481-0.57325 1.3424-0.93967 2.7641-1.4095 4.1461-1.2618 6.0734-0.99957 12.343 0.76558 18.297 0.92768 3.1293 1.6804 4.4356 3.048 7.2966 2.658 4.9652 6.6061 8.9356 11.013 12.353 2.7301 1.8697 5.658 3.6375 9.0685 3.6858 0.62772 9e-3 1.2511-0.10578 1.8767-0.15867 6.1218-1.691 7.6518-5.6275 9.7885-11.118 1.3587-3.9154 1.5852-8.0703 2.3296-12.112 0.2457-1.3341 0.58517-2.6493 0.87776-3.974 0.48169-1.9941-2.3385-2.6754-2.8202-0.68122-0.33433 1.2707-0.56774 2.5723-1.003 3.8121-1.3036 3.713-3.5342 7.0019-5.0554 10.616-1.1464 2.6043-2.1786 5.6703-4.8407 7.1049-0.30119 0.0545-1.2147 0.2455-1.5531 0.21341-1.8225-0.1728-3.3911-1.4301-4.8769-2.3606-3.6895-2.7563-6.9306-6.0621-9.2141-10.097-1.0867-2.195-1.9029-3.6476-2.6595-6.0161-1.5431-4.8305-1.8244-9.9623-0.94157-14.942 0.34792-1.0911 0.61603-2.2109 1.0438-3.2733 0.87593-2.1756 2.1989-4.5032 3.8908-6.1732 0.20699-0.20431 0.49054-0.31745 0.70565-0.51321 0.14821-0.13486 0.24987-0.31332 0.3748-0.46998 0.25614 0.12438 0.6012 0.14269 0.76842 0.37314 0.84525 1.1649 1.084 3.2562 1.2127 4.5245 0.41433 4.0841 0.0461 8.1876-0.14869 12.27-0.5593 7.0268-1.3011 14.03-2.3317 21.005-0.60654 3.8414 4.826 4.6992 5.4326 0.85778z" opacity=".98"/>
  <path d="m58.839 247.93c1.4036-3.8036 2.7437-6.9674 5.9575-9.6629 0.64532-0.54123 1.395-0.94414 2.0925-1.4162 1.5436-0.47538 2.5069-0.95742 4.1621-0.75213 3.2029 0.39727 7.4224 3.5826 9.968 5.3887 6.0524 4.5368 10.965 10.253 15.243 16.441 2.8425 4.5293 5.405 9.2227 8.45 13.623 0.75351-1.3404 0.7712 2.4364 1.4138 1.9536 1.7699-1.3299 3.688-2.7037 4.7407-4.6512 0.3547-0.65617-0.80018-1.2591-1.2084-1.8833-2.1052-3.2195-1.6366-2.4833-4.0851-5.9149-4.6202-6.3427-9.6659-12.781-11.637-20.538-0.28519-1.1225-0.38378-2.2843-0.57567-3.4265 0.026-0.54936-0.20116-2.9416 0.70204-3.5935 0.61826-0.44622 0.22653 0.8381 0.42334 1.0804 0.28018 0.34497 0.72006 0.52115 1.0851 0.77468 0.73806 0.51263 1.4827 1.0158 2.224 1.5236 6.5097 5.0522 12.414 10.824 18.475 16.394 4.5304 3.7864 0.50417 0.78447 5.2089 3.4033 0.66606 0.37076 1.2671 0.84778 1.9007 1.2717 2.295 1.9426 5.0423-1.3029 2.7473-3.2456-0.48818-0.52565-1.0388-0.9996-1.4645-1.5769-3.5575-4.8239 0.81727-0.20892-3.8961-4.7741-6.358-5.7737-12.487-11.832-19.337-17.034-2.1316-1.3473-4.3985-3.1492-7.0747-3.3422-4.2329-0.30531-6.8264 2.6261-7.3732 6.5367-0.17255 1.2342-4e-3 2.4923-6e-3 3.7385 0.27549 1.4391 0.44632 2.9022 0.82648 4.3172 2.2436 8.3512 7.3838 15.416 12.47 22.247 2.477 3.522 1.7395 2.4177 3.9174 5.707 0.39755 0.60044 0.47238 1.9079 1.1853 1.8062 2.1575-0.30776 4.051-1.6634 5.9-2.8169 0.59423-0.37071-2.8156-1.3862-1.3059-1.6459-3.1006-4.3471-5.553-9.0978-8.4656-13.568-4.7186-6.7856-10.16-13.066-16.931-17.897-5.1955-3.5737-11.073-7.7455-17.752-5.9396-1.2288 0.33224-2.3522 0.97412-3.5283 1.4612-0.96222 0.73824-1.9929 1.3949-2.8867 2.2147-3.6318 3.3314-5.8769 7.8496-6.5765 12.692-0.7815 3.5428 4.2288 4.648 5.0103 1.1052z" opacity=".98"/>
  <path d="m124.2 208.5c-4.1505-2.2289-8.1465-4.8721-12.506-6.695-0.98033-0.40988-1.9577-0.97371-3.0191-1.023-1.3002-0.0604-2.5605 0.4697-3.8407 0.70455-0.87401 1.4587-2.1685 2.7371-2.622 4.376-0.69972 2.5284 0.72024 7.5116 1.4531 9.7219 1.8663 5.6282 4.836 10.692 7.8156 15.775 2.6711 3.8355 5.1041 8.0885 8.8057 11.077 1.6046 1.2954 3.9774 2.6695 6.1802 2.4762 1.2696-0.11141 2.4033-0.84942 3.605-1.2741 3.1401-5.4498 0.91414-0.86961 2.5673-6.3001 0.27683-0.90937 0.68778-1.7724 1.0317-2.6585 0.86979-1.9555-1.8957-3.1856-2.7656-1.2301-1.142 2.2359-1.5624 3.3496-4.0434 4.3378 0.095 0.16322 0.88172 1.1123-0.34695 0.77999-0.60817-0.16449-1.1706-0.49861-1.6742-0.8772-3.3397-2.511-5.4104-6.2952-7.7672-9.6362-2.7402-4.5952-5.363-9.1248-7.1593-14.192-0.44465-1.2542-0.80906-2.5375-1.1267-3.8297-0.18736-0.76229 0.0395-1.6632-0.38563-2.3232-0.22923-0.35581-0.83402-0.14491-1.251-0.21735-0.15935-0.19751-0.73156-0.60455-0.47807-0.59248 1.3705 0.0651 4.5124 1.8417 5.3416 2.2714 2.289 1.1862 4.553 2.4202 6.8413 3.6078 0.77076 0.40005 1.5445 0.79428 2.3168 1.1914 3.8685 2.141 6.8964-3.3298 3.0279-5.4708z" opacity=".98"/>
  <path d="m94.675 204.65c5.8904-4.8985 10.234-11.461 14.664-17.64 4.194-6.6474 9.191-12.886 12.816-19.888 2.9658-5.7285-0.0343-1.4548 3.2414-5.7171 1.9742-2.5712-1.6621-5.3631-3.6363-2.7919-6.2779 8.184 3.8874-4.8043-4.7578 5.1256-1.0647 1.2229-1.9561 2.5878-2.8761 3.9229-3.5106 5.0947-6.6238 10.461-10.233 15.491-4.1347 5.9089-8.1848 11.936-13.002 17.316-2.9574 2.6757 0.82666 6.8581 3.784 4.1824z" opacity=".98"/>
  <path d="m105.99 187.76c5.6767 5.9414 11.612 11.645 17.479 17.402 6.0161 5.8204 12.266 11.39 18.419 17.063 4.0511 3.415-0.56658-0.10549 3.5758 2.0527 0.36552 0.19044 1.2771 1.1871 1.622 1.5501 2.1212 2.2329 5.279-0.76703 3.1578-2.9999-0.33086-0.34819-1.3743-1.4178-1.5445-1.746-2.0239-3.9024 1.0314-0.0939-2.3146-3.7484-6.1278-5.6171-12.571-10.885-18.559-16.657-5.7498-5.5273-11.603-10.955-17.216-16.619-2.6188-3.2664-7.2381 0.43708-4.6194 3.7034z" opacity=".98"/>
  <path d="m141.08 259.06c0.27271-0.59436 0.5702-1.178 0.81812-1.7831 0.78192-1.9085 1.2869-3.5746 1.985-5.533 1.2161-3.4122 2.5642-6.7611 3.9544-10.105 1.8213-3.9504 3.7117-7.9198 6.1638-11.529 1.3164-1.9376 1.7623-2.3275 3.2991-4.0539 3.33-3.4974 7.2779-6.4089 10.475-10.039 0.64691-0.73459 1.1948-1.5508 1.7922-2.3262-0.13009-4.6265-0.95501-2.889 1.4104-5.5952 0.34698-0.39698-0.21444-0.88765-0.56139-0.49067-2.3285 2.6643-0.7456 1.6995-5.2394 1.8648-2.2796 1.8806-4.326 3.9356-6.471 5.9664-1.4511 1.3739-2.9487 2.6986-4.3856 4.0872-0.71644 0.69239-1.4039 1.4141-2.1059 2.1212-1.7967 2.1167-2.3307 2.6252-3.8906 4.958-2.6287 3.9312-4.5644 8.2756-6.4299 12.603-2.4137 5.9831-4.8234 12.165-6.0052 18.523-0.94187 3.6709 4.2496 5.0029 5.1914 1.332z" opacity=".98"/>
  <path d="m103.55 127.49c7.1639 5.5842 13.684 11.979 20.171 18.326 8.781 8.9647 16.749 18.661 24.187 28.753 5.3109 7.5595 10.723 15.046 16.096 22.561 2.9093 3.9023 5.2156 8.1934 7.8194 12.29 3.1525 2.136 2.7423 2.8795 6.6277-1.8742 0.1533-0.18753-0.12259-3.8014-0.13195-4.0006-0.12608-2.6798-0.0863-2.6792-0.0688-5.498 0.41402-4.5308 0.53946-10.062 3.8519-13.629 0.43146-0.46457 0.99378-0.78761 1.4906-1.1814 4.2191-2.4866 8.8767-4.1693 12.612-7.4365 0.92231-0.80671 1.7338-1.732 2.6007-2.598 1.3806-1.8949 3.777-4.9219 4.6514-7.156 0.55065-1.407 0.68083-2.9444 1.0501-4.4095 0.33197-1.3173 0.70228-2.6247 1.0534-3.937 0.98118-3.4765-3.9353-4.8641-4.9165-1.3876-0.33674 1.125-0.52083 2.3075-1.0102 3.375-0.49845 1.0872-1.3025 2.0066-1.9252 3.0276-3.0938 5.0723-0.43797 1.1586-3.7029 5.7664-1.6823 1.7512-1.9802 2.2474-3.9831 3.6088-3.4684 2.3576-7.5993 3.5449-10.96 6.0871-0.86537 0.82597-1.8315 1.5579-2.5961 2.4779-3.9721 4.7794-4.6443 11.426-5.037 17.356-0.0148 3.3235-0.055 2.8348 0.0811 5.9442 0.0265 0.6051 0.0569 1.2102 0.10298 1.8141 0.0185 0.24289-0.14063 0.80161 0.0906 0.72512 5.5758-1.8444 2.6875-3.4327 5.8029-0.83365-2.8223-4.0434-5.0024-8.5363-8.0535-12.434-5.4067-7.5321-10.849-15.038-16.203-22.608-7.6755-10.347-15.994-20.212-25.072-29.365-4.2358-4.1329-8.5132-8.2049-12.937-12.138-2.3013-2.0463-4.1675-3.714-6.6321-5.4881-0.64065-0.46118-1.3311-0.84888-1.9967-1.2733-3.6313-2.1661-6.6946 2.9694-3.0633 5.1355z" opacity=".98"/>
  <path d="m-48.496 274.25c2.3377-2.7274 4.4583-5.6202 6.4829-8.5841 2.275-3.5356 4.2858-7.2227 6.7032-10.665 2.6416-3.5028 5.6352-6.715 8.4317-10.091 3.1831-4.0158 6.2333-8.1356 9.2087-12.307 2.6347-3.6746 5.0439-7.5016 7.596-11.232 2.9413-4.2697 6.0089-8.4391 9.3572-12.398 3.411-3.6236 6.3696-7.5958 9.0544-11.775 2.7514-4.5618 5.8255-8.8851 9.1534-13.039 3.0473-3.6537 6.4149-7.0079 9.4268-10.692 3.1923-4.3385 5.8441-9.0331 8.8898-13.472 3.423-4.637 7.0613-9.1087 10.573-13.678 3.4645-4.3511 6.7104-8.8668 9.9086-13.415 2.2009-3.1944 4.608-6.2404 7.0637-9.2414 2.5562-3.4544 5.2542-6.8104 8.0358-10.087 2.334-2.7517 4.9675-5.2224 7.416-7.8683 2.0901-2.3759 3.7536-5.0603 5.3536-7.7767 1.8036-3.1005 3.7236-6.1267 5.6898-9.1299 1.9228-2.1023 3.6626-4.3198 5.2407-6.6878 1.4552-1.6398-0.86386-3.6979-2.3191-2.058-2.2758 1.9186-4.5531 3.8434-6.2584 6.3177-2.3315 2.9241-4.1148 6.1985-5.8393 9.5055-1.4541 2.4712-2.973 4.9173-4.8616 7.0868-2.4572 2.7132-5.162 5.1938-7.5261 7.9936-2.7725 3.3118-5.3597 6.7821-8.2685 9.9742-2.5253 3.0884-4.7295 6.3838-7.008 9.6557-3.1802 4.4918-6.3502 8.9941-9.7382 13.333-3.5667 4.6166-7.2695 9.129-10.698 13.85-2.9964 4.3496-5.57 8.9656-8.6528 13.254-3.0039 3.7026-6.2353 7.2084-9.2475 10.905-3.3391 4.2757-6.3664 8.7838-9.2071 13.405-2.6469 4.0396-5.4698 7.9306-8.8231 11.425-3.3832 4.0727-6.5612 8.301-9.5177 12.695-2.54 3.7138-4.9835 7.4896-7.5098 11.212-2.9284 4.1064-5.9313 8.1613-9.062 12.116-2.8548 3.448-5.9179 6.7243-8.5882 10.321-2.3956 3.4697-4.4954 7.1098-6.7324 10.682-1.9899 2.915-4.1048 5.7319-6.3177 8.4817-1.403 1.8317 1.1874 3.8158 2.5904 1.9841z" opacity=".98"/>
  <path d="m-4.6206 277.93c1.566-1.2175 3.0315-2.4667 3.9077-4.3026 0.38871-0.81438 0.45003-1.7698 0.89439-2.5552 0.36568-0.64632 0.9926-1.1048 1.4889-1.6572 0.25466-0.28348-0.14623-0.64363-0.4009-0.36016-0.49372 0.54962-0.86831 1.2362-1.4812 1.6488-0.71954 0.48442-1.6365 0.58737-2.4134 0.97327-1.7993 0.89373-3.1292 2.2077-4.3986 3.7298-1.7842 1.6992 0.61889 4.2225 2.4031 2.5232z" opacity=".98"/>
  <path d="m44.85 206c0.45626-0.46972 0.948-0.90739 1.3688-1.4091 2.6824-3.1986 4.883-6.7977 7.3497-10.157 3.0878-4.2053 3.5429-4.6476 6.9044-8.7526 6.9079-8.7135 13.746-17.499 20.323-26.466 2.8916-4.2194 6.0369-8.2508 9.0353-12.394 1.0326-1.4268 2.012-2.8931 3.0893-4.2864 0.95713-1.238 2.0066-2.4017 3.0099-3.6026 1.5997-1.9149-1.1084-4.1773-2.7081-2.2624-4.2015 5.0298-1.9863 2.4704-6.6641 7.6622-4.0205 4.7483-2.6634 3.4456-6.2053 8.3869-0.96697 1.349-1.9918 2.6556-2.9877 3.9835-6.543 8.9478-12.857 18.063-19.735 26.765-5.0589 6.8315-10.042 13.711-15.029 20.595-1.3698 1.5897 0.87833 3.527 2.2482 1.9373z" opacity=".98"/>
  <path d="m59.663 343.46c0.37233-0.58987 0.7694-1.1648 1.117-1.7696 0.45819-0.79719 0.81225-1.6533 1.2988-2.4336 1.3505-2.1658 3.1337-4.0447 4.4474-6.2329 5.1098-8.5109-0.96744-0.32784 4.9064-7.7721 1.0573-1.3401-0.83781-2.8354-1.8952-1.4953-7.9011 10.014 2.8447-3.1781-6.4254 6.745-0.97801 1.0469-1.7635 2.2603-2.5783 3.4387-1.7043 2.4649-3.2936 5.0804-4.2597 7.931-1.1233 2.3964 2.2657 3.985 3.389 1.5886z" opacity=".98"/>
  <path d="m141.84 142.91c1.6564-1.7552 3.2033-3.5968 4.6682-5.5145 0.64814-0.84847 1.3593-1.6568 1.9089-2.5722 5.6937-9.4826-2.6511 2.8792 3.5181-6.0322 0.58793-0.81795 1.1759-1.6359 1.7638-2.4538 1.0237-1.4242-0.99044-2.872-2.0141-1.4478-0.58616 0.81547-1.1723 1.631-1.7585 2.4464-4.9787 6.5709 1.0016-1.0038-4.6211 5.1278-0.71181 0.77622-1.293 1.6628-1.9353 2.4974-1.4991 1.948-3.0272 3.891-4.2259 6.0458-1.3456 1.9063 1.3503 3.8093 2.6959 1.903z" opacity=".98"/>
  <path d="m69.174 358.12c3.6496-4.2018-1.104 1.6798 3.0442-5.9326 0.74456-1.3663 1.8567-2.4976 2.785-3.7464 0.63532-0.85463-0.57331-1.7531-1.2086-0.89847-0.92575 1.2453-1.6746 2.6443-2.7773 3.736-7.8434 7.7655-0.63202-1.3046-5.0401 4.4844-1.6666 2.2604 1.5302 4.6174 3.1968 2.3569z" opacity=".98"/>
  <path d="m101.08 314.08c2.7461-4.4023 5.7509-8.6296 8.7589-12.855 1.6468-2.3135-1.625-4.6424-3.2718-2.3289-3.0388 4.2691-6.212 8.4752-8.834 13.019-1.5313 2.3666 1.8156 4.5323 3.3469 2.1657z" opacity=".98"/>
  <path d="m181.78 215.04c2.7897-5.1996 6.8497-9.5772 10.496-14.178 3.3857-4.3544 3.6583-4.5538 6.8671-9.3554 1.2673-1.8964 2.3728-3.9008 3.6973-5.7577 1.5454-2.1666 6.1479-7.6702 7.9634-9.8674 0.68493-0.82899-0.48744-1.7976-1.1724-0.96864-1.395 1.6884-6.8647 8.343-8.1498 9.7457-1.5467 1.6882-3.2672 3.2101-4.8364 4.8773-3.8375 4.0772-4.1632 4.6871-7.4467 8.9101-8.7335 11.23 3.5789-4.5839-4.8737 6.2148-2.2037 2.8154-4.5598 5.6327-5.8596 9.0074-0.97002 2.3442 2.3452 3.716 3.3152 1.3718z" opacity=".98"/>
 </g>
</svg>
