<?xml version="1.0" encoding="UTF-8"?>
<svg width="30.93mm" height="29.502mm" version="1.1" viewBox="0 0 30.93 29.502" xmlns="http://www.w3.org/2000/svg" xmlns:cc="http://creativecommons.org/ns#" xmlns:dc="http://purl.org/dc/elements/1.1/" xmlns:rdf="http://www.w3.org/1999/02/22-rdf-syntax-ns#">
 <metadata>
  <rdf:RDF>
   <cc:Work rdf:about="">
    <dc:format>image/svg+xml</dc:format>
    <dc:type rdf:resource="http://purl.org/dc/dcmitype/StillImage"/>
    <dc:title/>
   </cc:Work>
  </rdf:RDF>
 </metadata>
 <g transform="translate(-5.8152 -6.7664)" stroke="#000">
  <path d="m17.842 16.335c-0.44913-0.80368-0.88856-1.6146-1.4274-2.3635-0.16376-0.22763-0.34176-0.44468-0.51264-0.66703-0.73275-0.82053-1.6356-1.9985-2.7169-2.3684-0.14374-0.04917-0.29772-0.06061-0.44658-0.09092-0.14022 0.02451-0.28901 0.0194-0.42067 0.07352-0.34094 0.14016-0.60753 0.44701-0.82833 0.72286-0.53201 0.66468-0.87891 1.4182-1.2376 2.1834-0.72197 1.6517-1.252 3.3784-1.6937 5.1236-0.00514 0.02793-0.21441 0.78445-0.095617 0.84304 0.19293 0.09515 0.46082-0.13343 0.57806-0.20196 0.14714-0.08601 0.29377-0.17289 0.44065-0.25933 0.96618-0.53686 2.0494-0.78354 3.1533-0.69831 0.24142 0.01864 0.47999 0.06427 0.71998 0.09641 1.1215 0.2213 2.1142 0.7866 2.7301 1.7733 0.12201 0.19546 0.21053 0.40993 0.3158 0.61489 0.57192 1.3358 0.61358 2.6876 0.46863 4.1089-0.16126 1.0587-0.57844 2.0547-1.2512 2.8917-0.13055 0.16242-0.27901 0.30961-0.41851 0.46442-0.51924 0.50379-1.1322 0.9806-1.8832 1.0474-0.43391 0.0386-0.71599-0.05116-1.1381-0.13623-0.93112-0.30248-1.8562-0.8311-2.2055-1.8092-0.068497-0.19184-0.08415-0.39863-0.12622-0.59794 0.00212-0.20502-0.021582-0.41195 0.00639-0.61506 0.075769-0.55025 0.35986-1.1064 0.81313-1.4405 0.34871-0.25706 0.59047-0.28231 0.99576-0.39188 0.63602-0.07121 0.32772-0.05284 0.9245-0.06138 0.09448-0.0014 0.09247-0.13504-2e-3 -0.13362-0.61668 0.0097-0.29727-0.0099-0.95776 0.0661-0.43709 0.12098-0.68039 0.14502-1.0556 0.42693-0.47793 0.35907-0.7744 0.94863-0.85162 1.5333-0.028118 0.2129-0.00228 0.4295-0.00339 0.64424 0.046266 0.2108 0.065107 0.42956 0.1388 0.6324 0.36836 1.014 1.3278 1.5656 2.2973 1.8776 0.45293 0.08985 0.72839 0.17954 1.1942 0.13542 0.77786-0.07367 1.4144-0.56466 1.9526-1.0882 0.14261-0.15868 0.29437-0.30959 0.42784-0.47603 0.6864-0.85599 1.1116-1.8742 1.2755-2.956 0.1481-1.4606 0.10344-2.8099-0.4828-4.1836-0.10939-0.21151-0.20158-0.43285-0.32818-0.63452-0.63732-1.0152-1.6629-1.5976-2.8188-1.8249-0.24504-0.03252-0.48863-0.07889-0.73512-0.09756-1.1286-0.08547-2.236 0.16776-3.2236 0.71676-0.25162 0.14808-0.51744 0.27449-0.7544 0.44506-0.03078 0.02216-0.031694 0.08643-0.069438 0.09013-0.15572 0.01524 0.20119-0.81647 0.098066-0.76898 0.43953-1.7369 0.96693-3.4556 1.6852-5.0997 0.35314-0.75435 0.69472-1.4931 1.2156-2.1503 0.1932-0.24378 0.45288-0.54881 0.75381-0.68126 0.11513-0.05067 0.24671-0.04922 0.37007-0.07384 0.1388 0.02702 0.28238 0.03595 0.41639 0.08105 1.0572 0.35585 1.9512 1.5299 2.6673 2.3287 0.16918 0.21998 0.34543 0.43469 0.50754 0.65993 0.53749 0.74681 0.97528 1.5557 1.4233 2.3571 0.04807 0.08135 0.16312 0.01337 0.11505-0.06798z" opacity=".98"/>
  <path d="m18.616 28.647c0.0399-1.1254 0.03986-2.2518 0.05206-3.3778-0.02947-1.5893 0.09686-3.1674 0.37298-4.7312 0.2505-1.3092 0.65615-2.5842 1.2347-3.7847 0.06309-0.1048 0.11382-0.21812 0.18928-0.31439 0.04366-0.05571 0.09483-0.11809 0.16342-0.1356 0.03773-0.0096 0.07186 0.03764 0.09351 0.07001 0.21354 0.31931 0.25965 0.77995 0.3309 1.1409 0.22401 1.7381 0.38107 3.4848 0.52193 5.2314 0.11684 1.8375 0.20482 3.6766 0.31549 5.5145 0.033 0.49221 0.04892 0.98521 0.06012 1.4783 0.0021 0.09447 0.13575 0.09143 0.1336-3e-3 -0.01125-0.49475-0.02722-0.98942-0.06032-1.4833-0.11072-1.8388-0.19871-3.6788-0.31568-5.5172-0.14129-1.7517-0.29857-3.5036-0.52405-5.2466-0.04944-0.24856-0.28959-1.8132-0.83345-1.1181-0.07791 0.09957-0.13009 0.21683-0.19513 0.32524-0.58333 1.2118-0.99364 2.498-1.2459 3.8194-0.27712 1.571-0.40461 3.1564-0.375 4.7529-0.01218 1.1243-0.01215 2.2492-0.05192 3.373-0.0044 0.09439 0.12906 0.10065 0.13349 0.0063z" opacity=".98"/>
  <path d="m19.331 23.482c0.57203-0.01634 1.1433 0.01765 1.7143-0.02713 0.06777-0.0078 0.13554-0.01561 0.20331-0.02341 0.09387-0.01083 0.07856-0.14358-0.01531-0.13275-0.06616 0.0076-0.13233 0.0153-0.1985 0.02294-0.56956 0.04509-1.1396 0.0096-1.7102 0.02687-0.09439 0.0045-0.08803 0.13798 0.0064 0.13348z" opacity=".98"/>
  <path d="m22.512 13.621c0.39331 1.3118 0.83209 2.608 1.1913 3.93 0.41222 1.6232 0.6812 3.2768 0.94947 4.9282 0.27186 1.4632 0.52608 2.9261 0.70616 4.4036 0.15641 1.2826 0.31702 2.5644 0.42768 3.8519 0.0042 0.08948 0.11799 0.90561 0.18256 0.90226 0.52029-0.02697 0.54343-0.84309 0.62253-1.1757 0.45196-1.9084 1.004-3.791 1.5096-5.6855 0.55463-2.1382 1.1293-4.2712 1.6231-6.4245 0.37199-1.7954 0.8485-3.5661 1.4038-5.3129 0.26377-0.80161 0.61693-1.571 0.87495-2.3743 0.05712-0.17816-0.19484-0.25893-0.25195-0.08077-0.25721 0.80382-0.61309 1.5725-0.87515 2.3749-0.55733 1.7538-1.0361 3.5314-1.4095 5.3339-0.49296 2.1503-1.067 4.2802-1.6208 6.4154-0.50621 1.8969-1.059 3.7819-1.5114 5.6927-0.04479 0.18936-0.08489 0.37989-0.13437 0.56808-0.03023 0.11497-0.10752 0.22209-0.10464 0.34093 0.0021 0.08518 0.07323 0.15429 0.11838 0.22654 0.02396 0.03834-0.04295-0.08049-0.05444-0.12422-0.05189-0.19751-0.08413-0.5079-0.10896-0.69948-0.11098-1.2906-0.27178-2.5756-0.42865-3.8612-0.18055-1.481-0.435-2.9474-0.70764-4.414-0.26974-1.6606-0.54043-3.3232-0.9553-4.9552-0.35901-1.3206-0.79633-2.6157-1.1902-3.9259-0.04618-0.1813-0.30258-0.11599-0.2564 0.06531z" opacity=".98"/>
  <path d="m33.126 16.875c-0.54069 2.9797-1.3102 5.911-2.0944 8.8338-0.7091 2.6958-1.5364 5.3547-2.4848 7.9749-0.0306 0.14181-0.24651 0.6134 0.07863 0.72239 0.25913 0.08686 0.87039-0.16106 1.0734-0.22272 0.55782-0.16937 0.80793-0.23205 1.3775-0.38596 0.67038-0.16442 1.3264-0.3759 1.9787-0.5997 0.17695-0.06074 0.09105-0.31099-0.08591-0.25025-0.64664 0.2221-1.2971 0.43155-1.9618 0.59452-0.56079 0.15156-0.83905 0.22182-1.3891 0.38936-0.18329 0.05583-0.36706 0.11072-0.54728 0.17581-0.24402 0.08813-0.35878 0.20581-0.36388 0.08791-0.0062-0.14337 0.05898-0.28088 0.08846-0.42132 0.95101-2.6273 1.7805-5.2934 2.4916-7.9964 0.7862-2.9303 1.5575-5.8691 2.0994-8.8564 0.03251-0.18424-0.22804-0.23022-0.26056-0.04598z" opacity=".98"/>
  <path d="m31.679 27.262c0.86118-0.16582 1.7012-0.38618 2.5175-0.70609 0.17416-0.06833 0.07754-0.31463-0.09663-0.24631-0.80633 0.31668-1.6368 0.53167-2.4875 0.69633-0.18106 0.04711-0.11444 0.30316 0.06662 0.25606z" opacity=".98"/>
  <path d="m33.613 18.039c0.77797-0.1481 1.5369-0.3623 2.2892-0.6064 0.17795-0.05776 0.09626-0.30942-0.08169-0.25166-0.74142 0.24077-1.4892 0.45192-2.256 0.59794-0.18393 0.03422-0.13554 0.29434 0.04839 0.26012z" opacity=".98"/>
 </g>
</svg>
