<?xml version="1.0" encoding="UTF-8"?>
<svg width="16mm" height="16mm" version="1.1" viewBox="0 0 16 16" xmlns="http://www.w3.org/2000/svg" xmlnsCc="http://creativecommons.org/ns#" xmlnsDc="http://purl.org/dc/elements/1.1/" xmlnsRdf="http://www.w3.org/1999/02/22-rdf-syntax-ns#">

 <g transform="translate(.16475 -.21864)">
  <path d="m1.066 16.153c-0.42158-0.13415-0.94963-0.69661-1.0738-1.1437-0.0756-0.27232-0.096706-1.1622-0.078499-3.3097l0.024902-2.9373 0.21674-0.21647c0.13515-0.13498 0.34631-0.23384 0.56092-0.2626 0.31115-0.041702 0.37243-0.017899 0.63857 0.24803l0.29439 0.29415v2.4346c0 2.0443 0.0211 2.479 0.13161 2.7117 0.26374 0.55534 0.09153 0.54016 6.1267 0.54016 6.0352 0 5.863 0.01518 6.1267-0.54016 0.11052-0.23272 0.13162-0.66736 0.13162-2.7117v-2.4346l0.29438-0.29415c0.26614-0.26592 0.32742-0.28973 0.63857-0.24803 0.21461 0.028762 0.42577 0.12762 0.56092 0.2626l0.21674 0.21647 0.0249 2.9373c0.01821 2.1476-0.0029 3.0374-0.0785 3.3097-0.13108 0.47216-0.65818 1.0117-1.1243 1.1509-0.46489 0.1388-13.195 0.13213-13.633-0.0071zm4.5954-6.1805-1.8658-1.8711 0.04653-0.34663c0.07847-0.58458 0.62238-0.95456 1.155-0.78565 0.10527 0.033384 0.59668 0.45561 1.092 0.93829l0.90064 0.87759v-3.8513c0-4.2289 0.0077-4.2999 0.48995-4.5491 0.31927-0.16497 0.53661-0.16497 0.85588 0 0.48233 0.24923 0.48995 0.31999 0.48995 4.5519v3.8541l0.89703-0.8807c0.49337-0.48439 0.98478-0.90789 1.092-0.94112 0.30177-0.0935 0.71733 0.019453 0.93901 0.25524 0.15013 0.15968 0.2011 0.30766 0.2011 0.58392v0.37003l-3.6792 3.6656h-0.74824z" fill="#fff" stroke-width=".083412"/>
 </g>
</svg>
