<?xml version="1.0" encoding="UTF-8" standalone="no"?>
<svg
   xmlns:dc="http://purl.org/dc/elements/1.1/"
   xmlns:cc="http://creativecommons.org/ns#"
   xmlns:rdf="http://www.w3.org/1999/02/22-rdf-syntax-ns#"
   xmlns:svg="http://www.w3.org/2000/svg"
   xmlns="http://www.w3.org/2000/svg"
   xmlns:sodipodi="http://sodipodi.sourceforge.net/DTD/sodipodi-0.dtd"
   xmlns:inkscape="http://www.inkscape.org/namespaces/inkscape"
   width="16mm"
   height="16mm"
   viewBox="0 0 16 16"
   version="1.1"
   id="svg8"
   sodipodi:docname="savel_icon.svg"
   inkscape:version="1.0.1 (3bc2e813f5, 2020-09-07)">
  <defs
     id="defs2" />
  <sodipodi:namedview
     id="base"
     pagecolor="#ffffff"
     bordercolor="#666666"
     borderopacity="1.0"
     inkscape:pageopacity="0.0"
     inkscape:pageshadow="2"
     inkscape:zoom="8"
     inkscape:cx="24.462773"
     inkscape:cy="28.958127"
     inkscape:document-units="mm"
     inkscape:current-layer="layer1"
     inkscape:document-rotation="0"
     showgrid="false"
     inkscape:window-width="2256"
     inkscape:window-height="1410"
     inkscape:window-x="-12"
     inkscape:window-y="-12"
     inkscape:window-maximized="1" />
  <metadata
     id="metadata5">
    <rdf:RDF>
      <cc:Work
         rdf:about="">
        <dc:format>image/svg+xml</dc:format>
        <dc:type
           rdf:resource="http://purl.org/dc/dcmitype/StillImage" />
        <dc:title></dc:title>
      </cc:Work>
    </rdf:RDF>
  </metadata>
  <g
     inkscape:label="Layer 1"
     inkscape:groupmode="layer"
     id="layer1"
     transform="translate(0.1647533,-0.2186399)">
    <path
       style="fill:#ffffff;stroke-width:0.0834115"
       d="m 1.0660468,16.152812 c -0.42158177,-0.134149 -0.94962947,-0.69661 -1.07376137,-1.143739 -0.0756005,-0.272317 -0.0967058,-1.162181 -0.0784986,-3.309743 l 0.024902,-2.9372885 0.21674,-0.2164745 c 0.1351474,-0.1349814 0.34631,-0.2338398 0.560921,-0.2626022 C 1.0274998,8.2412628 1.0887808,8.2650658 1.3549158,8.5309899 l 0.294386,0.2941525 v 2.4345556 c 0,2.044336 0.0211,2.478976 0.131614,2.711693 0.263736,0.555341 0.09153,0.540159 6.1267238,0.540159 6.0351914,0 5.8629884,0.01518 6.1267234,-0.540159 0.110519,-0.232717 0.131615,-0.667357 0.131615,-2.711693 V 8.8251424 l 0.294385,-0.2941525 c 0.266135,-0.2659239 0.327416,-0.2897267 0.638567,-0.2480251 0.21461,0.028762 0.425773,0.1276208 0.56092,0.2626022 l 0.21674,0.2164745 0.0249,2.9372885 c 0.01821,2.147562 -0.0029,3.037426 -0.0785,3.309743 -0.131076,0.472155 -0.65818,1.011717 -1.124304,1.150881 -0.464891,0.138797 -13.1949672,0.132126 -13.6326392,-0.0071 z m 4.59535,-6.1804639 -1.865834,-1.8710922 0.04653,-0.3466306 c 0.07847,-0.5845795 0.622378,-0.9545606 1.154982,-0.7856526 0.105266,0.033384 0.596681,0.4556123 1.092033,0.9382857 l 0.900642,0.8775888 V 4.9335583 c 0,-4.22886976 0.0077,-4.29990176 0.489949,-4.54911071 0.3192658,-0.164968 0.5366148,-0.164968 0.8558808,0 0.482333,0.24922695 0.489949,0.31998595 0.489949,4.55194801 V 8.7905217 L 9.7225576,7.9098182 C 10.215923,7.4254311 10.707338,7.0019266 10.814591,6.968695 c 0.301773,-0.0935 0.717328,0.019453 0.939012,0.2552372 0.150133,0.1596839 0.201095,0.3076605 0.201095,0.5839169 v 0.370029 L 10.115083,10.01066 8.2754676,11.843441 H 7.9013486 7.5272298 Z"
       id="path2191" />
  </g>
</svg>
