<?xml version="1.0" encoding="UTF-8"?>
<svg width="30.93mm" height="29.502mm" version="1.1" viewBox="0 0 30.93 29.502" xmlns="http://www.w3.org/2000/svg" xmlns:cc="http://creativecommons.org/ns#" xmlns:dc="http://purl.org/dc/elements/1.1/" xmlns:rdf="http://www.w3.org/1999/02/22-rdf-syntax-ns#">
 <metadata>
  <rdf:RDF>
   <cc:Work rdf:about="">
    <dc:format>image/svg+xml</dc:format>
    <dc:type rdf:resource="http://purl.org/dc/dcmitype/StillImage"/>
    <dc:title/>
   </cc:Work>
  </rdf:RDF>
 </metadata>
 <g transform="translate(-5.8152 -6.7664)" stroke="#000">
  <path d="m10.104 14.131c-0.37766 2.6656-0.54217 5.3587-0.74641 8.0423-0.08433 1.3038-0.22655 2.6044-0.28711 3.9098-0.014306 0.30837-0.052809 0.9837 0.045558 1.3284 0.035941 0.12593 0.12655 0.22931 0.18983 0.34397 0.15405 0.04989 0.30115 0.13238 0.46215 0.14969 0.25649 0.02757 1.7716-0.07268 1.8774-0.07814 1.3406-0.06932 2.6713-0.07864 4.0134-0.06019 1.0969 0.0014 2.1872 0.13007 3.2804 0.19311 0.2888 0.01665 0.94898 0.09124 1.2372-0.12416 0.18002-0.13452 0.26129-0.3657 0.39194-0.54855 0.08131-0.31418 0.18457-0.62349 0.24392-0.94255 0.14246-0.76578 0.24176-2.0638 0.29648-2.8042 0.1102-1.4912 0.1784-2.9854 0.25141-4.4788 0.04487-1.3228 0.19192-2.6399 0.2511-3.9616-0.0074-0.57512-0.46492-0.56975-0.92927-0.63521-1.7596-0.17884-3.5318-0.07771-5.2958-0.18031-0.52876-0.03075-1.0556-0.08901-1.5834-0.13351-0.09416-0.0079-0.10538 0.12523-0.01122 0.13316 0.53007 0.04464 1.0592 0.10304 1.5902 0.13391 1.7592 0.10226 3.5266 0.0019 5.2816 0.17909 0.20539 0.02848 0.7381 0.01983 0.80295 0.32467 0.01197 0.05627 0.0076 0.11482 0.01132 0.17223-0.05901 1.3216-0.20643 2.6385-0.25107 3.9611-0.07293 1.4918-0.14111 2.9844-0.2511 4.4741-0.05635 0.76315-0.15096 1.9979-0.29282 2.7825-0.05504 0.30442-0.14996 0.60026-0.22494 0.90039-0.1057 0.16496-0.16266 0.37432-0.31709 0.49488-0.27216 0.21245-0.92626 0.135-1.1911 0.11972-1.0962-0.06324-2.1893-0.19207-3.2891-0.19351-1.3452-0.01843-2.679-0.0091-4.0228 0.0604-0.11976 0.0062-1.5555 0.09929-1.8337 0.0829-0.13042-0.0077-0.25475-0.05811-0.38213-0.08716-0.057742-0.09781-0.14178-0.18429-0.17323-0.29343-0.097732-0.33918-0.058858-1.0037-0.044921-1.3042 0.060522-1.3049 0.20272-2.605 0.287-3.9083 0.20384-2.6783 0.36821-5.3661 0.74428-8.0266 0.01826-0.09271-0.11285-0.11854-0.13112-0.02583z" opacity=".98"/>
  <path d="m29.841 14.93c-0.44197 0.09395-0.8911 0.18679-1.2869 0.41949-0.73792 0.4338-1.2521 1.0524-1.7924 1.6972-0.74694 1.1128-1.415 2.3167-1.7639 3.6208-0.20323 0.75957-0.2052 1.0907-0.28131 1.8609-8.46e-4 0.28774-0.01751 0.57586-0.0025 0.86321 0.04398 0.84252 0.24135 2.0596 0.76249 2.7553 0.12843 0.17146 0.29971 0.30617 0.44956 0.45926 0.17726 0.11892 0.34399 0.25528 0.53178 0.35676 0.82664 0.44666 1.8088 0.49264 2.7235 0.38281 0.25778-0.03095 0.51138-0.09008 0.76707-0.13512 1.3125-0.3891 2.4609-1.188 3.2683-2.2998 0.15903-0.21899 0.28796-0.45832 0.43193-0.68748 0.59832-1.2217 0.996-2.5591 1.0738-3.923 0.01262-0.22124 0.0021-0.4432 0.0033-0.6648-0.07355-1.0667-0.3051-2.0559-0.82408-2.9928-0.34985-0.56563-0.86515-0.93548-1.4556-1.2136-0.54758-0.22828-1.1401-0.28775-1.7242-0.3483-0.33358-0.04965-0.66928-0.04484-1.0051-0.03742-0.09447 0.0021-0.09146 0.13573 3e-3 0.1336 0.33023-0.0076 0.66029-0.01228 0.98831 0.03674 0.56925 0.05898 1.147 0.11555 1.6812 0.33631 0.56541 0.26523 1.0595 0.61706 1.3956 1.1576 0.50015 0.89836 0.73968 1.9036 0.80728 2.9273-7.94e-4 0.2171 0.0097 0.43453-0.0026 0.65128-0.07591 1.3437-0.46692 2.6616-1.0542 3.8661-0.14039 0.22423-0.26601 0.45842-0.42118 0.67269-0.78732 1.0872-1.9077 1.8707-3.1891 2.254-0.25076 0.04445-0.49946 0.10268-0.75227 0.13335-0.88506 0.10736-1.8387 0.06843-2.6408-0.36058-0.18028-0.09642-0.34057-0.22631-0.51085-0.33946-0.14266-0.14349-0.30591-0.2691-0.42797-0.43047-0.50999-0.67422-0.70224-1.8715-0.74559-2.6899-0.01499-0.28309 0.0012-0.56697 0.0019-0.85046 0.07406-0.75524 0.07643-1.0872 0.27502-1.8315 0.34372-1.2883 1.0036-2.4774 1.7397-3.5775 0.51996-0.62184 1.0346-1.2407 1.7436-1.6606 0.38596-0.22859 0.82495-0.31825 1.2565-0.41026 0.09305-0.01646 0.06977-0.14805-0.02327-0.13159z" opacity=".98"/>
  <path d="m8.2359 30.947c0.17155 0.91637 0.39073 1.8223 0.61801 2.7262 0.12543 0.3713 0.15576 0.78133 0.32122 1.1404 0.024138 0.05238 0.041263 0.13112 0.097751 0.14277 0.22866 0.04713 0.29303-0.26895 0.346-0.38167 0.32788-0.86866 0.54106-1.787 0.99303-2.6034 0.03998-0.04135 0.0693-0.09676 0.11992-0.12405 0.02253-0.01214 0.05642 1e-3 0.07429 0.01936 0.03508 0.03598 0.05183 0.0863 0.07312 0.13182 0.04529 0.09684 0.08732 0.19525 0.1264 0.29476 0.11681 0.29744 0.22218 0.59925 0.33542 0.89807 0.17125 0.42231 0.34883 0.844 0.56762 1.2445 0.01018 0.01863 0.22987 0.41 0.2944 0.44409 0.05555 0.02935 0.12558-0.0042 0.18837-0.0063 0.0501-0.09078 0.11535-0.17472 0.15029-0.27235 0.07285-0.20355 0.20453-0.9326 0.23411-1.0911 0.13064-0.6998 0.25137-1.4013 0.36814-2.1035 0.03332-0.18706 0.06665-0.37411 0.09997-0.56117 0.01657-0.09303-0.11499-0.11647-0.13156-0.02344-0.03341 0.18756-0.06682 0.37512-0.10023 0.56269-0.1869 1.1241-0.35417 2.2593-0.65364 3.3593-0.09223 0.10092-0.04622 0.08634-0.17687-0.11029-0.30555-0.45987-0.4984-0.98626-0.71563-1.4898-0.11404-0.3009-0.21808-0.60564-0.33795-0.90427-0.05725-0.14262-0.14898-0.42692-0.3237-0.50664-0.14668-0.06693-0.24046 0.09908-0.30944 0.17371-0.45219 0.82065-0.67232 1.7397-0.99804 2.6135-0.035751 0.08498-0.07915 0.16714-0.10725 0.25495-0.010607 0.03314 0.027074 0.10615-0.00766 0.10411-0.045174-0.0026-0.061646-0.06816-0.080552-0.10927-0.16361-0.35573-0.19371-0.76154-0.31793-1.1293-0.22692-0.9023-0.4457-1.8067-0.61695-2.7216-0.019799-0.0924-0.15047-0.0644-0.13067 0.028z" opacity=".98"/>
  <path d="m16.078 32.236c1.0816 0.38515 2.2633 0.33802 3.394 0.32168 1.9291-0.05149 3.8579-0.11465 5.7866-0.17726 1.2689-0.04051 2.5375 0.02113 3.8062 0.03028 0.36131-0.03115 0.74961-8e-3 1.0989-0.12892 0.19833-0.06866 0.27152-0.14442 0.42784-0.2667 0.07412-0.05862-0.0088-0.16343-0.0829-0.10482-0.12951 0.10368-0.20917 0.18348-0.37327 0.24092-0.33956 0.11887-0.71816 0.09475-1.0696 0.12589-1.2705-0.0091-2.5408-0.07093-3.8115-0.03022-1.928 0.06258-3.8559 0.12571-5.7842 0.1772-1.1112 0.0162-2.273 0.06416-3.3372-0.3099-0.08616-0.03881-0.14104 0.08304-0.05488 0.12184z" opacity=".98"/>
  <path d="m30.057 30.889c0.77186 0.2939 1.5407 0.59541 2.3151 0.88281 0.29877 0.10898 0.60184 0.20576 0.90758 0.29313 0.07797 0.02228 0.23391 0.04462 0.3063 0.09978-0.02183-0.01999-0.03598-0.06189-0.06552-0.05996-0.05472 0.0036-0.09738 0.05052-0.147 0.07386-0.08018 0.03772-0.16201 0.07182-0.24231 0.10927-0.39179 0.18273-0.76851 0.38828-1.1461 0.59851-0.35056 0.18657-0.68273 0.40462-1.024 0.60692-0.06701 0.03973-0.25927 0.16917-0.36863 0.16263-0.02921-0.0019-0.04686-0.03507-0.07028-0.05261-0.19013-0.66987-0.1487-1.3958-0.14677-2.087 2.62e-4 -0.09449-0.13337-0.09486-0.13363-3.7e-4 -0.0012 0.44451-0.0033 0.88957 0.02368 1.3335 0.0095 0.15675 0.03284 0.50647 0.08754 0.67051 0.02444 0.07328 0.0739 0.13568 0.11085 0.20351 0.05475 0.0204 0.10584 0.05959 0.16424 0.06118 0.11941 0.0033 0.32065-0.12878 0.40309-0.17764 0.33957-0.20129 0.67005-0.41836 1.0189-0.60396 0.37427-0.20844 0.74765-0.41226 1.136-0.59346 0.01365-0.0064 0.39102-0.17106 0.41836-0.20102 0.03715-0.04072 0.03583-0.10425 0.05374-0.15638-0.10492-0.06213-0.22418-0.08224-0.34084-0.11556-0.30278-0.08649-0.60292-0.18229-0.89879-0.29021-0.77342-0.28705-1.5414-0.58822-2.3123-0.88176-0.08784-0.03482-0.13709 0.08941-0.04924 0.12423z" opacity=".98"/>
 </g>
</svg>
