<?xml version="1.0" encoding="UTF-8"?>
<svg width="16mm" height="16mm" version="1.1" viewBox="0 0 16 16" xmlns="http://www.w3.org/2000/svg" xmlns:cc="http://creativecommons.org/ns#" xmlns:dc="http://purl.org/dc/elements/1.1/" xmlns:rdf="http://www.w3.org/1999/02/22-rdf-syntax-ns#">
 <metadata>
  <rdf:RDF>
   <cc:Work rdf:about="">
    <dc:format>image/svg+xml</dc:format>
    <dc:type rdf:resource="http://purl.org/dc/dcmitype/StillImage"/>
    <dc:title/>
   </cc:Work>
  </rdf:RDF>
 </metadata>
 <g transform="translate(-62.209 66.216)">
  <path d="m63.656-51.723c-1.4671-1.4513-1.5196-1.5165-1.412-1.7515 0.08078-0.17635 0.18459-0.2441 0.374-0.2441 0.20536 0 0.47399 0.20995 1.2395 0.96872l0.97729 0.96872v-12.869l-0.97729 0.96872c-0.76549 0.75877-1.0341 0.96872-1.2395 0.96872-0.18875 0-0.2932-0.06771-0.37292-0.24175-0.10619-0.2318-0.0484-0.30385 1.4049-1.7515 0.83362-0.83035 1.5772-1.5097 1.6524-1.5097 0.14189 0 2.9041 2.6664 3.0649 2.9586 0.139 0.25254-0.06085 0.54438-0.37278 0.54438-0.20291 0-0.469-0.20845-1.2085-0.94675-0.52156-0.52071-0.98123-0.94674-1.0215-0.94674-0.04025 0-0.07318 2.8757-0.07318 6.3905s0.03293 6.3905 0.07318 6.3905 0.49991-0.42604 1.0215-0.94674c0.7395-0.73829 1.0056-0.94675 1.2085-0.94675 0.31193 0 0.51178 0.29184 0.37278 0.54438-0.15606 0.28354-2.9209 2.9586-3.0579 2.9586-0.07135 0-0.81543-0.67832-1.6535-1.5074zm9.093 1.4025c-0.52832-0.15726-1.0566-0.5645-1.3281-1.0238l-0.25621-0.43347v-12.876l0.25575-0.43268c0.30361-0.51366 0.81624-0.88779 1.421-1.0371 0.27461-0.06778 1.0596-0.09643 2.0941-0.07643 1.3894 0.02687 1.7083 0.06026 1.988 0.20817 0.466 0.24642 0.83905 0.61063 1.0796 1.054 0.20465 0.37721 0.20545 0.4036 0.20545 6.7219 0 6.3183-7.19e-4 6.3447-0.20545 6.7219-0.2404 0.44312-0.61328 0.80726-1.0796 1.0543-0.28606 0.15154-0.58211 0.17914-2.0941 0.19526-0.96853 0.01033-1.9047-0.02402-2.0804-0.07632zm3.9478-0.98973c0.14443-0.10736 0.35092-0.31285 0.45886-0.45665 0.19353-0.25782 0.19625-0.34729 0.19625-6.4487s-0.0029-6.1909-0.19625-6.4487c-0.46417-0.61836-0.57104-0.64922-2.3567-0.68044-1.5509-0.02712-1.657-0.01736-2.0566 0.18935-0.80828 0.41813-0.76854 0.06017-0.76854 6.9241 0 5.3339 0.01784 6.0838 0.15155 6.364 0.33181 0.69548 0.71799 0.80559 2.7211 0.77591 1.4339-0.02125 1.6131-0.04243 1.8503-0.21872z" stroke-width=".09493"/>
 </g>
</svg>
