<?xml version="1.0" encoding="UTF-8"?>
<svg width="36.383mm" height="36.016mm" version="1.1" viewBox="0 0 36.383 36.016" xmlns="http://www.w3.org/2000/svg" xmlnsCc="http://creativecommons.org/ns#" xmlnsDc="http://purl.org/dc/elements/1.1/" xmlnsRdf="http://www.w3.org/1999/02/22-rdf-syntax-ns#">

 <g transform="translate(-2.9485 -3.5561)" fill="#020202" stroke-width="0">
  <path d="m3.5459 9.8982c-0.22694 1.8322-0.11135 3.6886-0.02771 5.5262 0.20221 3.1822 0.64419 6.3474 1.0268 9.5147 0.32746 2.594 0.6176 5.1917 0.75923 7.8001 0.09806 1.644 0.07253 3.2911-0.0585 4.9326 0.01134 0.40331-0.14281 0.8158-0.07997 1.2205 0.01638 0.10546 0.01893 0.22562 0.09252 0.30813 0.13224 0.14826 0.29705 0.29255 0.49595 0.3516 0.1841 0.05465 0.38636-0.02155 0.57955-0.03232 1.555-0.33518 3.1307-0.59424 4.7183-0.76047 0.52433-0.0549 1.0506-0.09326 1.5758-0.13989 3.3691-0.27884 6.7521-0.15049 10.125-0.02299 2.1966 0.0828 4.3939 0.14624 6.5917 0.19148 1.1843 0.0267 2.369 0.02109 3.5536 0.01634 0.89456-0.0041 1.7891-0.0062 2.6837-0.0041 0.56112-0.0028 1.1218 0.0062 1.6805-0.04725 0.32349-0.08552 0.66426-0.10268 0.99882-0.12901 0.09089-0.02548 0.19343-0.0043 0.28351-0.03259 0.34968-0.11 0.47649-0.36245 0.56631-0.66273 0.14494-0.95235 0.12382-1.9193 0.11348-2.8785-0.0086-1.888-0.0099-3.776 0.0021-5.664 0.0083-3.1302-0.17878-6.2567-0.31879-9.3832-0.176-3.4651-0.19753-6.9357-0.0096-10.4 0.08474-1.4284 0.27873-2.8483 0.40783-4.2732-0.0046-0.35191 0.08566-0.74508-0.04777-1.0885-0.02888-0.07433-0.07134-0.14363-0.10701-0.21544-0.09025-0.08008-0.16878-0.17297-0.27074-0.24024-0.41245-0.27212-1.0897-0.23219-1.5669-0.21942-1.4094 0.05946-2.8105 0.21995-4.2094 0.38039-2.6207 0.32126-5.2349 0.68144-7.8589 0.97964-2.4745 0.28648-4.9563 0.51481-7.4451 0.66422-1.7658 0.09585-3.5352 0.10358-5.3034 0.12695-1.2725 0.06421-2.5459 0.08806-3.8196 0.11723-0.88302 0.04322-1.7625 0.11771-2.6427 0.19333-0.59159 0.05724-1.1866 0.07144-1.7799 0.10708-0.29312 0.02794-0.63938 1e-3 -0.8833 0.18659-0.07523 0.05721-0.12722 0.136-0.19083 0.20401-0.17569 0.32416-0.11243 0.68497-0.1377 1.0335-0.05146 0.44387-0.07605 0.88951-0.08608 1.3356-0.04224 0.41541 0.08138 0.80044 0.20018 1.196 0.07742 0.25777 0.15631 0.51516 0.23447 0.77275 0.03263 0.28618 0.47475 0.24394 0.44212-0.04225 0.01938-0.25792 0.02955-0.51655 0.05814-0.77374 0.04161-0.37446 0.15217-0.74502 0.12968-1.1252 0.01721-0.43444 0.03829-0.86877 0.089-1.3012 0.0146-0.21953 0.01361-0.15976 0.01651-0.37083 0.0011-0.07486 0.0094-0.14986 4e-3 -0.22457-4.7e-4 -0.0071-0.0043-0.02167-0.01127-0.01856-0.01579 0.0071-0.02158 0.02539-0.03237 0.03809-0.10787 0.0822-0.0805 0.08166-0.20101 0.11001-0.0039 8.61e-4 0.0041-0.0074 0.0081-0.0081 0.14193-0.02743 0.29-0.01997 0.43293-0.03929 0.60362-0.03922 1.2084-0.06131 1.811-0.11477 0.85766-0.0807 1.7182-0.16526 2.5816-0.15235 0.5804-0.02791 1.1594-0.07154 1.7405-0.08818 0.69902-0.02003 0.61415-0.0092 1.3259-0.01189 0.24223-8.61e-4 0.48444-0.0039 0.72667-0.0059 1.7872-0.02362 3.5756-0.0295 5.3607-0.12057 2.5099-0.15097 5.0136-0.37491 7.5092-0.66336 2.6254-0.29216 5.2404-0.6495 7.8624-0.96508 1.3644-0.15376 2.7313-0.30599 4.1051-0.36871 0.26487-0.0085 0.3045-0.01527 0.54613-0.0059 0.05597 0.0022 0.11202 0.0048 0.16762 0.01102 0.04856 0.0055 0.1579 0.06016 0.14563 0.0168-0.01077-0.03811-0.04183-0.0688-0.06274-0.10321-0.0016-0.01551-0.02002-0.03977-0.0047-0.04653 0.0042-0.0019 0.02064 0.04865 0.02867 0.12964 0.01226 0.12361 0.0095 0.21389 0.0049 0.34286-0.0034 0.09338-0.0094 0.18666-0.01413 0.28-0.13425 1.4366-0.32639 2.8689-0.40816 4.3095-0.18899 3.4963-0.1869 6.9986-0.0024 10.496 0.13928 3.1102 0.32321 6.2204 0.31783 9.3342-0.01 1.8928 6.28e-4 3.7856 0.02569 5.6782 0.0064 0.8746 0.02705 1.7524-0.06331 2.6242-5e-3 0.0254-0.03741 0.06049-0.01505 0.07622 0.02043 0.01437 0.0382-0.03202 0.05999-0.04461 0.03434-0.01984 0.0715-0.03526 0.10762-0.05225 0.01901-0.0089 0.03639-0.02465 0.05774-0.02551 0.0085-4.3e-4 0.01247 0.01925 5e-3 0.02297-0.02071 0.01029-0.04664 0.0062-0.06997 0.0093-0.34015 0.02386-0.67927 0.08489-1.0201 0.07115-0.52402 0.04075-1.0496 0.03987-1.5752 0.03203-0.89474 0.0029-1.7895 0.0021-2.6842 0-1.1757-0.0028-2.3516 0.0029-3.527-0.02243-2.1915-0.0451-4.3823-0.11043-6.5727-0.18776-3.4249-0.11768-6.8585-0.26392-10.279 0.0281-0.53922 0.04811-1.0794 0.0878-1.6176 0.14433-1.599 0.16795-3.1879 0.425-4.7537 0.76536-0.14017 0.16188-0.04964 0.01417 0.16971 0.3396 0.0069 0.01016-0.01851 0.04234-0.02049 0.03053-0.01126-0.06691-0.01159-0.1353-0.0085-0.20295 0.01403-0.3097 0.07466-0.61676 0.07936-0.92706 0.10953-1.685 0.14786-3.3736 0.04051-5.0601-0.19518-2.6216-0.49747-5.2354-0.80888-7.8472-0.38017-3.1471-0.75864-6.2953-1.0365-9.4516-0.09728-1.7956-0.18995-3.5938-0.13186-5.392 0.07002-0.57265-0.81465-0.66331-0.88468-0.09066z" opacity=".98"/>
  <path d="m4.8613 9.8057c0.53789-0.3831 1.0247-0.8239 1.5199-1.2521 0.19185-0.15811 0.38491-0.3191 0.60316-0.44704 0.02801-0.01642 0.12126-0.04548 0.08812-0.04286-0.37174 0.02935 0.33331 0.33039-0.49965-0.19824-0.2303 0.73032-0.60213 1.4083-0.97694 2.0829-0.46195 0.77018-0.93698 1.5338-1.347 2.3287-0.10645 0.25975-0.26795 0.58527 0.17682 0.75416 0.30693 0.11655 0.70433-0.29368 0.89062-0.44411 0.72413-0.62265 1.4447-1.2486 2.1742-1.8661 1.0473-0.89743 2.1107-1.7789 3.1477-2.6864 0.35823-0.29088-0.09113-0.75465-0.44938-0.46377-0.31107 0.23422-0.85236 0.63729-1.1495 0.87967-0.70234 0.57298-1.3611 1.1908-2.0621 1.7654-0.72288 0.61907-1.4495 1.2344-2.1647 1.861-0.07076 0.06016-0.14097 0.12086-0.21228 0.18048-0.04244 0.03548-0.14982 0.05576-0.12896 0.10478 0.02354 0.05529 0.14534-0.0047 0.18989 0.03839 0.09195 0.08894 0.12611 0.21604 0.18623 0.32543 0.0034 0.0061-0.01032-0.0098-0.01548-0.0147 0.02061-0.0519 0.04122-0.10381 0.06184-0.15571 0.40398-0.78497 0.86888-1.5424 1.3511-2.289 0.46452-0.75711 0.89272-1.5494 1.0873-2.4055-0.12828-0.14913-0.21419-0.33954-0.38482-0.44738-0.06982-0.04413-0.16939 0.0207-0.24941 0.0465-0.28456 0.09175-0.5944 0.43722-0.82956 0.59808-0.49108 0.42732-0.98858 0.85378-1.4256 1.3281-0.32392 0.2709 0.09459 0.69024 0.4185 0.41934z" opacity=".98"/>
  <path d="m4.8218 16.117c0.70562-0.49999 1.2858-1.1308 1.9106-1.7098 0.50651-0.46933 0.95332-0.85151 1.4753-1.3062 1.26-1.0599 2.4752-2.1627 3.7101-3.2466 0.6408-0.56419 1.311-1.0994 1.963-1.6524 0.13601-0.11536 0.2846-0.22018 0.4039-0.35012 0.11784-0.12835 0.20191-0.27978 0.30287-0.41968 0.33185-0.59357 0.13046-0.33625 0.58381-0.78495 0.12838-0.12708-0.06794-0.29329-0.19632-0.16621-0.44616 0.44166-0.18343 0.24802-0.80343 0.56315-0.15061 0.08609-0.31114 0.15911-0.45184 0.25827-0.14359 0.10119-0.2641 0.22721-0.39703 0.33995-0.65698 0.55723-1.326 1.1027-1.9722 1.6705-1.2358 1.0847-2.4536 2.1866-3.6952 3.2658-1.1248 1.0135-2.2691 2.0223-3.2536 3.1539-0.29693 0.27181 0.12299 0.65621 0.41992 0.3844z" opacity=".98"/>
  <path d="m9.0652 15.255c0.51451-0.28208 0.93591-0.67256 1.3637-1.0513 0.7404-0.65548 0.36097-0.32678 1.1378-0.98451 1.3082-1.054 2.5651-2.1597 3.8206-3.2656 1.4013-1.2846-0.11567 0.14226 1.1911-1.1992 0.05879-0.06034 0.8835-0.83026 0.9938-0.93338 0.30007-0.28056-0.13336-0.66903-0.43343-0.38847-0.20791 0.19439-0.80334 0.75658-0.99864 0.91383-0.21795 0.17548-0.45414 0.33103-0.68121 0.49654-0.21879 0.18408-0.43758 0.36817-0.65636 0.55225-0.64859 0.56691-1.2846 1.1459-1.9351 1.7109-0.85787 0.74524-0.37042 0.30348-1.2318 1.0417-0.20841 0.17862-0.4129 0.36102-0.61935 0.54154-0.78728 0.70398-1.5664 1.4158-2.3438 2.1286-0.33763 0.25413 0.054964 0.69123 0.3926 0.4371z" opacity=".98"/>
  <path d="m6.3179 19.962c0.29943-0.34118 0.6909-0.60371 1.0107-0.92618 0.17687-0.17833 0.3217-0.38187 0.49844-0.56031 0.36824-0.37181 0.74731-0.66837 1.1526-1.0024 0.22752-0.18751-0.062176-0.48205-0.28969-0.29454-0.40799 0.33626-0.76362 0.64543-1.2095 0.94381-0.21561 0.14427-0.45769 0.25377-0.67056 0.40141-0.41383 0.28703-0.77223 0.6468-1.08 1.0274-0.31732 0.38064 0.27071 0.79145 0.58804 0.41081z" opacity=".98"/>
  <path d="m5.4728 18.519c0.79759-0.68293-0.39024 0.34859 0.6701-0.641 0.14358-0.134 0.30032-0.25562 0.45048-0.38342 0.32251-0.27451-0.10158-0.69203-0.42409-0.41752-0.1488 0.12666-0.2901 0.26112-0.4464 0.37997-0.23522 0.17887-0.50367 0.31882-0.73298 0.505-0.43022 0.31257 0.05265 0.86953 0.48288 0.55696z" opacity=".98"/>
  <path d="m10.471 17.491c0.93783-1.0669 2.0693-1.9796 3.1575-2.9147 1.9261-1.5858 3.7946-3.2276 5.7369-4.797 1.1448-0.8961 2.3006-1.7786 3.4336-2.6872 0.36854-0.29555 0.72816-0.60063 1.1047-0.88762 0.41713-0.31795 1.3961-0.99398 1.8637-1.3197 0.29835-0.20781-0.02269-0.59405-0.32104-0.38624-0.39366 0.27419-1.5358 1.0733-1.885 1.2999-1.2193 0.79136-1.28 0.73915-2.4844 1.5871-0.40158 0.28274-0.78509 0.58638-1.1734 0.88425-0.38213 0.29314-0.75854 0.59247-1.1378 0.88871-1.9459 1.5779-3.8245 3.221-5.739 4.8303-0.88136 0.75577-0.62557 0.52878-1.468 1.2804-0.63572 0.56718-1.3195 1.12-1.7636 1.8341-0.29945 0.4375 0.37642 0.82517 0.67588 0.38767z" opacity=".98"/>
  <path d="m10.43 19.81c1.1401-0.9267 2.2986-1.8335 3.4741-2.7224 1.2726-0.93183 2.4575-1.9561 3.6671-2.9539 0.2264-0.18674 1.5395-1.2536 1.779-1.4483 0.957-0.79865 1.9225-1.5984 2.8123-2.4611 0.28647-0.27776 0.53362-0.58901 0.83002-0.8579 0.2554-0.2317 0.54755-0.42678 0.82132-0.64017 0.11343-0.08841-0.02315-0.23526-0.13658-0.14684-0.27381 0.21341-0.53092 0.44619-0.82141 0.64023-0.33722 0.22526-0.71235 0.39926-1.0572 0.61465-1.075 0.67145-2.095 1.4229-3.0695 2.211-0.25188 0.20477-1.5517 1.2608-1.788 1.4557-1.1992 0.98911-2.3594 2.0188-3.6153 2.9491-0.80895 0.61803-1.6107 1.2417-2.3971 1.8838-0.26023 0.21246-0.66929 0.53672-0.91648 0.79408-0.082091 0.08547-0.14958 0.18181-0.22438 0.27271-0.31623 0.41567 0.32593 0.82507 0.64216 0.4094z" opacity=".98"/>
  <path d="m7.8919 24.629c1.6853-1.0989 3.2063-2.4007 4.742-3.6663 0.43028-0.35762 2.4866-2.0623 2.8638-2.3945 0.5087-0.44806 0.98107-0.93003 1.4933-1.3747 0.49908-0.43322 2.1701-1.7558 2.75-2.2175 0.2946-0.23457-0.06778-0.61596-0.36238-0.3814-0.25754 0.20506-2.6324 2.0972-2.773 2.2036-0.54475 0.41227-1.1201 0.78998-1.6633 1.2039-0.72824 0.55488-2.1749 1.764-2.8973 2.3622-1.2606 1.0405-1.0775 0.89568-2.2666 1.855-0.54418 0.43899-1.1027 0.86322-1.6385 1.3107-0.23348 0.19497-0.44496 0.41119-0.6789 0.60582-0.38095 0.27899 0.05005 0.77217 0.431 0.49318z" opacity=".98"/>
  <path d="m7.3654 22.955c0.39766-0.33915 0.18783-0.16878 0.63132-0.50922 0.33556-0.2576-0.06239-0.692-0.39795-0.43441-0.45175 0.3468-0.22732 0.18098-0.67242 0.49842-0.34389 0.2842 0.09516 0.72941 0.43906 0.4452z" opacity=".98"/>
  <path d="m7.8536 28.814c1.6275-1.3509 3.2198-2.7369 4.8334-4.1017 1.5577-1.3174 3.0607-2.687 4.6261-3.997 0.76742-0.64221 1.544-1.2752 2.3229-1.9058 0.86876-0.70326 1.767-1.3762 2.62-2.0955 0.8589-0.72433 1.6759-1.4893 2.5138-2.2339 0.79177-0.61459 1.5835-1.2292 2.3753-1.8438 0.26102-0.20018-0.04823-0.5381-0.30926-0.33792-0.8007 0.6067-1.6014 1.2134-2.4021 1.8201-0.93984 0.6399-1.906 1.2486-2.8195 1.9197-0.90842 0.6673-1.7681 1.3884-2.6426 2.0927-2.3787 1.9157-4.6769 3.91-6.9485 5.931-1.0353 0.89562-2.0734 1.7879-3.0941 2.6974-0.44622 0.3976-0.8828 0.77759-1.304 1.1955-0.11263 0.11177-0.21628 0.23085-0.32441 0.34627-0.39612 0.35797 0.1569 0.87078 0.55302 0.51282z" opacity=".98"/>
  <path d="m21.867 14.78c1.5906-1.3325 3.1467-2.6992 4.7236-4.0454 0.39168-0.36647 1.803-1.6764 2.1975-2.0854 1.6928-1.7549 9.41e-4 -0.20089 1.5693-1.5927 0.07993-0.07093-0.02966-0.17441-0.10958-0.10348-0.24728 0.21945-0.47715 0.45662-0.74182 0.65834-0.33503 0.25534-0.71047 0.46314-1.0532 0.70972-0.46094 0.33162-2.0022 1.5364-2.4214 1.8621-1.5912 1.3462-3.2042 2.6816-4.6508 4.1609-0.3367 0.31485 0.1497 0.75074 0.4864 0.43589z" opacity=".98"/>
  <path d="m21.541 13.346c0.06739-0.08046 0.12728-0.16669 0.20218-0.24138 0.1221-0.12175 0.26079-0.22871 0.38741-0.34653 1.4318-1.3324-0.53409 0.45541 1.2612-1.186 0.28465-0.26025 0.58289-0.50822 0.85952-0.77562 0.34533-0.33382 0.67031-0.6848 1.0055-1.0272 1.4848-1.3837 0.74798-0.7159 2.2078-2.0058 0.2503-0.22117-0.09137-0.54521-0.34168-0.32405-1.4613 1.2912-0.70689 0.63838-2.2654 1.9565-0.38195 0.3003-0.77463 0.58954-1.1459 0.90091-0.30142 0.25283-0.58545 0.5226-0.87079 0.79061-0.64699 0.60772-1.2849 1.2335-1.8081 1.9364-0.2488 0.32899 0.25944 0.65109 0.50825 0.3221z" opacity=".98"/>
  <path d="m8.1875 31.74c0.10921-0.09215 0.22193-0.18094 0.32763-0.27646 0.64509-0.58301 1.2494-1.2045 1.8818-1.7988 0.62147-0.58409 1.5425-1.4174 2.1603-1.9798 2.8111-2.5083 5.642-4.9981 8.4928-7.4686 3.261-2.7914 6.7135-5.3858 10.193-7.9439 1.0589-0.76367 2.1082-1.5404 3.22-2.2396 0.16801-0.10567 0.33543-0.21297 0.51245-0.30549 0.03611-0.01888 0.15621-0.0049 0.12151-0.02587-0.21153-0.1278-0.45329-0.20767-0.67993-0.3115-2.0964 2.3673-4.4035 4.5699-6.7124 6.7621-1.835 1.7957-3.6842 3.5809-5.4844 5.4061-0.64053 0.64943-1.6832 1.7439-2.3229 2.4125-1.8362 1.816-3.5322 3.7418-5.2458 5.6535-0.75082 0.79598-1.4952 1.6027-2.3066 2.3483-0.33397 0.28523 0.10667 0.7176 0.44065 0.43236 0.90195-0.7176 1.7603-1.4358 2.4923-2.3101 1.7084-1.9058 3.4501-3.785 5.2668-5.6057 0.45444-0.47628 1.8621-1.9549 2.3027-2.403 1.7927-1.8234 3.6516-3.5923 5.4786-5.3866 1.7209-1.6411 1.2103-1.1462 2.9033-2.7924 1.1691-1.1368 2.3425-2.2726 3.4225-3.4825 0.19906-0.223 0.38303-0.45695 0.57454-0.68542-0.14104-0.27013-0.19421-0.59653-0.4231-0.81038-0.08044-0.07516-0.22108 0.06322-0.32112 0.11506-0.18967 0.09828-0.36642 0.21642-0.54336 0.33291-1.1047 0.72727-2.1545 1.5237-3.2359 2.2788-3.5042 2.5645-6.9748 5.1736-10.251 7.9821-2.8564 2.4754-5.6846 4.9779-8.4843 7.5069-0.99156 0.9116-1.9865 1.8178-2.9353 2.7672-0.29872 0.2989-0.76935 0.7734-1.0604 1.1084-0.08756 0.10077-0.16447 0.20893-0.24671 0.3134-0.31405 0.29946 0.14859 0.70603 0.46264 0.40656z" opacity=".98"/>
  <path d="m15.15 33.323c0.11638-0.10109 0.23665-0.19854 0.34912-0.30327 0.78954-0.73518 1.5434-1.5056 2.3078-2.2622 1.3336-1.3199 1.3653-1.3457 2.8093-2.7557 1.8685-1.8558 3.7147-3.7306 5.5897-5.581 0.6065-0.59855 1.2245-1.1873 1.8294-1.7872 3.0492-3.024 0.47444-0.55904 3.4477-3.3662 0.47934-0.43367 0.95869-0.86733 1.438-1.301 0.31439-0.28443-0.12503-0.69144-0.43942-0.407-0.4804 0.43464-0.96081 0.86927-1.4412 1.3039-0.57849 0.5162-1.1541 1.0352-1.7355 1.5486-0.63366 0.55962-1.289 1.0988-1.9097 1.6706-0.63093 0.58128-1.2333 1.188-1.8437 1.7874-1.88 1.846-3.7244 3.7223-5.581 5.5879-2.9296 2.9673-0.23143 0.23688-2.7664 2.796-0.7563 0.7635-1.5257 1.5215-2.2483 2.3126-0.10344 0.11324-0.19964 0.23186-0.29947 0.34779-0.31586 0.31944 0.17763 0.72834 0.49348 0.40891z" opacity=".98"/>
  <path d="m18.321 34.903c0.1011-0.10544 0.2073-0.20695 0.3033-0.31631 0.17364-0.1978 0.33057-0.40762 0.50521-0.60468 0.31346-0.35372 0.63875-0.69851 0.95877-1.0473 1.4763-1.6089 2.9832-3.1908 4.499-4.7685 3.4738-3.5862 0.04355-0.04852 3.5623-3.6667 0.56153-0.5774 1.1377-1.1432 1.6827-1.7337 0.49562-0.53704 0.94112-1.1118 1.438-1.6478 0.8107-0.8745 1.5528-1.5458 2.4166-2.3553 0.19047-0.1785-0.08529-0.42508-0.27576-0.24658-0.79396 0.74406-1.6802 1.5871-2.4987 2.2944-0.56082 0.48464-1.1622 0.92956-1.7122 1.4245-0.60419 0.54367-1.1714 1.1208-1.7479 1.6891-1.4699 1.4491-2.1631 2.1825-3.5911 3.6581-1.6045 1.6733-1.7412 1.7958-3.2675 3.4632-1.0408 1.137-2.1296 2.281-2.869 3.612-0.18979 0.38608 0.40666 0.63178 0.59644 0.2457z" opacity=".98"/>
  <path d="m22.542 34.848c0.15409-0.17519 0.31169-0.34785 0.46228-0.52558 1.4894-1.7577-0.25962 0.24656 1.6117-1.9243 1.3274-1.5399 2.6975-3.0471 4.0735-4.5505 1.5139-1.4208 2.6462-3.1261 4.0494-4.6294 0.34607-0.37075 0.73376-0.70717 1.1006-1.0608 0.10711-0.10322-0.05237-0.24189-0.15948-0.13866-0.36746 0.35415-0.71985 0.72193-1.1024 1.0625-0.47103 0.41931-0.9762 0.80533-1.4566 1.2156-1.9612 1.6747-1.3413 1.1249-3.1525 2.997-1.3876 1.5115-2.772 3.0252-4.0941 4.5858-0.28059 0.33122-1.2805 1.5437-1.599 1.9822-0.14292 0.19676-0.26277 0.40677-0.39416 0.61016-0.2904 0.42765 0.37027 0.8036 0.66067 0.37595z" opacity=".98"/>
  <path d="m27.123 34.695c0.06005-0.07044 0.11971-0.14117 0.18013-0.21134 0.25147-0.29201 0.5329-0.60329 0.75467-0.91151 0.49846-0.69278 0.53842-0.90701 1.1062-1.5992 0.21282-0.25945 0.46168-0.4924 0.69252-0.7386 0.1466-0.15637-0.09496-0.34616-0.24157-0.18979-0.23206 0.24752-0.45187 0.50512-0.69617 0.74257-0.25971 0.25242-0.54802 0.47898-0.81435 0.72556-0.22768 0.2108-0.45871 0.41957-0.66736 0.64628-0.34212 0.37174-0.62478 0.801-0.86795 1.2318-0.235 0.35854 0.3189 0.66276 0.5539 0.30422z" opacity=".98"/>
  <path d="m30.406 35.371c0.47461-0.40601 0.78554-0.93807 1.1579-1.4169 0.18238-0.23455 0.37856-0.45984 0.56784-0.68975 0.30495-0.37042-0.26731-0.7652-0.57226-0.39478-0.18871 0.22923-0.36968 0.46398-0.56614 0.68769-0.39828 0.45353-0.8742 0.86175-1.1884 1.3735-0.34005 0.3891 0.26108 0.82933 0.60112 0.44022z" opacity=".98"/>
  <path d="m7.5394 36.343c0.60869-0.97249 1.3382-1.88 2.0345-2.8013 0.68892-0.91704 1.4091-1.8131 2.1376-2.7039 0.26634-0.32574-0.23688-0.67055-0.50323-0.34481-0.73538 0.89936-1.4888 1.7865-2.1991 2.7028-0.67708 0.95813-1.3401 1.9238-1.9287 2.9306-0.16731 0.29704 0.29157 0.51363 0.45888 0.2166z" opacity=".98"/>
  <path d="m9.1882 37.337c0.52251-0.59027 1.0068-1.2217 1.4058-1.8893 0.1312-0.21951 0.21476-0.46306 0.36432-0.67251 0.13126-0.18383 0.31426-0.3319 0.47139-0.49786 0.05522-0.05832-0.03488-0.12981-0.0901-0.07149-0.93181 0.98417 0.0408 0.02954-1.1425 0.95471-0.64969 0.50796-1.199 1.1411-1.6184 1.8197-0.27558 0.39457 0.33399 0.75134 0.60957 0.35676z" opacity=".98"/>
  <path d="m11.716 37.762c0.21975-0.2663 0.31278-0.59775 0.50799-0.87582 0.12796-0.18227 0.29594-0.3382 0.44391-0.50731 0.15557-0.17779-0.11909-0.37919-0.27466-0.2014-0.14799 0.16912-0.2776 0.35321-0.44396 0.50736-0.26025 0.24116-0.60417 0.3986-0.83972 0.66583-0.31773 0.39254 0.2887 0.80388 0.60643 0.41134z" opacity=".98"/>
  <path d="m28.565 11.927c0.98527-0.61223 1.8726-1.3527 2.7556-2.0813 0.31242-0.25778 0.6355-0.50595 0.92812-0.78253 0.28935-0.27349 0.54326-0.57663 0.8149-0.86494 1.0104-0.90427 0.5268-0.47494 1.4497-1.289 0.28648-0.25267-0.10387-0.62355-0.39035-0.37088-0.9191 0.81064-0.43199 0.38866-1.464 1.2633-0.32942 0.22563-0.66963 0.43863-0.98826 0.67689-0.32392 0.24223-0.62594 0.50802-0.93766 0.76331-0.86962 0.7122-1.739 1.4246-2.6022 2.1433-0.41849 0.28094 0.01552 0.82272 0.43402 0.54178z" opacity=".98"/>
  <path d="m33.934 14.198c0.12229-0.13104 0.24457-0.26209 0.36686-0.39313 0.16426-0.19162 0.32034-0.38935 0.49276-0.57487 0.1762-0.18958 0.36819-0.36638 0.55229-0.54956 0.26102-0.25974-0.14024-0.59766-0.40126-0.33792-0.18473 0.18382-0.36285 0.37338-0.55418 0.55145-1.351 1.2573 0.05035-0.12783-0.98316 0.90764-0.30618 0.34093 0.22051 0.73731 0.52669 0.39638z" opacity=".98"/>
  <path d="m32.861 18.299c0.4446-0.33686 0.8604-0.70597 1.269-1.0786 0.21624-0.19722 0.44205-0.38667 0.64174-0.59801 1.9397-2.0528-0.61098 0.43103 1.4403-1.5259 0.22716-0.2118 0.45431-0.42359 0.68147-0.63539 0.21677-0.20211-0.09547-0.48274-0.31224-0.28063-0.22699 0.21164-0.45397 0.42328-0.68096 0.63491-1.7796 1.6108 0.24168-0.1666-1.6442 1.332-0.22902 0.18198-0.43612 0.38588-0.65302 0.57991-0.40485 0.36215-0.81196 0.72358-1.1942 1.106-0.35974 0.29272 0.09248 0.75843 0.45222 0.46572z" opacity=".98"/>
  <path d="m30.575 29.148c0.0883-0.0727 0.17971-0.14235 0.26491-0.21809 0.5716-0.50816 1.1102-1.0456 1.6897-1.5469 0.55468-0.47983 0.83594-0.69516 1.4031-1.1472 0.36799-0.27757 0.64361-0.4933 1.0175-0.74962 0.10052-0.06891 0.19981-0.14026 0.30808-0.19852 0.02565-0.01379 0.1159-0.0055 0.08783-0.01452-0.49191-0.1579-0.37594-0.16263-0.6682-0.09889-0.70928 1.415-1.4214 2.8288-2.1642 4.2294-0.16339 0.30614-0.41087 0.74958-0.55072 1.0793-0.04926 0.11613-0.10747 0.23242-0.12394 0.35607-0.01554 0.11674-0.08336 0.29586 0.02967 0.35176 0.78666 0.38899 0.88859 0.14708 1.3788-0.21427 0.93447-0.73926 1.8907-1.4609 2.9381-2.063 0.07345-0.03006 0.18381-0.02457 0.22034-0.09019 0.03273-0.05878-0.13481 0.0775-0.20507 0.06276-0.10929-0.02293-0.17229-0.17617-0.28379-0.16532-0.07993 0.0078-0.06479 0.13468-0.09641 0.20233-0.30054 0.64298-0.09238 0.22738-0.4781 0.95433-0.68697 1.2432-1.2202 2.5477-1.7706 3.8443-0.22149 0.51604-0.57437 1.159 0.26245 1.4507 0.1953 0.06808 0.70416-0.12095 0.90366-0.18511 0.2215 0.01224 0.38607-0.15458 0.59185-0.18534 0.10587-0.01582 0.21441 0.0069 0.32161 0.01032 0.48412 0.06092 0.57825-0.56582 0.09412-0.62674-0.14877-0.02888-0.80419-0.16265-0.93954-0.16039-0.13618 0.0023-0.26449 0.05972-0.39673 0.08958-0.10106 0.03117-0.21024 0.04563-0.30316 0.09351-0.08092 0.04169 0.14202 0.28125 0.22352 0.43132 0.0048 0.0088-0.03187 0.01791-0.03088 0.0082 8e-3 -0.07811 0.03078-0.15456 0.05355-0.23019 0.03986-0.13242 0.08941-0.26223 0.13412-0.39335 0.47169-1.293 1.0114-2.564 1.6811-3.7832 0.13781-0.2645 0.42905-0.79575 0.53076-1.0906 0.0584-0.16929 0.15998-0.34493 0.12664-0.51982-0.09804-0.51425-0.32536-0.62872-0.80625-0.55742-0.11516 0.01707-0.20952 0.09397-0.31427 0.14096-1.0777 0.6225-2.0729 1.3541-3.0385 2.1135-0.1135 0.08728-0.35904 0.12721-0.34049 0.26183 0.02523 0.18311 0.31222 0.23954 0.43019 0.3892 0.0237 0.03006-0.05034 0.14081-0.04082 0.10477 0.12341-0.46717 0.38759-0.88841 0.61105-1.3188 0.75752-1.4286 1.4843-2.8705 2.1992-4.3172 0.03754-0.20497 0.2136-0.42876 0.11263-0.6149-0.34869-0.64285-0.89559-0.21172-1.2297 0.01942-0.42352 0.29296-0.62524 0.45644-1.0506 0.78162-1.1817 0.94964-2.369 1.91-3.3393 3.0497-0.35903 0.36047 0.19785 0.82527 0.55688 0.4648z" opacity=".98"/>
 </g>
</svg>
