<?xml version="1.0" encoding="UTF-8"?>
<svg width="16mm" height="16mm" version="1.1" viewBox="0 0 16 16" xmlns="http://www.w3.org/2000/svg" xmlnsCc="http://creativecommons.org/ns#" xmlnsDc="http://purl.org/dc/elements/1.1/" xmlnsRdf="http://www.w3.org/1999/02/22-rdf-syntax-ns#">

 <g transform="translate(.16475 -.21864)">
  <path d="m0.2055 16.237c-0.1418-0.05785-0.35188-0.3025-0.37601-0.43788-0.01257-0.07056-0.01749-3.5102-0.01093-7.6437 0.01169-7.3682 0.01351-7.5175 0.09303-7.6222 0.04461-0.05871 0.12912-0.14326 0.18782-0.18789 0.10477-0.07966 0.24525-0.08114 7.7237-0.08114 7.4784 0 7.6189 0.0015 7.7237 0.08114 0.05869 0.04462 0.14321 0.12917 0.18782 0.18789 0.07963 0.10481 0.08111 0.24534 0.08111 7.7265 0 7.4812-0.0014 7.6217-0.08111 7.7265-0.04461 0.05871-0.12913 0.14326-0.18782 0.18788-0.10467 0.07959-0.25127 0.08129-7.6819 0.0891-4.1664 0.0044-7.6131-0.0075-7.6593-0.02634zm14.295-7.9772v-6.6804h-13.356v13.361h13.356z" fill="#fff" stroke-width=".041744"/>
 </g>
</svg>
