<?xml version="1.0" encoding="UTF-8"?>
<svg width="21.74mm" height="22.632mm" version="1.1" viewBox="0 0 21.74 22.632" xmlns="http://www.w3.org/2000/svg" xmlnsCc="http://creativecommons.org/ns#" xmlnsDc="http://purl.org/dc/elements/1.1/" xmlnsRdf="http://www.w3.org/1999/02/22-rdf-syntax-ns#">
 <g transform="translate(-94.503 -135.91)">
  <path d="m105.15 158.54c-0.0289-0.0728-0.19857-2.4196-0.37696-5.2152-0.17839-2.7956-0.40018-5.1588-0.49288-5.2515s-2.4686-0.31455-5.2799-0.493c-2.8112-0.17844-4.8137-0.39746-4.4499-0.48671 0.3638-0.0892 2.662-0.27519 5.1072-0.41321 2.4452-0.13801 4.5214-0.32662 4.6139-0.41912s0.31154-2.4348 0.48676-5.2052c0.17521-2.7703 0.3675-5.0859 0.42731-5.1457 0.0598-0.0598 0.24245 2.2205 0.40587 5.0674s0.36222 5.2413 0.44178 5.3208c0.0796 0.0796 2.3803 0.29061 5.1127 0.46899 2.7324 0.17838 5.0275 0.356 5.1003 0.39471 0.0728 0.0387-2.1678 0.22159-4.979 0.40641-2.8112 0.18481-5.1699 0.39454-5.2414 0.46607-0.0715 0.0715-0.286 2.4942-0.4766 5.3838-0.19061 2.8896-0.37024 5.1942-0.39918 5.1215z" fill="#fff" stroke-width=".26458"/>
 </g>
</svg>
