<?xml version="1.0" encoding="UTF-8"?>
<svg width="20.509mm" height="20.665mm" version="1.1" viewBox="0 0 20.509 20.665" xmlns="http://www.w3.org/2000/svg" xmlnsCc="http://creativecommons.org/ns#" xmlnsDc="http://purl.org/dc/elements/1.1/" xmlnsRdf="http://www.w3.org/1999/02/22-rdf-syntax-ns#">
 <g transform="translate(-96.458 -137.31)">
  <path d="m106.46 157.82c-0.039-0.65484-0.1461-2.7916-0.23806-4.7484l-0.16718-3.5578-2.8755 3.624c-1.5815 1.9932-2.9222 3.624-2.9793 3.624-0.0571 0 1.0289-1.6965 2.4133-3.77 1.3844-2.0735 2.4274-3.7975 2.3178-3.831-0.10957-0.0335-2.0437 0.46344-4.2981 1.1043-2.2544 0.64088-4.1313 1.1329-4.1708 1.0933-0.03955-0.0395 1.8285-0.77473 4.1513-1.6337 2.3227-0.85901 4.1401-1.6347 4.0385-1.7237-0.10156-0.089-1.9437-0.80245-4.0936-1.5854-2.1499-0.78292-3.8168-1.4527-3.7042-1.4883 0.11265-0.0357 1.9907 0.44994 4.1736 1.0791 2.1828 0.62915 4.0071 1.1151 4.0539 1.0799 0.0468-0.0352-0.97069-1.6528-2.2612-3.5948-2.7129-4.0824-2.7824-4.1922-2.6521-4.1922 0.0538 0 1.3408 1.6006 2.8599 3.5568s2.8513 3.5636 2.9604 3.5719c0.10914 8e-3 0.21322-1.2053 0.2313-2.6969 0.0181-1.4916 0.11841-3.5454 0.22296-4.5641l0.19009-1.8521 0.0745 2.7781c0.041 1.528 0.149 3.5994 0.24006 4.6031l0.16558 1.8249 2.7397-3.4786c1.5069-1.9132 2.7889-3.4786 2.849-3.4786 0.0601 0-0.94275 1.5776-2.2285 3.5057-1.2857 1.9282-2.4206 3.6458-2.5219 3.8171-0.11964 0.20225 0.44296 0.13429 1.6054-0.19394 5.8491-1.6516 7.3493-2.0543 7.4134-1.9902 0.0394 0.0393-1.8401 0.76432-4.1765 1.611-2.3364 0.84673-4.2992 1.6224-4.3618 1.7236-0.0626 0.10127 1.7895 0.87388 4.1158 1.7169s4.1927 1.5696 4.1477 1.6147c-0.045 0.045-1.9743-0.44662-4.2873-1.0926s-4.2519-1.128-4.3087-1.0712c-0.0859 0.0859 1.2417 2.1635 4.5298 7.0888 1.1214 1.6798 0.0831 0.50245-2.627-2.9787-1.589-2.0411-2.9229-3.5538-2.9642-3.3614-0.0413 0.19232-0.17232 2.3088-0.29112 4.7033-0.11881 2.3945-0.2479 3.8179-0.28687 3.163z" fill="#fff" stroke-width=".26458"/>
 </g>
</svg>
