<?xml version="1.0" encoding="UTF-8"?>
<svg width="29.633mm" height="25.929mm" version="1.1" viewBox="0 0 29.633 25.929" xmlns="http://www.w3.org/2000/svg" xmlnsCc="http://creativecommons.org/ns#" xmlnsDc="http://purl.org/dc/elements/1.1/" xmlnsRdf="http://www.w3.org/1999/02/22-rdf-syntax-ns#">
 <g transform="translate(-87.237 -119.33)">
  <path d="m101.85 142.61c-1.02-6.5103-3.3475-8.8941-9.5503-9.7816-0.92497-0.13234-1.7317-0.29057-1.7928-0.35164-0.0611-0.0611 0.6362-0.18874 1.5495-0.28374 3.2437-0.33739 5.6365-1.3624 7.1872-3.0788 1.3065-1.4461 1.9291-2.965 2.4724-6.0312l0.4471-2.5233 0.31116 2.1777c0.55282 3.8691 1.7956 6.2392 4.0203 7.6668 1.4025 0.89998 4.798 1.8871 6.4911 1.8871 1.5356 0 1.145 0.16339-1.4634 0.61219-2.5668 0.44165-4.9851 1.4339-6.1211 2.5116-1.574 1.4932-2.6515 4.151-3.0448 7.5106l-0.19539 1.6688z" fill="#fff" stroke-width=".26458"/>
 </g>
</svg>
