<?xml version="1.0" encoding="UTF-8"?>
<svg width="22.58mm" height="22.447mm" version="1.1" viewBox="0 0 22.58 22.447" xmlns="http://www.w3.org/2000/svg" xmlns:cc="http://creativecommons.org/ns#" xmlns:dc="http://purl.org/dc/elements/1.1/" xmlns:rdf="http://www.w3.org/1999/02/22-rdf-syntax-ns#">
 <metadata>
  <rdf:RDF>
   <cc:Work rdf:about="">
    <dc:format>image/svg+xml</dc:format>
    <dc:type rdf:resource="http://purl.org/dc/dcmitype/StillImage"/>
    <dc:title/>
   </cc:Work>
  </rdf:RDF>
 </metadata>
 <g transform="translate(-96.54 -137.32)">
  <path d="m107.76 159.64c-0.0979-0.43656-0.31865-2.4309-0.49055-4.4318s-0.3369-3.638-0.36667-3.638c-0.0298 0-1.2827 1.399-2.7843 3.1088s-2.9071 3.2874-3.1233 3.5057c-0.41249 0.41637-0.36963 0.3388 2.4607-4.4533 0.97391-1.649 1.7135-3.0553 1.6436-3.1252-0.0699-0.0699-2.0082 0.29365-4.3073 0.80794-2.2991 0.5143-4.2112 0.90405-4.2492 0.86611-0.0379-0.0379 1.7218-0.83642 3.9106-1.7744 2.1888-0.93801 4.0213-1.773 4.0724-1.8556 0.051-0.0825-1.6807-0.91285-3.8482-1.8451-2.1675-0.93225-3.9018-1.7342-3.854-1.782 0.0479-0.0479 1.9182 0.32307 4.1563 0.82429 2.2381 0.50122 4.1148 0.86687 4.1704 0.81255 0.0556-0.0543-0.91784-1.8292-2.1633-3.9443-1.2455-2.115-2.2293-3.8455-2.1862-3.8455 0.0431 0 1.3629 1.4585 2.933 3.2412 1.5701 1.7826 2.939 3.2756 3.0421 3.3176 0.10309 0.0421 0.33943-1.6843 0.5252-3.8365s0.4195-4.0705 0.5194-4.263c0.0999-0.19251 0.34033 1.5637 0.53429 3.9026 0.19395 2.3389 0.42631 4.2526 0.51634 4.2526 0.09 0 1.4634-1.4883 3.0519-3.3073s2.9338-3.3073 2.9896-3.3073c0.0558 0-0.13357 0.38695-0.42086 0.8599-2.0206 3.3264-4.0495 6.8703-3.9751 6.9436 0.0488 0.0481 1.9255-0.31757 4.1704-0.81259s4.1198-0.86195 4.1663-0.8154c0.0465 0.0465-1.695 0.84896-3.8701 1.7831-2.1751 0.93417-3.8714 1.7747-3.7695 1.8678s1.9379 0.92019 4.0801 1.838c2.1421 0.91778 3.8648 1.6986 3.8282 1.7352-0.0366 0.0366-1.8981-0.34397-4.1367-0.84569-2.2386-0.50173-4.1784-0.91223-4.3107-0.91223-0.24804 0 0.46431 1.3278 2.8926 5.3916 0.77197 1.2919 1.4036 2.3963 1.4036 2.4542s-1.321-1.386-2.9356-3.2088c-1.6146-1.8228-3.0218-3.3141-3.1273-3.3141-0.10545 0-0.36689 1.9348-0.58099 4.2995-0.2587 2.8574-0.44897 4.0332-0.56727 3.5057z" fill="#fff" stroke-width=".26458"/>
 </g>
</svg>
