<?xml version="1.0" encoding="UTF-8"?>
<svg width="30.93mm" height="29.502mm" version="1.1" viewBox="0 0 30.93 29.502" xmlns="http://www.w3.org/2000/svg" xmlns:cc="http://creativecommons.org/ns#" xmlns:dc="http://purl.org/dc/elements/1.1/" xmlns:rdf="http://www.w3.org/1999/02/22-rdf-syntax-ns#">
 <metadata>
  <rdf:RDF>
   <cc:Work rdf:about="">
    <dc:format>image/svg+xml</dc:format>
    <dc:type rdf:resource="http://purl.org/dc/dcmitype/StillImage"/>
    <dc:title/>
   </cc:Work>
  </rdf:RDF>
 </metadata>
 <g transform="translate(-5.8152 -6.7664)" stroke="#000">
  <path d="m12.001 10.19c-0.7495-0.18308-1.5194-0.24748-2.2888-0.25443-0.65269 0.030524-1.2672 0.29296-1.707 0.78549-0.082548 0.09244-0.14852 0.19844-0.22278 0.29767-0.19525 0.34458-0.50867 1.0642-0.2069 1.4388 0.042018 0.05217 0.10763 0.07978 0.16144 0.11967 0.075217 0.01535 0.14911 0.04017 0.22565 0.04604 0.38596 0.02959 0.79376-0.03853 1.1882-0.01358 0.45692 0.0289 0.65059 0.07806 1.1019 0.16034 0.68307 0.17193 1.3897 0.4113 1.9158 0.90347 0.26969 0.2523 0.34006 0.40838 0.5291 0.71308 0.38952 0.90464 0.08634 1.8284-0.28871 2.6805-0.56574 0.97178-1.1423 1.2963-2.2203 1.5015-0.43804 0.03812-0.9347 0.05514-1.2735-0.28273-0.1667-0.16623-0.2218-0.34011-0.31688-0.54927-0.092462-0.32607-0.16844-0.66887-0.10679-1.0096 0.021323-0.11784 0.06982-0.22911 0.10473-0.34367 0.027073-0.09053-0.10096-0.12882-0.12803-0.03829-0.036715 0.12496-0.087854 0.24656-0.11014 0.37487-0.062995 0.36263 0.017728 0.72648 0.11882 1.0725 0.1129 0.24296 0.16381 0.4122 0.36205 0.60319 0.37067 0.35711 0.90067 0.34806 1.3749 0.30422 1.1446-0.22094 1.7138-0.55227 2.3175-1.579 0.39244-0.89482 0.69745-1.8596 0.27978-2.8049-0.20278-0.32401-0.2724-0.48025-0.56146-0.74865-0.54343-0.50459-1.269-0.75266-1.9729-0.9287-0.46439-0.08436-0.65375-0.13295-1.1243-0.16249-0.39007-0.02449-0.77771 0.03064-1.1663 0.01565-0.058734-0.0023-0.11634-0.01689-0.1745-0.02534-0.03856-0.02228-0.085926-0.03371-0.11568-0.06684-0.28093-0.31284 0.029241-1.0093 0.19373-1.301 0.069156-0.09347 0.13041-0.19335 0.20747-0.28042 0.41464-0.46851 0.99554-0.71931 1.614-0.74889 0.75818 0.0065 1.5169 0.07001 2.2555 0.24993 0.0913 0.02435 0.12574-0.10477 0.03443-0.12912z" opacity=".98"/>
  <path d="m13.904 10.589c0.7746 0.0092 1.5431-0.091 2.3117-0.17201 0.80463-0.08163 1.6125-0.12438 2.4186-0.18802 0.34694-0.02424 0.68665-0.09364 1.0175-0.19841 0.09007-0.02857 0.04968-0.15595-0.0404-0.12738-0.3211 0.10198-0.65087 0.16906-0.98765 0.19257-0.80728 0.06375-1.6163 0.10652-2.4221 0.18834-0.76478 0.08061-1.5294 0.18056-2.3002 0.1713-0.09448 0.0017-0.092 0.13536 0.0025 0.13361z" opacity=".98"/>
  <path d="m16.579 10.989c-0.12494 1.5603-0.23379 3.1218-0.34262 4.6833-0.12232 1.4665-0.16936 2.9415-0.34872 4.4028-0.01357 0.0857-0.02714 0.17139-0.04071 0.25709-0.01476 0.09333 0.11723 0.11421 0.13199 0.02088 0.01378-0.08723 0.02757-0.17447 0.04135-0.2617 0.17937-1.4637 0.22722-2.9409 0.3494-4.4098 0.10882-1.5614 0.21766-3.1227 0.34259-4.6829 0.0068-0.09425-0.12644-0.10392-0.13328-0.0097z" opacity=".98"/>
  <path d="m19.103 18.986c-0.14595-1.162-0.33787-2.3162-0.44168-3.4831-0.0086-0.68407-0.0068-1.3887 0.22197-2.0441 0.09689-0.27754 0.20917-0.52828 0.48223-0.66565 0.07761-0.03904 0.17139-0.02859 0.25708-0.04289 0.07706 0.02642 0.16062 0.03854 0.23117 0.07927 0.32461 0.18741 0.50549 0.64322 0.51547 1.0016 0.0028 0.09886-0.02133 0.19665-0.03199 0.29498-0.17626 0.59567-0.65602 0.95967-1.1122 1.3367-0.02914 0.05896-0.07845 0.11173-0.08742 0.17688-0.02879 0.20899 0.09839 0.42999 0.18969 0.5972 0.25972 0.47569 0.60083 0.90081 0.9301 1.3285 0.54077 0.70986 1.1904 1.3226 1.799 1.9714 0.03863 0.04294 0.07726 0.08587 0.1159 0.12881 0.06321 0.07024 0.16254-0.01915 0.09933-0.08939-0.03926-0.04362-0.07851-0.08723-0.11777-0.13085-0.60576-0.64556-1.2522-1.2553-1.7906-1.9615-0.2664-0.34589-0.43681-0.55369-0.67535-0.91356-0.1177-0.17756-0.43839-0.62994-0.42854-0.87558 0.0019-0.04615 0.03386-0.08594 0.05079-0.12891 0.48399-0.40008 0.9848-0.78978 1.16-1.4264 0.01028-0.11012 0.03504-0.21985 0.03084-0.33037-0.01535-0.40408-0.22952-0.9143-0.60811-1.1073-0.09143-0.04662-0.19776-0.05502-0.29663-0.08252-0.10594 0.02416-0.22238 0.02053-0.3178 0.07249-0.2922 0.15909-0.42039 0.43316-0.525 0.73522-0.23199 0.66985-0.23501 1.3891-0.22529 2.0878 0.10386 1.1654 0.29437 2.3181 0.44135 3.4784 0.0051 0.09436 0.1385 0.08721 0.13344-0.0071z" opacity=".98"/>
  <path d="m23.335 12.493c-0.43992 0.44699-0.8163 0.97594-1.0078 1.5798-0.04813 0.15181-0.07257 0.31014-0.10886 0.4652-0.05958 0.71019 0.02857 1.5758 0.6806 2.0132 0.09954 0.06678 0.21803 0.09966 0.32704 0.14949 0.1228 4e-3 0.2464 0.0265 0.3684 0.01193 0.51961-0.06208 0.93596-0.47441 1.183-0.91008 0.06696-0.11809 0.11213-0.24727 0.1682-0.37091 0.19322-0.60252 0.2427-1.257-0.02147-1.8481-0.04459-0.09977-0.10577-0.19125-0.15866-0.28688-0.36262-0.52008-0.89211-0.74983-1.4994-0.836-0.09357-0.01316-0.11218 0.11917-0.01861 0.13233 0.56555 0.07878 1.0601 0.2861 1.4013 0.76867 0.04984 0.0889 0.10739 0.17391 0.14953 0.26671 0.25332 0.55782 0.20525 1.1781 0.0255 1.7485-0.05204 0.11651-0.09373 0.23822-0.15611 0.34954-0.22439 0.4005-0.59722 0.78309-1.0709 0.85269-0.10434 0.01533-0.21093-2.48e-4 -0.31639-3.71e-4 -0.09714-0.04207-0.20271-0.06845-0.29142-0.1262-0.61668-0.40142-0.69168-1.2229-0.64045-1.8843 0.03416-0.14835 0.0568-0.29984 0.10247-0.44506 0.18404-0.58528 0.54851-1.0977 0.97387-1.5312 0.06992-0.06356-0.01997-0.16244-0.08989-0.09888z" opacity=".98"/>
  <path d="m25.801 10.079c0.35373 1.4066 0.55906 2.8441 0.7543 4.2795 0.23443 1.9297 0.33088 3.8722 0.39744 5.8137 0.01348 0.46258 0.01821 0.9253 0.01922 1.388 2.08e-4 0.09449 0.13384 0.0942 0.13363-2.91e-4 -1e-3 -0.46417-0.0058-0.92832-0.0193-1.3923-0.06673-1.9461-0.16348-3.893-0.39858-5.8272-0.19598-1.4406-0.4022-2.8832-0.75734-4.2949-0.02366-0.091484-0.15304-0.058024-0.12938 0.03346z" opacity=".98"/>
  <path d="m27.128 16.166c0.56738-1.1488 0.97606-2.3675 1.3678-3.5847 0.06704-0.22278 0.13408-0.44557 0.20112-0.66835 0.02723-0.09049-0.10074-0.12899-0.12797-0.0385-0.06679 0.22197-0.13357 0.44395-0.20036 0.66592-0.3893 1.2097-0.79523 2.4208-1.3585 3.5627-0.0445 0.08336 0.07338 0.1463 0.11788 0.06294z" opacity=".98"/>
  <path d="m27.079 15.73c0.8706 0.91224 1.2922 2.1341 1.682 3.3074 0.05584 0.18555 0.11169 0.3711 0.16753 0.55665 0.02724 0.09048 0.1552 0.05196 0.12796-0.03852-0.05623-0.18676-0.11245-0.37352-0.16868-0.56028-0.39821-1.1978-0.83086-2.4442-1.726-3.3701-0.07412-0.05861-0.15701 0.04622-0.08288 0.10482z" opacity=".98"/>
  <path d="m30.005 10.986c0.07264 1.5273 0.12469 3.0553 0.16276 4.5839 0.03748 1.3869 0.04828 2.7742 0.0012 4.1609-0.0013 0.0611-0.06192 0.16442-0.0038 0.18329 0.07087 0.02301 0.14481-0.06201 0.18586-0.12419 0.06218-0.09419 0.07037-0.21449 0.10796-0.3209 0.04682-0.13254 0.0902-0.26655 0.14526-0.39589 0.14515-0.34097 0.19789-0.40183 0.38638-0.70645 0.26658-0.35179 0.65289-0.42467 1.0476-0.55085 0.36094-0.11539 0.33088-0.11326 0.68088-0.26725 0.36242-0.19971 0.64882-0.4925 0.93653-0.78289 0.06648-0.06716-0.0285-0.16117-0.09497-0.09401-0.27561 0.27869-0.54959 0.56061-0.89545 0.75462-0.34048 0.15031-0.31163 0.14844-0.66448 0.26127-0.42687 0.13649-0.83995 0.22487-1.1238 0.6089-0.22637 0.36728-0.40065 0.72244-0.5446 1.13-0.03703 0.10482-0.09867 0.20522-0.10626 0.31613-0.0043 0.06281 0.01002 0.18022 0.0727 0.17432 0.06025-0.0057 0.0025-0.12101 0.0038-0.18152 0.04715-1.3893 0.03641-2.7793-0.0012-4.1688-0.03806-1.5284-0.09004-3.0562-0.16274-4.5833-0.0019-0.09447-0.1355-0.0918-0.13361 0.0027z" opacity=".98"/>
  <path d="m30.387 15.172c0.54614-0.11509 1.0442-0.35809 1.5411-0.60252 0.08478-0.04172 0.02578-0.16163-0.059-0.1199-0.48857 0.24051-0.97785 0.48019-1.5151 0.59294-0.09156 0.02338-0.0585 0.15286 0.03306 0.12948z" opacity=".98"/>
  <path d="m30.298 11.3c0.64893-0.21909 1.2762-0.49285 1.9025-0.76832 0.0865-0.03804 0.0327-0.16037-0.0538-0.12233-0.62333 0.27416-1.2475 0.54671-1.8934 0.76469-0.08906 0.03158-0.0444 0.15753 0.04466 0.12595z" opacity=".98"/>
  <path d="m13.625 24.089c-0.70924-0.73605-1.3663-1.5195-2.1019-2.2295-0.29074-0.17896-0.4765-0.39665-0.85124-0.25813-0.3693 0.13651-0.64629 0.57808-0.82381 0.8818-0.31586 0.54039-0.51643 1.0876-0.75499 1.6652-0.51482 1.4628-1.059 3.0018-0.98488 4.5799 0.012329 0.26245 0.067471 0.52112 0.10121 0.78168 0.091834 0.23781 0.14947 0.49184 0.2755 0.71343 0.36132 0.63527 1.0058 1.102 1.7401 1.1837 0.54517 0.06059 0.7405-0.07603 1.229-0.25832 0.08838-0.03344 0.04109-0.15843-0.04729-0.12499-0.45128 0.17324-0.64086 0.30547-1.1462 0.2545-0.69283-0.069893-1.307-0.50631-1.6511-1.1033-0.122-0.21164-0.17835-0.45485-0.26753-0.68228-0.03338-0.25347-0.087857-0.50504-0.10014-0.76041-0.075132-1.5619 0.46636-3.0852 0.97483-4.5329 0.24169-0.58579 0.42609-1.0927 0.74144-1.6403 0.18892-0.32802 0.56301-0.99542 1.0712-0.84665 0.15006 0.04393 0.26738 0.16216 0.40107 0.24324 0.73417 0.70789 1.3889 1.4903 2.0968 2.2242 0.0643 0.06925 0.16222-0.02169 0.09793-0.09093z" opacity=".98"/>
  <path d="m15.576 27.057c-0.45878 0.40196-0.76461 0.92877-0.75392 1.5549 0.0025 0.14709 0.03804 0.29176 0.05706 0.43764 0.14334 0.46126 0.42206 0.98526 0.97167 1.0337 0.27915 0.02459 0.40213-0.08127 0.63558-0.20177 0.47594-0.38872 0.74128-0.98071 0.73631-1.5975-8.2e-4 -0.10201-0.02306-0.20273-0.03458-0.30409-0.14182-0.64669-0.67094-0.70285-1.2131-0.87161-0.0603-0.01988-0.1206-0.03977-0.1809-0.05965-0.08974-0.02959-0.13159 0.09733-0.04184 0.12692 0.06101 0.02011 0.12203 0.04022 0.18304 0.06034 0.34467 0.10722 0.86152 0.16263 1.0461 0.52367 0.03754 0.07343 0.04935 0.15737 0.07402 0.23606 0.01139 0.09224 0.03299 0.18379 0.03417 0.27672 0.0072 0.57038-0.23102 1.1244-0.66573 1.4911-0.18078 0.09857-0.31336 0.20579-0.53294 0.19239-0.49857-0.03044-0.74732-0.51271-0.87932-0.92398-0.01882-0.13582-0.05299-0.2704-0.05644-0.40747-0.01487-0.59077 0.27359-1.085 0.70581-1.4641 0.07294-0.06007-0.01201-0.16323-0.08495-0.10316z" opacity=".98"/>
  <path d="m19.138 22.143c0.25696 1.8978 0.23425 3.8157 0.16259 5.7246-0.03849 0.94276-0.15198 1.8791-0.25228 2.8164-0.0048 0.04459-0.0945 0.66196-0.03101 0.81348 0.0232 0.05537 0.09563 0.07261 0.14344 0.10892 0.08751-0.02037 0.17594-0.03715 0.26253-0.06112 0.09872-0.02732 0.1936-0.06787 0.29299-0.09265 0.44465-0.11088 0.89957-0.10538 1.354-0.09886 0.35894 0.0029 0.70535-0.0093 1.0325-0.17434 0.09732-0.04909 0.1828-0.11879 0.27419-0.17818 0.079-0.05184 0.0057-0.16357-0.07332-0.11173-0.45412 0.30117-0.68105 0.34166-1.2315 0.33063-0.62674-0.0088-1.2717-0.0079-1.8508 0.26713-0.14842-5.6e-5 -0.10268 0.02348-0.09171-0.25965 0.0069-0.17688 0.03264-0.35253 0.05147-0.52853 0.10065-0.94061 0.21446-1.8804 0.25304-2.8265 0.07191-1.9182 0.09449-3.8454-0.16446-5.7524-0.01612-0.09311-0.14779-0.07032-0.13168 0.02279z" opacity=".98"/>
  <path d="m22.278 25.212c-0.26069 0.57474-0.5868 1.1662-0.63791 1.8087-0.01208 0.15185 8e-3 0.30456 0.01195 0.45684 0.05359 0.14002 0.08705 0.28951 0.16078 0.42005 0.26092 0.462 0.78695 0.75404 1.3181 0.71099 0.12222-0.0099 0.23896-0.05516 0.35844-0.08274 0.10833-0.05876 0.22591-0.10299 0.32498-0.17628 0.4185-0.30956 0.6799-0.86708 0.62883-1.39-0.01285-0.13154-0.06813-0.2554-0.1022-0.3831-0.07571-0.11079-0.13412-0.23565-0.22714-0.33237-0.43111-0.44828-1.1198-0.62585-1.7037-0.76365-0.09198-0.02167-0.12262 0.10841-0.03064 0.13007 0.55268 0.12996 1.2094 0.29452 1.6247 0.71001 0.0844 0.08443 0.13864 0.19438 0.20796 0.29157 0.03254 0.113 0.08497 0.22208 0.09763 0.33898 0.05177 0.47802-0.18075 0.99272-0.55995 1.2814-0.08865 0.06748-0.19439 0.10891-0.29158 0.16336-0.10648 0.02644-0.21021 0.06896-0.31943 0.07932-0.48106 0.04562-0.95816-0.21227-1.2017-0.62645-0.06836-0.11627-0.10105-0.2501-0.15158-0.37515-0.0047-0.14266-0.02511-0.28566-0.01424-0.42798 0.04804-0.62894 0.37028-1.2075 0.6242-1.7701 0.0449-0.08315-0.07269-0.14664-0.11759-0.0635z" opacity=".98"/>
  <path d="m25.863 30.93c4.5e-4 -0.93938-0.05164-1.8771-0.09161-2.8153 9.52e-4 -1.2389-0.15729-2.4953 0.0037-3.7306 0.02235-0.17145 0.06359-0.3399 0.09539-0.50986 0.05325-0.12934 0.08292-0.27113 0.15976-0.388 0.26878-0.40885 0.83198-0.49527 1.2372-0.24803 0.09776 0.05965 0.16917 0.1544 0.25376 0.2316 0.04591 0.11861 0.10922 0.23188 0.13774 0.35583 0.1735 0.7539-0.19725 1.4436-0.6155 2.0356-0.16135 0.27679-0.66166 0.58238-0.70353 0.90894-0.02606 0.20328 0.06467 0.2828 0.16463 0.44651 0.07384 0.0749 0.14264 0.15514 0.22154 0.22471 0.33135 0.29218 0.71423 0.52622 1.0692 0.78743 0.34942 0.25713 0.49066 0.37416 0.83531 0.64712 0.68774 0.54923 1.3973 1.0709 2.0825 1.6232 0.07357 0.0593 0.15743-0.04475 0.08386-0.10405-0.68558-0.55249-1.3953-1.0745-2.0834-1.6239-0.34811-0.27567-0.48766-0.39138-0.8406-0.65111-0.34928-0.25703-0.72407-0.48797-1.0521-0.77297-0.07225-0.06276-0.13576-0.13493-0.20364-0.20239-0.06641-0.0983-0.16216-0.19468-0.15235-0.327 0.02006-0.2705 0.55244-0.63935 0.68788-0.87952 0.44142-0.62809 0.83639-1.364 0.62999-2.1631-0.03673-0.14219-0.11518-0.2702-0.17277-0.40529-0.09906-0.08579-0.18385-0.19156-0.29717-0.25738-0.47652-0.27676-1.1039-0.1456-1.4062 0.32328-0.08066 0.1251-0.1116 0.27599-0.16739 0.41399-0.0324 0.17443-0.07437 0.34735-0.0972 0.52329-0.161 1.2409-0.0039 2.5028-0.0041 3.7473 0.03989 0.9363 0.09192 1.8721 0.09149 2.8096 0 0.09449 0.13364 0.09449 0.13364 0z" opacity=".98"/>
 </g>
</svg>
