<?xml version="1.0" encoding="UTF-8"?>
<svg width="16mm" height="16mm" version="1.1" viewBox="0 0 16 16" xmlns="http://www.w3.org/2000/svg" xmlnsCc="http://creativecommons.org/ns#" xmlnsDc="http://purl.org/dc/elements/1.1/" xmlnsRdf="http://www.w3.org/1999/02/22-rdf-syntax-ns#">

 <g transform="translate(-62.059 53.866)">
  <path d="m69.818-37.946c-1.0242-0.49961-7.6229-3.832-7.6819-3.8795-0.10633-0.08545-0.10324-0.23685 0.0067-0.32674 0.04635-0.0379 0.84524-0.44911 1.7753-0.91379 0.93008-0.46468 1.6911-0.85192 1.6911-0.86052 0-0.0086-0.76098-0.39584-1.6911-0.86052-0.93008-0.46468-1.729-0.87588-1.7753-0.91379-0.11273-0.09219-0.11273-0.23936 0-0.33155 0.04635-0.0379 0.84524-0.4491 1.7753-0.91379 0.93008-0.46468 1.6911-0.85192 1.6911-0.86052 0-0.0086-0.76098-0.39584-1.6911-0.86052-0.93008-0.46468-1.729-0.87588-1.7753-0.91379-0.10991-0.08989-0.113-0.24129-0.0067-0.32673 0.04268-0.03429 1.8305-0.94266 3.973-2.0186 3.1186-1.5662 3.9133-1.953 3.9854-1.9399 0.12492 0.02267 7.831 3.8923 7.9055 3.9698 0.08371 0.08703 0.07538 0.22028-0.01933 0.3094-0.04382 0.04124-0.84257 0.45517-1.775 0.91985s-1.6953 0.85192-1.6953 0.86052c0 0.0086 0.76298 0.39584 1.6955 0.86052 0.93253 0.46468 1.7313 0.87592 1.775 0.91386 0.10326 0.08963 0.10316 0.22814-2.6e-4 0.32542-0.04383 0.04124-0.84257 0.45517-1.775 0.91985-0.93242 0.46468-1.6953 0.85192-1.6953 0.86052 0 0.0086 0.76298 0.39584 1.6955 0.86052 0.93254 0.46468 1.7313 0.87592 1.775 0.91386 0.09463 0.08214 0.10257 0.21648 0.01835 0.31032-0.07049 0.07854-7.7741 3.9516-7.9031 3.9734-0.05696 0.0096-0.15586-0.01799-0.27808-0.07761zm3.8247-2.2412c1.9545-0.98099 3.5535-1.7907 3.5534-1.7993-1.04e-4 -0.0086-0.30235-0.16665-0.67166-0.35122l-0.67147-0.33557-1.5087 0.75848c-0.8298 0.41716-2.4357 1.2229-3.5686 1.7906-1.133 0.56768-2.0598 1.0392-2.0598 1.0478 2.61e-4 0.02108 1.3199 0.68351 1.3497 0.6775 0.01292-0.0026 1.6226-0.80736 3.5771-1.7884zm-1.9326-0.97004c1.955-0.98099 3.5548-1.7907 3.555-1.7993 2.6e-4 -0.0086-0.30148-0.16629-0.6705-0.3504l-0.67095-0.33476-3.5691 1.7898c-1.963 0.9844-3.5692 1.7969-3.5692 1.8055-3.5e-5 0.02109 1.3196 0.68505 1.3479 0.67818 0.01228-3e-3 1.6219-0.80804 3.5769-1.789zm-3.8622 0c0.89278-0.44747 1.6232-0.82062 1.6231-0.82923-6.8e-5 -0.0086-0.3017-0.16636-0.6703-0.35058l-0.67019-0.33493-1.6382 0.81995c-0.90102 0.45097-1.6383 0.82699-1.6385 0.8356-3.65e-4 0.02062 1.3191 0.68364 1.3483 0.6775 0.01239-0.0026 0.75298-0.37085 1.6458-0.81832zm-2.1961-0.83927c0.76449-0.38415 1.5024-0.75378 1.6398-0.82141 0.13739-0.06762 0.2496-0.12999 0.24937-0.1386-2.61e-4 -0.0086-0.30236-0.16629-0.67139-0.35041l-0.67096-0.33476-1.6379 0.81979c-0.90084 0.45088-1.638 0.82683-1.6382 0.83543-1.96e-4 0.01082 1.1981 0.62724 1.3325 0.6855 0.0037 0.0016 0.63222-0.31139 1.3967-0.69554zm7.9909-2.0709c1.9545-0.98099 3.5536-1.7907 3.5535-1.7993-6.9e-5 -0.0086-0.73621-0.38468-1.6359-0.83571l-1.6358-0.82007-1.8722 0.94258c-1.4593 0.73471-1.8988 0.94253-1.9929 0.94236-0.09364-1.54e-4 -0.53996-0.21152-1.9903-0.9425l-1.8696-0.94228-1.6383 0.81999c-0.90106 0.45099-1.6382 0.82703-1.6382 0.83564 1.14e-4 0.02117 7.113 3.594 7.1427 3.5878 0.01292-0.0027 1.6226-0.80753 3.5771-1.7885zm-2.898-2.4251c0.36222-0.18071 0.65852-0.3356 0.65844-0.34421-7e-5 -0.0086-0.30256-0.16653-0.67218-0.35095l-0.67204-0.3353-0.67185 0.3353c-0.36952 0.18442-0.67168 0.34235-0.67146 0.35095 5.22e-4 0.02068 1.32 0.68363 1.3485 0.67751 0.01211-0.0026 0.31838-0.15259 0.6806-0.3333zm-1.9331-0.97004c0.36305-0.18071 0.66011-0.3356 0.66012-0.34421 1.2e-5 -0.0086-0.30245-0.16656-0.67214-0.35102l-0.67216-0.33537-0.67106 0.33537c-0.36908 0.18445-0.67118 0.34241-0.67133 0.35102-3.39e-4 0.01992 1.3189 0.68386 1.3461 0.6775 0.01118-0.0026 0.31738-0.15259 0.68043-0.3333zm3.8644 0c0.36222-0.18071 0.65832-0.3356 0.658-0.34421-2.61e-4 -0.0086-0.30271-0.16664-0.67198-0.35118l-0.6714-0.33554-0.6714 0.33554c-0.36927 0.18454-0.67152 0.34258-0.67166 0.35118-3.91e-4 0.02046 1.3191 0.68369 1.3478 0.6775 0.01211-0.0026 0.31838-0.15259 0.6806-0.3333zm-5.7937-0.97004c0.36171-0.18071 0.6576-0.3356 0.65752-0.34421-6.9e-5 -0.0086-0.30164-0.16632-0.67014-0.35048l-0.67-0.33483-0.67303 0.33483c-0.37017 0.18416-0.67304 0.34188-0.67306 0.35048-3.5e-5 0.02069 1.3195 0.68362 1.3486 0.67751 0.01237-0.0026 0.31844-0.15259 0.68016-0.3333zm3.8625 0c0.36171-0.18071 0.6576-0.3356 0.65752-0.34421-6.9e-5 -0.0086-0.30227-0.16664-0.67153-0.35118l-0.6714-0.33554-0.6714 0.33554c-0.36927 0.18454-0.67152 0.34258-0.67166 0.35118-3.91e-4 0.02061 1.3191 0.68364 1.3483 0.67751 0.01237-0.0026 0.31844-0.15259 0.68016-0.3333zm3.8625 0c0.36222-0.18071 0.65832-0.3356 0.658-0.34421-2.61e-4 -0.0086-0.30271-0.16664-0.67198-0.35118l-0.6714-0.33554-0.6714 0.33554c-0.36927 0.18454-0.6714 0.34258-0.67141 0.35118-1.4e-5 0.021 1.3195 0.68508 1.3476 0.67818 0.01211-3e-3 0.31838-0.15327 0.6806-0.33398zm-9.6562-0.97004c0.36171-0.18071 0.6576-0.3356 0.65752-0.34421-6.9e-5 -0.0086-0.30164-0.16632-0.67014-0.35048l-0.67-0.33483-0.67303 0.33483c-0.37017 0.18416-0.67304 0.34188-0.67306 0.35048-3.8e-5 0.02069 1.3195 0.68362 1.3486 0.6775 0.01237-0.0026 0.31844-0.15259 0.68016-0.3333zm3.8625 0c0.36171-0.18071 0.6576-0.3356 0.65752-0.34421-6.9e-5 -0.0086-0.30164-0.16632-0.67014-0.35048l-0.67-0.33483-0.67303 0.33483c-0.37016 0.18416-0.67304 0.34188-0.67306 0.35048-3.5e-5 0.02069 1.3195 0.68362 1.3486 0.6775 0.01237-0.0026 0.31844-0.15259 0.68016-0.3333zm3.8625 0c0.36171-0.18071 0.6576-0.3356 0.65752-0.34421-7e-5 -0.0086-0.30227-0.16664-0.67153-0.35118l-0.6714-0.33554-0.6714 0.33554c-0.36927 0.18454-0.6714 0.34258-0.67141 0.35118-1.4e-5 0.02115 1.3196 0.68503 1.3481 0.67818 0.01237-3e-3 0.31844-0.15327 0.68016-0.33398zm3.8625 0c0.36171-0.18071 0.6576-0.3356 0.65752-0.34421-6.9e-5 -0.0086-0.30212-0.16656-0.6712-0.35102l-0.67106-0.33537-0.67216 0.33537c-0.36969 0.18445-0.67217 0.34241-0.67218 0.35102-2.1e-5 0.02104 1.3203 0.68471 1.3489 0.67803 0.01237-0.0029 0.31844-0.15311 0.68016-0.33382zm-9.6563-0.97004c0.36222-0.18071 0.65832-0.3356 0.658-0.34421-2.6e-4 -0.0086-0.30208-0.16632-0.67058-0.35048l-0.67-0.33483-0.67303 0.33483c-0.37017 0.18416-0.67304 0.34188-0.67306 0.35048-3.5e-5 0.02054 1.3194 0.68367 1.3481 0.67751 0.01211-0.0026 0.31838-0.15259 0.6806-0.3333zm3.8625 0c0.36171-0.18071 0.6576-0.3356 0.65752-0.34421-6.9e-5 -0.0086-0.30164-0.16632-0.67014-0.35048l-0.67-0.33483-0.67303 0.33483c-0.37017 0.18416-0.67293 0.34188-0.6728 0.35048 2.61e-4 0.02124 1.3199 0.68501 1.3483 0.67818 0.01237-3e-3 0.31844-0.15327 0.68016-0.33398zm3.8625 0c0.36171-0.18071 0.65779-0.3356 0.65796-0.34421 1.3e-4 -0.0086-0.30218-0.16656-0.67186-0.35101l-0.67216-0.33537-0.67106 0.33537c-0.36908 0.18445-0.67107 0.34241-0.67108 0.35101-1.5e-5 0.02115 1.3196 0.68503 1.3481 0.67818 0.01237-3e-3 0.31844-0.15327 0.68016-0.33398zm-5.7938-0.97004c0.36222-0.18071 0.65832-0.3356 0.65801-0.34421-2.61e-4 -0.0086-0.30271-0.16664-0.67198-0.35118l-0.6714-0.33554-0.6714 0.33554c-0.36927 0.18454-0.6714 0.34258-0.67141 0.35118-1.4e-5 0.021 1.3195 0.68508 1.3476 0.67818 0.01211-3e-3 0.31838-0.15327 0.6806-0.33398zm3.8625 0c0.36171-0.18071 0.65779-0.3356 0.65796-0.34421 1.3e-4 -0.0086-0.30155-0.16625-0.67047-0.35032l-0.67077-0.33467-0.6727 0.33467c-0.36998 0.18407-0.6726 0.34171-0.67247 0.35032 2.61e-4 0.02124 1.3199 0.685 1.3483 0.67818 0.01237-3e-3 0.31844-0.15327 0.68016-0.33398zm-1.9313-0.97004c0.36222-0.18071 0.65852-0.3356 0.65844-0.34421-7e-5 -0.0086-0.30199-0.16625-0.67091-0.35031l-0.67077-0.33467-0.6727 0.33467c-0.36998 0.18407-0.67289 0.34171-0.67313 0.35031-5.21e-4 0.02081 1.3202 0.68501 1.3485 0.67813 0.01211-0.0029 0.31838-0.15321 0.6806-0.33392z" fill="#fff" stroke-width=".03285"/>
 </g>
</svg>
