<?xml version="1.0" encoding="UTF-8"?>
<svg width="30.93mm" height="29.502mm" version="1.1" viewBox="0 0 30.93 29.502" xmlns="http://www.w3.org/2000/svg" xmlnsCc="http://creativecommons.org/ns#" xmlnsDc="http://purl.org/dc/elements/1.1/" xmlnsRdf="http://www.w3.org/1999/02/22-rdf-syntax-ns#">

 <g transform="translate(-5.8152 -6.7664)" fill="#020202" stroke-width="0">
  <path d="m12.418 18.122c-0.9451 0.74801-1.809 1.5781-2.6753 2.4035-0.96888 0.94314-1.9453 1.8807-2.8614 2.8694-0.25192 0.36402-0.41244 0.64319-0.22699 1.085 0.17337 0.41309 0.62958 0.69194 0.9817 0.95533 0.15346 0.13604 0.30902 0.27006 0.46039 0.40814 0.53707 0.48991 1.0599 0.99281 1.6074 1.4729 0.39174 0.34351 0.56978 0.48502 0.96422 0.80937 0.57426 0.46281 1.1357 0.93908 1.629 1.4783 0.18748 0.14292 0.2349 0.2244 0.54478 0.17727 0.18137-0.02759 0.35546-0.21395 0.47446-0.32736 0.21749-0.20727 0.34718-0.34039 0.56579-0.55942 1.0521-1.1217 2.1824-2.1752 3.2664-3.2694 0.89062-0.90533 1.8288-1.7681 2.8028-2.5946 0.2325-0.22868 0.55676-0.39786 0.73214-0.67607 0.02669-0.04232 0.04539-0.08862 0.06809-0.13294 0.0017-0.09839 0.02011-0.19777 0.0052-0.29517-0.0591-0.3831-0.62461-0.82629-0.91822-1.0694-0.49604-0.38205-0.98576-0.77052-1.4422-1.1938-0.53078-0.5269-1.0646-1.0505-1.6134-1.561-0.32673-0.29395-0.64239-0.59837-0.96592-0.8953-0.15145-0.12906-0.29149-0.29444-0.48603-0.37058-0.05309-0.02077-0.10976-0.03239-0.16464-0.04858-0.06815 2.74e-4 -0.13698-0.0085-0.20444 7.08e-4 -0.24476 0.03267-0.60552 0.22784-0.83691 0.32888-0.33085 0.14946-0.67661 0.28448-0.95968 0.50914-0.0794 0.06302-0.15091 0.13426-0.22637 0.20139-0.32265 0.32434-0.63472 0.65763-0.9475 0.99025-0.33545 0.35675 0.20415 0.80031 0.5396 0.44356 0.29996-0.31903 0.59982-0.63819 0.90736-0.95089 0.11944-0.11042 0.17239-0.17079 0.3077-0.25654 0.21195-0.13431 0.45612-0.21994 0.68293-0.32824 0.15698-0.06855 0.31367-0.13767 0.4707-0.20613 0.01045-0.0045 0.12996-0.05301 0.13125-0.06275 0.0013-0.01018-0.01909-0.01017-0.02862-0.01525-0.08312-0.08334 0.15241 0.09879 0.21409 0.15507 0.03258 0.02971 0.0649 0.05969 0.09734 0.08954 0.32249 0.29573 0.63675 0.59928 0.9624 0.89205 0.54925 0.51086 1.0829 1.0353 1.6146 1.5621 0.46682 0.43164 0.96458 0.83089 1.4722 1.22 0.19634 0.16162 0.38474 0.32155 0.55551 0.50726 0.0315 0.03427 0.06299 0.06864 0.09179 0.10492 0.01407 0.01771 0.01323 0.06016 0.03653 0.05668 0.02791-0.0041 0.02847-0.04566 0.0427-0.06848 9e-3 0.03683-0.07519 0.10989-0.09047 0.12427-0.16797 0.158-0.35847 0.29408-0.53046 0.44797-0.98915 0.83971-1.9423 1.7159-2.847 2.6355-1.0833 1.0936-2.2133 2.1464-3.2646 3.2676-0.51187 0.51305-0.10581 0.10917-0.55316 0.54708-0.03918 0.03836-0.09269 0.06778-0.1167 0.11584-0.0075 0.0151 0.03407 0.01022 0.05008 0.01755 0.05423 0.02483 0.10653 0.0532 0.16035 0.07881 0.01857 0.0089-0.03638-0.019-0.05459-0.02851-0.51609-0.56263-1.0995-1.063-1.7003-1.5458-0.38167-0.31363-0.56277-0.45773-0.94113-0.78945-0.54898-0.48132-1.072-0.98677-1.6117-1.4767-0.16616-0.15082-0.33731-0.29674-0.50596-0.44512-0.19808-0.1469-0.41668-0.29962-0.59922-0.46621-0.05058-0.04617-0.093355-0.09926-0.13966-0.14919-0.024981-0.02694-0.067294-0.04636-0.074187-0.08142-0.025076-0.12756 0.10126-0.28771 0.15372-0.37834 0.90605-0.9784 1.873-1.9052 2.8311-2.8387 0.85335-0.8131 1.7038-1.6313 2.635-2.368 0.38272-0.3124-0.0898-0.81847-0.47252-0.50607z" opacity=".98"/>
  <path d="m17.184 15.075c0.55978 0.84355 1.2672 1.5878 1.9247 2.3638 0.74688 0.92119 1.4506 1.872 2.2247 2.7737 0.16031 0.17882 0.31489 0.36265 0.48429 0.53422 0.03312 0.03355 0.1482 0.14923 0.19719 0.16162 0.10892 0.02754 0.22422 0.02387 0.33632 0.0358 0.11126-0.08106 0.23072-0.15312 0.33378-0.24316 0.09421-0.0823 0.52052-0.5708 0.57342-0.6291 0.41636-0.45888 0.85001-0.90242 1.2852-1.3456 0.65948-0.66923 1.2822-1.3693 1.9476-2.0336 0.32274-0.32221 0.6085-0.59031 0.93827-0.90386 0.68397-0.64642 1.3568-1.3035 2.0025-1.9836 0.19491-0.23488 0.58-0.50635 0.53208-0.84969-0.01397-0.10011-0.07364-0.18981-0.11046-0.28472-0.06793-0.0757-0.13322-0.15356-0.20381-0.22711-0.48146-0.50164 0.03812 0.08124-0.50244-0.51231-0.3426-0.37618-0.65342-0.77384-0.96499-1.1725-0.68591-0.90711-1.3386-1.8354-2.0395-2.7326-0.32222-0.36794-0.67032-1.0439-1.2984-0.94456-0.12454 0.019696-0.22977 0.09819-0.34465 0.14729-0.10112 0.089912-0.20623 0.17607-0.30337 0.26974-0.09821 0.094703-0.18814 0.19662-0.2822 0.29493-0.10727 0.10569-0.21274 0.21301-0.32181 0.31708-0.38911 0.37128-0.79635 0.72655-1.196 1.0878-0.81502 0.79237-1.6546 1.5589-2.5463 2.2755-0.68483 0.52147-1.2657 1.1378-1.8231 1.7741-0.29457 0.35478-0.62292 0.68325-0.96632 0.99678-0.36331 0.33205 0.13893 0.81244 0.50224 0.4804 0.36198-0.33114 0.70871-0.67746 1.0199-1.0515 0.53088-0.60612 1.0823-1.1946 1.7358-1.6904 0.90199-0.72542 1.753-1.4997 2.5772-2.3019 0.6732-0.60851 1.3602-1.2059 1.9682-1.8735 0.0083-0.018623 0.02494-0.0357 0.02484-0.055864-1.38e-4 -0.019567-0.04568-0.048893-0.02538-0.053679 0.06164-0.014542 0.20487 0.12993 0.24738 0.17509 0.08664 0.092068 0.39268 0.47559 0.45193 0.54896 0.70119 0.89707 1.3529 1.8261 2.0397 2.7328 0.50124 0.64083 1.0078 1.2837 1.6205 1.8371 0.02134-0.05176 0.04052-0.1062 0.0554-0.09491 0.01445 0.01096-0.0099 0.03396-0.01929 0.04897-0.09685 0.15434-0.24821 0.27271-0.36429 0.41273-0.63748 0.67162-1.3023 1.3201-1.9775 1.9585-0.34034 0.32366-0.62262 0.58838-0.95619 0.92153-0.66487 0.66403-1.2877 1.3634-1.9466 2.0325-0.44322 0.45138-0.88464 0.90328-1.3087 1.3707-0.10287 0.11338-0.20192 0.22977-0.30476 0.34318-0.07377 0.08136-0.16153 0.15248-0.22503 0.2411-0.01283 0.01789 4e-3 0.04291 0.0062 0.06435 0.07766 0.01973 0.15627 0.03646 0.23298 0.0592 4e-3 0.0012 0.0073 0.01376 0.0042 0.01114-0.2005-0.16628-0.34233-0.3891-0.52567-0.56966-0.77344-0.90034-1.4745-1.8513-2.2218-2.7704-0.64108-0.75633-1.3313-1.4814-1.8786-2.3026-0.26926-0.40282-0.87854-0.04677-0.60927 0.35604z" opacity=".98"/>
  <path d="m21.303 23.507c-1.5225 1.3597-2.9342 2.824-4.3197 4.305-0.80762 0.88311-1.7021 1.6926-2.5218 2.5652-0.1442 0.24932-0.23066 0.30488-0.15695 0.62408 0.09185 0.39777 0.76543 0.92079 1.0655 1.1846 1.1022 0.85252 2.1887 1.7202 3.235 2.6325 0.39796 0.31235 1.0448 1.0578 1.6109 1.0796 0.11228 0.0043 0.22198-0.03293 0.33298-0.0494 0.13364-0.09673 0.27698-0.18276 0.40092-0.29017 0.14177-0.12287 0.59808-0.6363 0.71041-0.76059 0.41088-0.4546 0.82203-0.90898 1.2325-1.3639 0.96084-1.0518 1.9406-2.0883 2.9238-3.1219 0.27872-0.30794 0.58256-0.59738 0.84868-0.91544 0.07575-0.09053 0.22352-0.27766 0.26496-0.39512 0.02873-0.08141 0.03263-0.16874 0.04894-0.25311-0.06601-0.13364-0.11148-0.27795-0.19804-0.4009-0.07578-0.10764-0.48637-0.44704-0.57735-0.52343-0.31567-0.26505-0.63292-0.52778-0.94478-0.7968-0.50234-0.45385-1.0095-0.90246-1.5347-1.3332-0.29275-0.24059-0.60866-0.45765-0.88196-0.7186-0.1769-0.16891-0.2042-0.21292-0.36247-0.40244-0.16096-0.20728-0.31148-0.42153-0.45508-0.63961-0.03155-0.04791-0.06273-0.09606-0.09265-0.14487-0.06251-0.10193-0.08122-0.11354-0.0415-0.08402-0.0076 0.08087-0.01521 0.16175-0.02281 0.24262 0.26957-0.40264-0.33943-0.75909-0.609-0.35645-0.01979 0.09908-0.03958 0.19815-0.05937 0.29723 0.15155 0.40621 0.47044 0.74266 0.7157 1.1004 0.193 0.228 0.2185 0.27132 0.4326 0.47441 0.28082 0.26636 0.60163 0.49132 0.90277 0.73634 0.52073 0.42698 1.023 0.87232 1.5213 1.322 0.31334 0.2702 0.63153 0.53467 0.94909 0.80048 0.0947 0.07926 0.18972 0.15822 0.28272 0.23922 0.0639 0.05567 0.11117 0.13177 0.18793 0.17073 0.02427 0.01232 0.04772-0.02601 0.07159-0.039 0.0086 2e-3 0.02768-2e-3 0.0258 6e-3 -0.01806 0.07759-0.13915 0.22441-0.17491 0.2672-0.26145 0.31279-0.56056 0.59703-0.83435 0.89991-0.9873 1.038-1.9712 2.0789-2.9361 3.1352-0.52752 0.58473-1.0492 1.175-1.5845 1.7535-0.09611 0.10387-0.19952 0.20181-0.29318 0.30761-0.03783 0.04273-0.06708 0.09149-0.10063 0.13722-0.06095 0.11362-0.20604-0.0044-0.27643-0.05018-0.36397-0.23638-0.66394-0.54852-0.9938-0.82183-1.0458-0.9116-2.13-1.7806-3.2331-2.6308-0.27965-0.24521-0.37-0.31581-0.62026-0.56473-0.05427-0.05398-0.10223-0.11332-0.15681-0.167-0.02065-0.02032-0.03961-0.04686-0.06845-0.05453-0.02012-0.0053-0.05556 0.03996-0.05874 0.02063-0.0064-0.03878 0.02931-0.07354 0.04396-0.1103 0.81889-0.87359 1.7161-1.6814 2.5225-2.566 1.3444-1.4372 2.7197-2.8502 4.1775-4.1883 0.42272-0.2635 0.02418-0.82245-0.39854-0.55896z" opacity=".98"/>
  <path d="m30.577 14.699c-0.91539 0.73618-1.7973 1.5089-2.6601 2.2985-1.0483 0.98142-2.1193 1.9416-3.143 2.9457-0.45662 0.50046-0.98772 0.964-1.3351 1.5424-0.01873 0.07214-0.0553 0.14219-0.05621 0.21642-1e-3 0.08534 0.01505 0.173 0.05049 0.25165 0.14365 0.31878 0.66813 0.65426 0.94772 0.86031 0.86191 0.62708 1.6517 1.3334 2.4837 1.9938 0.62874 0.47372 1.266 0.93776 1.9118 1.391 0.64741 0.35836 0.91039-0.04715 1.2399-0.50911 0.71044-0.85477 1.5119-1.639 2.2798-2.4481 0.64238-0.72102 1.3612-1.3707 2.12-1.9825 0.43725-0.35143 0.88947-0.68728 1.3106-1.0558 0.22279-0.19231 0.40872-0.40304 0.38886-0.70549-0.0044-0.06749-0.02809-0.13265-0.04214-0.19898-0.25504-0.64696-0.84527-1.1-1.3891-1.5357-0.66216-0.48504-1.2217-1.0692-1.771-1.6605-0.44376-0.49896-0.95532-0.92832-1.5333-1.2852-0.25634-0.14373-0.13423-0.08266-0.3637-0.18774-0.45818-0.20524-0.76861 0.4006-0.31044 0.60584 0.16269 0.07029 0.06796 0.02546 0.27932 0.14317 0.52472 0.3211 0.98394 0.7131 1.3857 1.1646 0.5726 0.61616 1.1575 1.2237 1.8463 1.7304 0.4308 0.34408 0.90736 0.69536 1.1578 1.183 0.0073 0.0165 0.01071 0.03514 0.02209 0.04951 0.0082 0.01035 0.0451-0.01925 0.04062-0.0071-0.03204 0.08719-0.15009 0.14287-0.2025 0.21416-0.41313 0.36296-0.85989 0.69069-1.2885 1.0372-0.7827 0.63151-1.5246 1.302-2.1881 2.0453-0.78998 0.83246-1.6163 1.6381-2.3408 2.5222-0.07491 0.10586-0.16212 0.20484-0.22565 0.31701-0.01538 0.02714 0.05865 0.02784 0.08905 0.03947 8e-3 3e-3 0.01896 0.02345 0.01052 0.02196-0.03012-0.0053-0.05602-0.02323-0.08404-0.03486-0.63436-0.44514-1.2602-0.90103-1.8782-1.3659-0.8389-0.66564-1.6347-1.3781-2.5042-2.0095-0.17157-0.12615-0.36025-0.26016-0.5246-0.39679-0.06005-0.04992-0.16567-0.16391-0.18761-0.15273-0.01982 0.01009-0.01283 0.04046-0.01924 0.06069-0.0082 0.0035-0.01644 0.0071-0.02467 0.01066 0.09291-0.16614 0.21344-0.3056 0.34027-0.45114 0.28372-0.32557 0.57823-0.64296 0.88455-0.95014 1.0178-0.99863 2.0834-1.9529 3.1255-2.9291 0.82857-0.75854 1.6792-1.4949 2.547-2.2141 0.42691-0.25752 0.03739-0.82202-0.38951-0.5645z" opacity=".98"/>
  <path d="m18.459 15.599c0.75516-0.74587 1.5413-1.4633 2.3244-2.1833 0.8711-0.79658 1.7593-1.5768 2.6592-2.3448 0.5562-0.4853 1.1427-0.93799 1.7443-1.3727 0.43628-0.29974 0.83698-0.63822 1.2263-0.98881 0.04465-0.042116 0.08931-0.084234 0.13396-0.12635 0.35747-0.33754-0.15306-0.81022-0.51054-0.47268-0.04062 0.03839-0.08122 0.076783-0.12183 0.11518-0.37059 0.33374-0.75147 0.65638-1.1673 0.94114-0.6171 0.44602-1.2187 0.91044-1.7893 1.4081-0.90645 0.77368-1.8011 1.5596-2.6785 2.362-0.78519 0.72198-1.5735 1.4413-2.3307 2.1892-0.35778 0.33725 0.15231 0.81034 0.5101 0.4731z" opacity=".98"/>
  <path d="m19.2 16.677c0.58125-0.58657 1.2209-1.1196 1.8375-1.6733 0.61665-0.5917 1.2752-1.1384 1.9805-1.6354 0.52404-0.36112 1.0346-0.73845 1.5149-1.1494 0.35538-0.33153 0.71078-0.66271 1.0805-0.98039 0.31702-0.27404 0.6582-0.5214 1.0061-0.75982 0.22076-0.14512 0.42922-0.30437 0.6257-0.47707 0.36924-0.32627-0.12426-0.81452-0.4935-0.48824-0.17378 0.15461-0.36114 0.29401-0.55703 0.42354-0.36922 0.25315-0.73099 0.51622-1.0675 0.80707-0.36921 0.31753-0.72544 0.64735-1.0795 0.97956-0.46297 0.39706-0.95697 0.75957-1.4622 1.1084-0.72757 0.51347-1.4089 1.0765-2.0455 1.6872-0.64325 0.57767-1.3138 1.1317-1.9118 1.7513-0.30741 0.37819 0.26462 0.78468 0.57203 0.40649z" opacity=".98"/>
  <path d="m20.601 17.828c0.43092-0.53493 0.96895-0.98258 1.4878-1.44 0.6906-0.60884 0.45852-0.40287 1.1447-1.0241 0.93291-0.90639 2.0024-1.6695 3.0314-2.4743 0.69484-0.55836 1.2874-1.2143 1.9087-1.841 0.3454-0.34836-0.18151-0.80507-0.5269-0.45671-0.60074 0.60592-1.1731 1.2406-1.8429 1.7825-1.0421 0.81547-2.125 1.5889-3.0701 2.5069-0.69009 0.62492-0.43996 0.40254-1.1371 1.0174-0.54508 0.48073-1.108 0.95278-1.5608 1.5147-0.31361 0.37372 0.25165 0.7884 0.56526 0.41468z" opacity=".98"/>
  <path d="m21.363 19.438c0.34095-0.40974 0.75864-0.75555 1.1485-1.1229 0.38558-0.36336 0.50358-0.4851 0.87848-0.85687 0.69513-0.73762 1.4481-1.4206 2.2357-2.0704 0.59704-0.46395 1.1057-1.0089 1.5825-1.5784 0.32455-0.40781 0.72308-0.75091 1.1335-1.0806 0.2154-0.16297 0.39052-0.3634 0.56584-0.56209 0.32262-0.36695-0.23241-0.79355-0.55503-0.4266-0.14839 0.16948-0.29466 0.34176-0.47917 0.47926-0.44592 0.35861-0.87732 0.73353-1.231 1.176-0.44951 0.53728-0.92793 1.0521-1.4922 1.4887-0.80399 0.66353-1.5731 1.3606-2.2831 2.1133-0.36357 0.36064-0.4869 0.4876-0.86063 0.83978-0.42521 0.40069-0.88186 0.77778-1.2442 1.2322-0.27874 0.39714 0.32195 0.76572 0.60069 0.36858z" opacity=".98"/>
  <path d="m23.513 9.6148c0.79089 0.51929 1.4309 1.2151 2.071 1.8851 0.7287 0.77573 1.346 1.6335 1.9851 2.4733 0.28797 0.37734 0.58498 0.74932 0.91588 1.0949 0.12774 0.15285 0.28176 0.25469 0.48211 0.30412 0.49695 0.09872 0.64627-0.55839 0.14932-0.65711 0.01291 0.0068 0.04163 0.03919 0.03032 0.03028-0.02208-0.01739-0.11762-0.11639-0.1269-0.12584-0.31356-0.32619-0.59229-0.67961-0.86532-1.0358-0.65449-0.86004-1.2874-1.7379-2.0348-2.5315-0.68699-0.71845-1.3759-1.463-2.232-2.0107-0.4335-0.2477-0.80816 0.32552-0.37465 0.57322z" opacity=".98"/>
  <path d="m21.455 10.551c0.55777 0.53674 1.1027 1.0852 1.6483 1.6328 0.58114 0.58945 1.0835 1.2404 1.6187 1.8655 0.37782 0.43919 0.79818 0.84242 1.2324 1.2323 0.22405 0.19605 0.4366 0.40396 0.6048 0.64472 0.05532 0.07758 0.10601 0.15806 0.14728 0.24298 0.21295 0.43128 0.86528 0.1497 0.65232-0.28158-0.05756-0.11556-0.12463-0.22666-0.20071-0.33253-0.20047-0.27997-0.44121-0.52978-0.70608-0.75816-0.41173-0.36958-0.81088-0.75123-1.1692-1.1676-0.54647-0.63807-1.0593-1.3028-1.6538-1.9036-0.55309-0.55508-1.1053-1.1112-1.6713-1.6548-0.363-0.33234-0.86567 0.14766-0.50267 0.48z" opacity=".98"/>
  <path d="m19.818 12.664c0.62395 0.57063 1.2058 1.1799 1.8148 1.7647 0.46384 0.43865 0.95191 0.8588 1.3719 1.3361 0.20017 0.22748 0.28493 0.35256 0.46165 0.5918 0.29862 0.43444 0.55444 0.89229 0.84519 1.3313 0.20736 0.289 0.4089 0.58149 0.61116 0.87361 0.09223 0.1172 0.04696 0.06449 0.13393 0.15954 0.33493 0.35718 0.87517-0.08571 0.54024-0.44288-0.04176-0.04177-0.017-0.01537-0.07104-0.08175-0.1997-0.2884-0.3984-0.57733-0.60356-0.86239-0.29746-0.44848-0.55671-0.91772-0.86521-1.3599-0.20255-0.27288-0.28232-0.39188-0.51263-0.65281-0.42858-0.48557-0.92357-0.91531-1.3969-1.3614-0.37322-0.35831-0.73995-0.72153-1.1056-1.0866-0.16996-0.16972-0.4235-0.42896-0.61387-0.59358-0.07916-0.06846-0.1646-0.13028-0.24689-0.19542-0.43836-0.24012-0.80155 0.33951-0.36319 0.57963z" opacity=".98"/>
  <path d="m18.123 13.979c0.05552 0.07455 0.1068 0.15203 0.16656 0.22366 0.2937 0.35203 0.63835 0.66686 0.95223 1.0026 0.31442 0.33632 0.45323 0.50162 0.7526 0.84528 0.5327 0.63877 1.0581 1.2834 1.5547 1.9472 0.31101 0.4282 0.62164 0.85642 0.95171 1.272 0.31673 0.38551 0.63729 0.76894 0.97756 1.1367 0.03133 0.0324 0.06266 0.06479 0.09399 0.09719 0.34097 0.35215 0.87361-0.0987 0.53264-0.45086-0.02786-0.02873-0.05573-0.05747-0.0836-0.08621-0.32904-0.35459-0.63741-0.7257-0.94385-1.0974-0.32624-0.41035-0.63217-0.83388-0.93975-1.2565-0.50688-0.67711-1.0424-1.3351-1.5864-1.9864-0.31332-0.35947-0.44611-0.51798-0.77573-0.87052-0.2957-0.31626-0.61774-0.61371-0.89968-0.94116-0.04415-0.05127-0.08256-0.10662-0.12384-0.15993-0.24534-0.41596-0.8745-0.09156-0.62916 0.32441z" opacity=".98"/>
  <path d="m8.0903 25.312c0.40589-0.83302 0.83106-1.6577 1.2478-2.486 0.10806-0.20998 0.30352-0.59742 0.42894-0.8154 0.044623-0.07756 0.090588-0.15475 0.14346-0.22764 0.018898-0.02606 0.10411-0.0709 0.070637-0.06753-0.56989 0.05735-0.23735 0.17697-0.53123 0.04261-0.01422 0.96316-0.054103 1.9258-0.078991 2.8888-0.023783 0.84562 0.00981 1.6909 0.076864 2.5341 0.054527 0.44063 0.095597 0.92136 0.80861 0.53502 0.06321-0.03426 0.17032-0.56196 0.18018-0.60486 0.21828-1.1988 0.55398-2.3715 0.92152-3.5366 0.41016-1.2127 0.85953-2.4132 1.2882-3.6202 0.07901-0.21571 0.15172-0.41958 0.23585-0.63224 0.02284-0.05775 0.04585-0.11549 0.07163-0.17215 0.01124-0.0247 0.06146-0.08868 0.03928-0.07165-0.29468 0.22639 0.2705 0.21082-0.62467-0.02725-0.08819 1.14-0.25085 2.2739-0.38201 3.4101-0.1724 1.6514-0.27868 3.3082-0.36373 4.9653-0.0051 0.49209-0.06626 0.98635-0.04238 1.4787 0.03384 0.07248 0.0175 0.20829 0.10152 0.21743 0.214 0.02329 0.43598-0.04893 0.62926-0.13792 0.06329-0.02914 0.05194-0.12276 0.07343-0.18559 0.13709-0.40091 0.22944-0.81504 0.3291-1.2248 0.35-1.7066 0.7127-3.4095 1.1434-5.1001 0.32979-1.2695 0.74078-2.5186 1.2328-3.741 0.05493-0.12324 0.16237-0.37596 0.23745-0.50862 0.01196-0.02113 0.07137-0.06159 0.04623-0.05722-0.15017 0.02615-0.28593 0.11374-0.43816 0.12549-0.06464 5e-3 -0.1344-0.12483-0.17576-0.0781-0.06873 0.07767-0.01474 0.20114-0.02211 0.30171-0.14661 1.3972-0.37887 2.7854-0.5978 4.174-0.23502 1.4421-0.47735 2.8833-0.64151 4.3342-0.0053 0.30203-0.0819 0.61984-0.02375 0.9226 0.01251 0.06512-0.0012 0.16184 0.06302 0.18954 0.6178 0.26638 0.55586 0.17516 0.82458-0.16927 0.52669-1.0844 0.88573-2.2337 1.2391-3.3756 0.31456-1.0776 0.58776-2.1649 0.95564-3.2282 0.23022-0.61321 0.48592-1.2209 0.81051-1.7964 0.13333-0.12527-0.11577 0.11587-0.28008 0.10136-0.11555-0.01019-0.17124-0.18798-0.28723-0.18405-0.06973 0.0022-0.01392 0.12984-0.02266 0.19456-0.03701 0.27438-0.07141 0.47654-0.11608 0.75546-0.19487 1.2472-0.3479 2.4998-0.47076 3.7548-0.02556 0.37322-0.07722 0.74628-0.0807 1.1208-4.1e-4 0.04384 0.0017 0.29743 0.04335 0.34961 0.0779 0.09744 0.19122 0.16502 0.28683 0.24753 0.15527-0.07039 0.33134-0.11008 0.46581-0.21119 0.04983-0.03747 0.26625-0.52107 0.27596-0.54265 0.19345-0.42992 0.36956-0.86586 0.54476-1.3025 0.31106-0.78762 0.57959-1.5896 0.90812-2.3711 0.13998-0.18023-0.01405 0.03699-0.28234 0.10322-0.05029 0.01241-0.10836-0.07866-0.14777-0.04693-0.03624 0.02921 0.02879 0.08567 0.04981 0.12585 0.13046 0.24945 0.11472 0.20037 0.33067 0.40494 0.37825 0.31713 0.85791-0.18303 0.47966-0.50015-0.16327-0.07812-0.13653-0.23826-0.23796-0.3666-0.07912-0.10012-0.15137-0.24076-0.28209-0.26439-0.40341-0.07293-0.44855 0.08962-0.57877 0.29853-0.32932 0.78497-0.60094 1.5895-0.91205 2.3807-0.17093 0.42614-0.34333 0.85125-0.53124 1.2712-0.04028 0.08999-0.08209 0.17937-0.12403 0.26869-0.02147 0.04573-0.11457 0.11528-0.06619 0.13646 0.09605 0.04204 0.21126-0.01781 0.31689-0.02674 0.06607 0.07411 0.13244 0.14798 0.19821 0.22231 0.0037 0.0042-0.01142-0.0066-0.01214-0.01205-6e-3 -0.04551-0.0081-0.09154-0.0076-0.13741 0.0031-0.36321 0.05382-0.72498 0.07831-1.0869 0.12151-1.2423 0.27306-2.4821 0.46584-3.7166 0.03178-0.19871 0.09525-0.58115 0.12074-0.791 0.01122-0.09239 0.05795-0.18999 0.0256-0.27791-0.06186-0.16815-0.12752-0.37318-0.29568-0.45624-0.24746-0.12223-0.393 0.1192-0.49123 0.24594-0.3419 0.61035-0.61658 1.2519-0.85815 1.9023-0.36945 1.0701-0.64729 2.1634-0.96216 3.2481-0.3361 1.0868-0.68063 2.1775-1.1647 3.2162-0.01535 0.22577-0.02403 0.0356 0.4576 0.26427 0.0058 0.0027-0.01165 0.01974-0.01274 0.01377-0.0095-0.05116-0.01238-0.10334-0.01335-0.15525-0.0017-0.0899 5.45e-4 -0.1799 0.0054-0.26971 0.0068-0.12658 0.0197-0.25281 0.02956-0.37922 0.16285-1.4418 0.40466-2.8738 0.6378-4.3069 0.22177-1.4066 0.45731-2.8129 0.60397-4.2284 0.01439-0.21767 0.09532-0.69947-0.15927-0.84855-0.52892-0.30973-0.76504 0.54993-0.87785 0.78528-0.50221 1.2489-0.92273 2.5249-1.2593 3.8219-0.43112 1.6929-0.79547 3.3978-1.1451 5.1069-0.09751 0.4017-0.12022 0.5148-0.226 0.88702-0.02482 0.08736-0.05144 0.17428-0.07917 0.26088-0.01222 0.03815-0.08217 0.10447-0.04063 0.11328 0.68699 0.1458 0.47226-0.2237 0.63056 0.18258-0.03458-0.46579 0.05095-0.94482 0.04258-1.4106 0.08432-1.6438 0.18967-3.2873 0.36041-4.9254 0.16768-1.453 0.03987-0.37002 0.20459-1.7086 0.06674-0.54241 0.15104-1.0911 0.17257-1.6375 0.0035-0.08793-0.0028-0.17596-0.0041-0.26394-0.18758-0.09881-0.35198-0.25524-0.56273-0.2964-0.07568-0.01478-0.11577 0.09716-0.16245 0.15477-0.02996 0.03696-0.04513 0.08269-0.06452 0.12538-0.12377 0.27237-0.21128 0.55821-0.31957 0.83582-0.43118 1.2142-0.88345 2.4218-1.2954 3.6419-0.37257 1.1817-0.71331 2.3711-0.93515 3.5869-0.020262 0.0902-0.043859 0.1798-0.060785 0.2706-0.00547 0.02976-0.037807 0.08307-0.00651 0.09041 0.16692 0.03909 0.34874-0.01162 0.5153 0.02879 0.03887 0.0094 0.0098 0.13013 0.04065 0.10603 0.0931-0.07284-0.29416-0.29129-0.05819-0.33613-0.06548-0.82119-0.09823-1.6444-0.07509-2.468 0.02594-1.0037 0.07743-2.0076 0.07012-3.0115-0.06188-0.13188-0.05112-0.32548-0.18563-0.39565-0.47818-0.24944-0.68792 0.17342-0.84792 0.45172-0.12771 0.22214-0.32711 0.61727-0.4378 0.8324-0.41966 0.83417-0.84798 1.6646-1.2564 2.5037-0.20285 0.43552 0.45589 0.70374 0.65873 0.26822z" opacity=".98"/>
  <path d="m25.062 21.706c0.16348 0.20571 0.3674 0.37769 0.56586 0.55265 0.36991 0.32562 0.86241-0.1635 0.4925-0.48912-0.1606-0.14114-0.32662-0.27894-0.46402-0.44099-0.28546-0.39295-0.87981-0.01548-0.59434 0.37746z" opacity=".98"/>
  <path d="m25.941 21.035c0.3295 0.32834 0.66194 0.65324 1.0081 0.96637 0.36517 0.33025 0.86469-0.15261 0.49952-0.48286-0.34416-0.31113-0.67359-0.63494-1.0018-0.96067-0.36086-0.33437-0.8666 0.1428-0.50574 0.47717z" opacity=".98"/>
  <path d="m26.728 20.319c0.30626 0.24671 0.63764 0.46126 0.97422 0.66951 0.42382 0.26194 0.82002-0.29848 0.39619-0.56042-0.31577-0.19493-0.6266-0.39558-0.91333-0.6274-0.39198-0.3022-0.84906 0.21611-0.45709 0.51831z" opacity=".98"/>
  <path d="m27.549 19.101c0.2594 0.27529 0.5509 0.52042 0.84534 0.76191 0.38206 0.31311 0.85564-0.19208 0.47358-0.50519-0.27032-0.22134-0.53847-0.44543-0.77687-0.69766-0.33346-0.35838-0.87552 0.08256-0.54205 0.44094z" opacity=".98"/>
  <path d="m28.677 18.024c0.32765 0.24629 0.6496 0.49498 0.99736 0.7167 0.42004 0.26722 0.82421-0.2882 0.40417-0.55541-0.3473-0.22039-0.6637-0.47358-0.99422-0.7147-0.41852-0.26929-0.82583 0.28411-0.40731 0.5534z" opacity=".98"/>
  <path d="m30.193 17.239c0.05809 0.03983 0.11618 0.07965 0.17426 0.11948 0.40969 0.28091 0.83458-0.26082 0.42488-0.54173-0.05809-0.03983-0.11618-0.07966-0.17426-0.11949-0.40969-0.28091-0.83458 0.26082-0.42489 0.54173z" opacity=".98"/>
  <path d="m27.376 23.574c0.39598 0.3009 0.81163 0.57232 1.2486 0.8181 0.43555 0.24455 0.80544-0.33137 0.36989-0.57592-0.41607-0.23316-0.80979-0.49297-1.1866-0.77905-0.40602-0.28553-0.8379 0.25134-0.43188 0.53687z" opacity=".98"/>
  <path d="m28.116 22.427c0.42234 0.45155 0.92904 0.8174 1.4738 1.1295 0.43356 0.24761 0.80808-0.32568 0.37452-0.5733-0.46853-0.26666-0.90284-0.57864-1.2735-0.95923-0.30483-0.38001-0.87962 0.02305-0.57479 0.40307z" opacity=".98"/>
  <path d="m28.831 21.199c0.37859 0.49799 0.79825 0.92641 1.2932 1.3245 0.38561 0.30928 0.8534-0.20061 0.46779-0.50989-0.16142-0.12904-0.28496-0.22257-0.43567-0.36656-0.27722-0.26487-0.5142-0.56314-0.7549-0.85654-0.30893-0.37711-0.87932 0.03139-0.57039 0.40849z" opacity=".98"/>
  <path d="m29.844 20.486c0.40959 0.29202 0.8385 0.55626 1.2799 0.80398 0.43568 0.24434 0.80526-0.33175 0.36957-0.5761-0.43183-0.24198-0.84981-0.50196-1.2509-0.78685-0.42272-0.2635-0.82126 0.29546-0.39854 0.55896z" opacity=".98"/>
  <path d="m31.546 19.177c0.22558 0.27896 0.4573 0.5535 0.68814 0.82864 0.31358 0.37374 0.87887-0.04091 0.56529-0.41464-0.22764-0.27131-0.45616-0.54202-0.67865-0.81707-0.30483-0.38002-0.87962 0.02305-0.57479 0.40307z" opacity=".98"/>
  <path d="m31.98 17.885c0.02986 0.0527 0.05971 0.10541 0.08957 0.15812 0.2395 0.41893 0.87314 0.10224 0.63364-0.31669-0.02311-0.03994-0.04621-0.07989-0.06934-0.11982-0.21054-0.43231-0.86443-0.15391-0.65389 0.2784z" opacity=".98"/>
  <path d="m32.997 19.004c0.06185 0.07351 0.1237 0.147 0.18555 0.22051 0.31469 0.37292 0.87875-0.04318 0.56406-0.41611-0.05499-0.06495-0.10997-0.12991-0.16496-0.19487-0.2953-0.38654-0.87995 0.0038-0.58466 0.39047z" opacity=".98"/>
 </g>
</svg>
