<?xml version="1.0" encoding="UTF-8"?>
<svg width="30.93mm" height="29.502mm" version="1.1" viewBox="0 0 30.93 29.502" xmlns="http://www.w3.org/2000/svg" xmlnsCc="http://creativecommons.org/ns#" xmlnsDc="http://purl.org/dc/elements/1.1/" xmlnsRdf="http://www.w3.org/1999/02/22-rdf-syntax-ns#">

 <g transform="translate(-5.8152 -6.7664)" fill="#020202">
  <path d="m35.084 6.9925c-0.05478 0.062052-0.10629 0.12811-0.16437 0.18615-0.19013 0.19003-0.59531 0.52949-0.76004 0.67248-0.90067 0.78175-1.8114 1.5474-2.7188 2.3191-2.6756 2.3104-5.3352 4.644-7.9771 7.0043-2.3712 2.0676-4.6985 4.1961-7.01 6.3489-0.3323 0.30403-0.66476 0.60782-0.99688 0.91208-0.77657 0.71142-1.1119 1.0041-1.8566 1.7525-0.83922 0.84337-1.644 1.7326-2.464 2.6-1.3766 1.3824-2.7279 2.7959-4.0108 4.2909-0.37624 0.44462-0.75279 0.88888-1.137 1.3246-0.50552 0.57329 0.20638 1.3875 0.71189 0.81419 0.38745-0.43946 0.76743-0.88726 1.1468-1.3358 1.2712-1.4821 2.6119-2.8814 3.9758-4.252 0.80959-0.85643 1.604-1.7349 2.4323-2.5679 0.73415-0.73834 1.0642-1.0259 1.8335-1.7307 0.3344-0.30635 0.66912-0.61224 1.0037-0.91836 2.3063-2.1479 4.6282-4.2715 6.994-6.3344 2.6355-2.3546 5.2889-4.6826 7.958-6.9876 0.90947-0.77346 1.8226-1.5405 2.7251-2.3245 0.28628-0.2487 0.59482-0.50096 0.86477-0.77671 0.07373-0.075312 0.13931-0.16036 0.20897-0.24055 0.46978-0.61145-0.2895-1.3681-0.75928-0.75663z" opacity=".98" stroke-width="0"/>
  <g stroke="#000">
   <path d="m35.667 12.068c-0.85499 0.76499-1.6643 1.5937-2.4893 2.3998-1.1945 1.1887-2.439 2.3089-3.6607 3.4605-1.0812 1.0465-2.1098 2.1596-3.2055 3.1869-1.1039 0.93976-2.1264 1.9855-3.1096 3.0829-0.87466 1.0159-1.8891 1.8494-2.838 2.7684-0.91691 0.93838-1.7158 2.0114-2.6135 2.9717-0.65948 0.65016-1.4081 1.1652-2.1149 1.7436-0.61419 0.52737-1.1176 1.1936-1.6134 1.8573-0.34225 0.46773-0.72236 0.89505-1.1121 1.3106-0.0028-0.0011-0.0055-0.0022-0.0083-0.0033-0.59443 0.44923-0.0366 1.4066 0.55784 0.9574 0.04662-0.03841 0.09326-0.07684 0.13988-0.11525 0.41758-0.44523 0.82398-0.90414 1.1911-1.4048 0.44286-0.59296 0.88897-1.1926 1.434-1.6689 0.7424-0.60823 1.5307-1.1474 2.2174-1.8398 0.88402-0.94917 1.6776-2.0006 2.576-2.9335 0.966-0.9375 2.0008-1.7854 2.8903-2.8228 0.96232-1.0745 1.9637-2.0971 3.0449-3.0166 1.0958-1.0285 2.127-2.1396 3.2073-3.1887 1.2262-1.156 2.4754-2.2804 3.6743-3.4736 0.81016-0.79164 1.6051-1.6054 2.4438-2.3579 0.56747-0.49239-0.04397-1.4063-0.61144-0.91396z" opacity=".98" stroke-width=".48959"/>
   <path d="m35.209 18.042c-0.71738 0.75375-1.4542 1.4792-2.2178 2.1717-1.2124 1.0405-2.3643 2.1655-3.5149 3.292-0.92857 0.90023-1.841 1.8217-2.7657 2.7271-0.66429 0.60733-1.3059 1.2428-1.9325 1.8997-0.58269 0.61968-1.1731 1.2299-1.7342 1.8751-0.41494 0.51229-0.86447 0.97916-1.3421 1.4137-0.61215 0.51288-1.1648 1.1017-1.6978 1.7165-0.30856 0.36222-0.60616 0.73621-0.90409 1.1097-0.4797 0.60138 0.26708 1.374 0.74677 0.7726 0.28859-0.36179 0.57676-0.72416 0.87545-1.0753 0.50495-0.58315 1.0286-1.1411 1.6098-1.6261 0.50767-0.46276 0.98715-0.95858 1.4291-1.5029 0.54966-0.63305 1.1296-1.2299 1.7004-1.838 0.61818-0.64821 1.2516-1.2745 1.9069-1.8738 0.92456-0.90544 1.8371-1.8267 2.7656-2.727 1.1411-1.1172 2.2833-2.233 3.4859-3.2647 0.77415-0.70272 1.5227-1.4371 2.2499-2.202 0.53911-0.53211-0.12165-1.4004-0.66077-0.86829z" opacity=".98" stroke-width=".58751"/>
   <path d="m35.168 24.152c-0.56141 0.6194-1.1986 1.1334-1.8482 1.6237-0.95455 0.66108-1.8137 1.4642-2.6156 2.3455-0.69804 0.83628-1.4517 1.605-2.2352 2.3349-0.54169 0.47051-1.0664 0.96238-1.5466 1.513-0.30588 0.34136-0.55234 0.74034-0.80671 1.1302-0.16629 0.24368-0.35335 0.4664-0.56485 0.65918-0.5525 0.514 0.08577 1.4038 0.63827 0.88985 0.27263-0.25697 0.52235-0.54174 0.73644-0.86379 0.22586-0.34624 0.44227-0.70292 0.71343-1.0066 0.45454-0.52362 0.95642-0.98462 1.469-1.4326 0.80477-0.75019 1.58-1.5392 2.2975-2.398 0.75657-0.83424 1.5694-1.5907 2.4721-2.2142 0.69302-0.52404 1.3722-1.0742 1.9723-1.7342 0.52589-0.54901-0.15585-1.396-0.68174-0.84699z" opacity=".98" stroke-width=".79225"/>
   <path d="m34.786 30.159c-0.55767 0.55485-1.1287 1.0916-1.6817 1.6526-0.59009 0.62185-1.1664 1.2603-1.7453 1.8956-0.234 0.26218-0.48497 0.50676-0.68326 0.80634-0.42091 0.65599 0.39368 1.3339 0.8146 0.67792 0.14683-0.25747 0.39702-0.4245 0.56872-0.65685 0.56946-0.62491 1.1365-1.2529 1.7165-1.8651 0.55854-0.56713 1.1369-1.1078 1.6989-1.6704 0.52154-0.55436-0.16686-1.3944-0.6884-0.83999z" opacity=".98" stroke-width="1.6201"/>
  </g>
 </g>
</svg>
