<?xml version="1.0" encoding="UTF-8"?>
<svg width="16mm" height="16mm" version="1.1" viewBox="0 0 16 16" xmlns="http://www.w3.org/2000/svg" xmlnsCc="http://creativecommons.org/ns#" xmlnsDc="http://purl.org/dc/elements/1.1/" xmlnsRdf="http://www.w3.org/1999/02/22-rdf-syntax-ns#" >
 
 <g transform="translate(-.10477 -.1067)">
  <path d="m0.41933 16.132c-0.038521-0.01216-0.11556-0.06759-0.1712-0.12316-0.13124-0.13112-0.16634-0.24142-0.12972-0.40773 0.04359-0.19798 0.24456-0.82282 0.85652-2.6631l0.59451-1.7878 4.3827-4.3837c4.6306-4.6317 5.6563-5.6503 6.0936-6.0517 0.46042-0.42263 0.55194-0.4814 0.8322-0.53444 0.38258-0.072401 0.84862 0.00733 1.1258 0.1926 0.21818 0.14586 1.4912 1.3974 1.8042 1.7737 0.22263 0.26769 0.34319 0.75381 0.28029 1.1301-0.03051 0.18253-0.10313 0.39285-0.18674 0.54086-0.08524 0.15088-1.3535 1.4354-6.5406 6.6245l-4.2489 4.2505-1.881 0.62102c-2.0869 0.68898-2.2039 0.72683-2.4614 0.79602-0.19604 0.05269-0.24421 0.05576-0.35019 0.02231z" fill-opacity="0" stroke-width=".020022"/>
 </g>
 <path d="m2.4477 12.664c-0.59446-0.1449-0.98756-0.65561-0.98756-1.283 0-0.46446 0.20668-0.85451 0.5857-1.1053l0.32113-0.21251h11.433l0.302 0.18776c0.80923 0.50312 0.80923 1.7571 0 2.2602l-0.302 0.18776-5.5509 0.0131c-3.053 0.0072-5.6636-0.01437-5.8014-0.04794zm-0.08746-3.7176c-0.3291-0.14307-0.57995-0.55339-0.58033-0.94926-2.47e-4 -0.25254 0.05628-0.36549 0.30978-0.61899l0.31008-0.31008h11.363l0.28624 0.26232c0.53877 0.49375 0.40846 1.3452-0.24784 1.6194-0.40401 0.16881-11.052 0.16563-11.441-0.00342zm-0.0651-3.1127c-0.12358-0.12358-0.19604-0.2873-0.19604-0.44291s0.07247-0.31934 0.19604-0.44291l0.19604-0.19604h11.196l0.19604 0.19604c0.12358 0.12358 0.19604 0.2873 0.19604 0.44291s-0.07247 0.31934-0.19604 0.44291l-0.19604 0.19604h-11.196zm0.12344-2.1202c-0.1919-0.1919-0.20275-0.38227-0.03541-0.62119l0.12433-0.17751h11.164l0.12433 0.17751c0.16734 0.23891 0.15649 0.42929-0.03541 0.62119-0.15665 0.15665-0.26623 0.15974-5.6708 0.15974-5.4045 0-5.5141-0.00309-5.6708-0.15974z" fill="#fff" stroke-width=".07987"/>
</svg>
