<?xml version="1.0" encoding="UTF-8"?>
<svg width="16mm" height="16mm" version="1.1" viewBox="0 0 16 16" xmlns="http://www.w3.org/2000/svg" xmlnsCc="http://creativecommons.org/ns#" xmlnsDc="http://purl.org/dc/elements/1.1/" xmlnsRdf="http://www.w3.org/1999/02/22-rdf-syntax-ns#">

 <g transform="translate(-68.801 -45.154)">
  <path d="m77.152 61.188c-0.01076-0.01117-0.01956-0.56464-0.01956-1.2299v-1.2096l0.211-0.01888c0.78742-0.07047 1.2157-0.16389 1.7401-0.37955 2.2844-0.93958 3.6623-3.3541 3.3461-5.8635-0.25453-2.0196-1.5366-3.72-3.359-4.4549-0.66416-0.26781-1.2009-0.37072-1.9381-0.37157-0.39985-4.54e-4 -0.59829 0.01538-0.88283 0.07047-1.1113 0.21517-2.155 0.78815-2.9265 1.6067l-0.16753 0.17775 0.21442 0.12871c0.93651 0.56218 1.8103 1.089 1.8182 1.0962 0.0053 0.0048-0.29717 0.19139-0.67209 0.41465-0.37491 0.22326-1.4483 0.86528-2.3853 1.4267-0.93701 0.56143-2.0381 1.2211-2.4468 1.466-0.40874 0.24485-0.76394 0.45346-0.78931 0.46357-0.04051 0.01615-0.04614-0.4435-0.04614-3.7712 0-3.5174 0.0037-3.7881 0.05188-3.7689 0.02854 0.01137 0.5293 0.30734 1.1128 0.65769 0.63956 0.38401 1.069 0.62344 1.0813 0.60282 0.08869-0.149 0.62075-0.72724 0.92932-1.01 1.1939-1.094 2.5757-1.7492 4.1551-1.9703 0.45101-0.06315 1.405-0.07194 1.8287-0.01685 1.4533 0.189 2.6897 0.71284 3.8551 1.6333 0.33737 0.26647 0.9697 0.90786 1.2559 1.2739 1.173 1.5002 1.8005 3.4511 1.7235 5.3582-0.04652 1.1514-0.2969 2.1744-0.78674 3.2145-1.1534 2.4489-3.4988 4.1621-6.0634 4.429-0.47236 0.04916-0.81825 0.06769-0.84009 0.04501z" fill="#fff" stroke-width=".031859"/>
 </g>
</svg>
