<svg width="153.08" height="139.84" version="1.1" viewBox="0 0 153.08 139.84" xmlns="http://www.w3.org/2000/svg">
 <g transform="translate(-57.605 -24)">
  <path d="m106.81 159.67c-18.224-12.507-36.35-25.947-36.623-27.154-0.474-2.0966 41.293-31.513 44.744-31.513 4.6514 0 6.0652 2.6601 6.0652 11.412v7.7544l22.25-0.33317c20.832-0.31193 22.548-0.47978 26.918-2.6329 9.244-4.5537 13.862-11.605 15.354-23.445 1.4826-11.763 13.224-16.116 21.688-8.0412 8.1165 7.7426 1.2457 32.082-12.753 45.177-12.479 11.673-21.287 14.074-51.708 14.095l-21.75 0.01478v7.5c0 6.1667-0.35556 7.8556-2 9.5-2.9246 2.9246-5.146 2.4994-12.187-2.3329zm-40.351-53.756c-1.6707-0.47224-4.3707-2.2506-6-3.9519-2.7166-2.8366-2.9518-3.6478-2.8343-9.7765 0.39565-20.635 13.233-38.157 33.872-46.232 5.5973-2.1899 7.6612-2.3737 30.75-2.7387l24.75-0.39129v-7.4105c0-8.0319 1.7924-11.41 6.0535-11.41 2.5715 0 44.947 29.869 44.947 31.682 0 0.73104-2.8125 3.3374-6.25 5.7919-31.532 22.516-36.095 25.526-38.683 25.526-4.6531 0-6.0669-2.6593-6.0669-11.412v-7.7544l-22.25 0.35714c-24.926 0.40009-27.128 0.89164-34.082 7.608-5.0934 4.919-6.673 8.174-7.7883 16.05-0.51279 3.621-1.6017 7.6051-2.4198 8.8536-2.978 4.545-8.7491 6.6929-13.997 5.2094z" fill="#78c5d6"/>
 </g>
</svg>
