<?xml version="1.0" encoding="UTF-8"?>
<svg width="16mm" height="16mm" version="1.1" viewBox="0 0 16 16" xmlns="http://www.w3.org/2000/svg" xmlnsCc="http://creativecommons.org/ns#" xmlnsDc="http://purl.org/dc/elements/1.1/" xmlnsRdf="http://www.w3.org/1999/02/22-rdf-syntax-ns#">

 <g transform="translate(.16475 -.21864)">
  <path d="m2.3453 16.125c-1.0959-0.39976-1.6624-2.0194-1.7957-5.1344-0.01705-0.3982-0.02955-2.5567-0.02955-5.1 0-4.0976-0.0035-4.4185-0.04992-4.5348-0.02746-0.06886-0.0756-0.1455-0.10698-0.17031-0.47041-0.3719-0.4707-0.37231-0.4707-0.65191v-0.26346h2.399l-0.0085 0.28209c-0.0084 0.27899-0.01098 0.28408-0.23669 0.46203-0.30692 0.24198-0.3261 0.26855-0.34442 0.47704-0.0087 0.09928-0.01078 2.3593-0.0046 5.0222 0.01207 5.1685 0.01384 5.238 0.16244 6.3654 0.07654 0.58067 0.27786 1.2308 0.465 1.5017 0.28718 0.41563 0.73676 0.54524 1.1092 0.31976 0.48918-0.29613 0.78613-1.1773 0.94493-2.8039 0.05832-0.59736 0.06122-0.82118 0.07119-5.4867 0.0067-3.1589 3.45e-4 -4.9175-0.01827-5.0168-0.01576-0.08411-0.07755-0.19356-0.13732-0.24322-0.05976-0.04966-0.18248-0.15038-0.27269-0.22381-0.15627-0.1272-0.16403-0.146-0.16403-0.39717v-0.26365l1.7687-0.0028v0.26737c0 0.2598-0.0055 0.27196-0.19256 0.42911-0.10591 0.08896-0.22692 0.18547-0.26891 0.21447-0.16821 0.11617-0.16095-0.09312-0.17371 5.0081-0.01121 4.4821-0.01447 4.7201-0.07533 5.4983-0.18984 2.4272-0.59888 3.7155-1.3603 4.2845-0.25527 0.19078-0.89511 0.27577-1.2103 0.16079zm7.8553-0.16381c-0.41625-0.25627-0.58241-0.82047-1.3064-4.4359-0.56438-2.8184-0.58698-2.8997-0.80653-2.8997h-0.12203v2.9385c0 1.7821 0.01111 2.9978 0.02822 3.0891 0.01673 0.08929 0.12127 0.23911 0.25675 0.36798 0.22626 0.21521 0.22852 0.22012 0.22852 0.49584v0.27848h-2.3107v-0.28289c0-0.27494 0.0046-0.28656 0.16403-0.41341 0.33037-0.26287 0.43042-0.37393 0.44682-0.49596 0.0092-0.06858 0.01675-3.0492 0.01675-6.6235 0-6.0874-0.0032-6.5068-0.04992-6.624-0.02746-0.06886-0.0756-0.1455-0.10698-0.17031-0.03138-0.02481-0.15013-0.12236-0.26388-0.21678l-0.20682-0.17167v-0.58828l0.4921 0.05043c0.27065 0.02774 0.86245 0.0094 1.3151-0.04072 1.1045-0.12234 1.542 0.01157 1.987 0.60822 0.2582 0.34624 0.51182 1.0808 0.59696 1.729 0.17302 1.3173 0.07071 3.0768-0.23778 4.0895-0.13157 0.4319-0.43145 1.0035-0.67812 1.2926l-0.19057 0.22333 0.13632 0.57858c0.07498 0.31822 0.30666 1.3852 0.51485 2.3711 0.71911 3.4053 0.84591 3.8178 1.2666 4.1203 0.12346 0.08879 0.13221 0.11267 0.13221 0.36107 0 0.20589-0.0145 0.27792-0.06419 0.31876-0.10676 0.08776-1.1112 0.1286-1.2383 0.05034zm-1.3078-8.633c0.32599-0.45836 0.46334-1.2025 0.49127-2.6616 0.02009-1.0496-0.04003-1.8958-0.17446-2.4559-0.13536-0.56396-0.38511-0.91591-0.69266-0.97612-0.12611-0.024688-0.30173-0.019034-0.39027 0.012558l-0.16098 0.05744v6.3651l0.36923-0.03808c0.34555-0.03564 0.38133-0.05509 0.55787-0.30332zm2.9421 8.2841c-0.03205-0.34154-0.01828-0.3741 0.26419-0.62474 0.1699-0.15076 0.28908-0.3018 0.29954-0.37964 0.0095-0.07109 0.01737-3.0537 0.01737-6.6281 0-7.4548 0.03699-6.6373-0.3138-6.9353-0.25506-0.21668-0.28527-0.27576-0.28527-0.55783v-0.21576h1.1696c1.0788 0 1.1696 0.01069 1.1696 0.1376 0 0.07568 0.0075 0.19315 0.01659 0.26105 0.01608 0.11967-0.01083 0.15016-0.45146 0.51156-0.14166 0.11618-0.13567-0.18533-0.13567 6.8392v6.553h1.5274l0.26888-1.5427c0.27471-1.5762 0.28991-1.631 0.45274-1.6337 0.06089-1e-3 0.06533 0.02547 0.05097 0.30443-0.0086 0.16804-0.02955 1.0388-0.04646 1.9351-0.0169 0.89624-0.03721 1.7487-0.04513 1.8943l-0.0144 0.2648h-3.9275z" fill="#fff" stroke-width=".048211"/>
 </g>
</svg>
