<?xml version="1.0" encoding="UTF-8"?>
<svg width="16mm" height="16mm" version="1.1" viewBox="0 0 16 16" xmlns="http://www.w3.org/2000/svg" xmlnsCc="http://creativecommons.org/ns#" xmlnsDc="http://purl.org/dc/elements/1.1/" xmlnsRdf="http://www.w3.org/1999/02/22-rdf-syntax-ns#">

 <g transform="translate(-62.209 66.216)">
  <path d="m76.701-51.663c-1.4513 1.4671-1.5165 1.5196-1.7515 1.412-0.17635-0.08078-0.2441-0.18459-0.2441-0.374 0-0.20536 0.20995-0.47399 0.96872-1.2395l0.96872-0.97729h-12.869l0.96872 0.97729c0.75877 0.76549 0.96872 1.0341 0.96872 1.2395 0 0.18875-0.06771 0.2932-0.24175 0.37292-0.2318 0.10619-0.30385 0.0484-1.7515-1.4049-0.83035-0.83362-1.5097-1.5772-1.5097-1.6524 0-0.14189 2.6664-2.9041 2.9586-3.0649 0.25254-0.139 0.54438 0.06085 0.54438 0.37278 0 0.20291-0.20845 0.469-0.94675 1.2085-0.52071 0.52156-0.94674 0.98123-0.94674 1.0215 0 0.04025 2.8757 0.07318 6.3905 0.07318s6.3905-0.03293 6.3905-0.07318-0.42604-0.49991-0.94674-1.0215c-0.73829-0.7395-0.94675-1.0056-0.94675-1.2085 0-0.31193 0.29184-0.51178 0.54438-0.37278 0.28354 0.15606 2.9586 2.9209 2.9586 3.0579 0 0.07135-0.67832 0.81543-1.5074 1.6535zm1.4025-9.093c-0.15726 0.52832-0.5645 1.0566-1.0238 1.3281l-0.43347 0.25621h-12.876l-0.43268-0.25575c-0.51366-0.30361-0.88779-0.81624-1.0371-1.421-0.06778-0.27461-0.09643-1.0596-0.07643-2.0941 0.02687-1.3894 0.06026-1.7083 0.20817-1.988 0.24642-0.466 0.61063-0.83905 1.054-1.0796 0.37721-0.20465 0.4036-0.20545 6.7219-0.20545 6.3183 0 6.3447 7.19e-4 6.7219 0.20545 0.44312 0.2404 0.80726 0.61328 1.0543 1.0796 0.15154 0.28606 0.17914 0.58211 0.19526 2.0941 0.01033 0.96853-0.02402 1.9047-0.07632 2.0804zm-0.98973-3.9478c-0.10736-0.14443-0.31285-0.35092-0.45665-0.45886-0.25782-0.19353-0.34729-0.19625-6.4487-0.19625s-6.1909 0.0029-6.4487 0.19625c-0.61836 0.46417-0.64922 0.57104-0.68044 2.3567-0.02712 1.5509-0.01736 1.657 0.18935 2.0566 0.41813 0.80828 0.06017 0.76854 6.9241 0.76854 5.3339 0 6.0838-0.01784 6.364-0.15155 0.69548-0.33181 0.80559-0.71799 0.77591-2.7211-0.02125-1.4339-0.04243-1.6131-0.21872-1.8503z" fill="#fff" stroke-width=".09493"/>
 </g>
</svg>
